<svg width="40" height="41" viewBox="0 0 40 41" fill="none" xmlns="http://www.w3.org/2000/svg">
<path d="M9.5 29.2L11.25 28.45C12.3675 27.971 13.6325 27.971 14.75 28.45V28.45C15.8675 28.9289 17.1325 28.9289 18.25 28.45V28.45C19.3675 27.971 20.6325 27.971 21.75 28.45V28.45C22.8675 28.9289 24.1325 28.9289 25.25 28.45V28.45C26.3675 27.971 27.6325 27.971 28.75 28.45L30.5 29.2" stroke="black" stroke-linecap="round"/>
<path d="M9.5 26.7249L11.25 25.9749C12.3675 25.4959 13.6325 25.4959 14.75 25.9749V25.9749C15.8675 26.4538 17.1325 26.4538 18.25 25.9749V25.9749C19.3675 25.4959 20.6325 25.4959 21.75 25.9749V25.9749C22.8675 26.4538 24.1325 26.4538 25.25 25.9749V25.9749C26.3675 25.4959 27.6325 25.4959 28.75 25.9749L30.5 26.7249" stroke="black" stroke-linecap="round"/>
<path d="M9.5 24.325L11.25 23.575C12.3675 23.096 13.6325 23.096 14.75 23.575V23.575C15.8675 24.0539 17.1325 24.0539 18.25 23.575V23.575C19.3675 23.096 20.6325 23.096 21.75 23.575V23.575C22.8675 24.0539 24.1325 24.0539 25.25 23.575V23.575C26.3675 23.096 27.6325 23.096 28.75 23.575L30.5 24.325" stroke="black" stroke-linecap="round"/>
<path d="M24.2016 12.7L24.5192 13.194C25.1217 14.1314 24.9895 15.362 24.2016 16.15V16.15C23.4136 16.9379 23.2814 18.1685 23.884 19.1059L24.2016 19.6" stroke="black" stroke-linecap="round"/>
<path d="M19.9984 12.7L20.316 13.194C20.9186 14.1314 20.7864 15.362 19.9984 16.15V16.15C19.2105 16.9379 19.0783 18.1685 19.6808 19.1059L19.9984 19.6" stroke="black" stroke-linecap="round"/>
<path d="M15.7992 12.7L16.1168 13.194C16.7194 14.1314 16.5872 15.362 15.7992 16.15V16.15C15.0113 16.9379 14.879 18.1685 15.4816 19.1059L15.7992 19.6" stroke="black" stroke-linecap="round"/>
<rect x="0.5" y="1" width="39" height="39" rx="19.5" stroke="black"/>
</svg>
