<svg width="40" height="41" viewBox="0 0 40 41" fill="none" xmlns="http://www.w3.org/2000/svg">
<path d="M12.875 26.3125V27.75C12.875 28.3023 12.4273 28.75 11.875 28.75H9.75C9.19772 28.75 8.75 28.3023 8.75 27.75V21.6385C8.75 20.3966 9.03916 19.1717 9.59458 18.0608L12.2236 12.8028C12.393 12.464 12.7393 12.25 13.118 12.25H26.882C27.2607 12.25 27.607 12.464 27.7764 12.8028L30.4054 18.0608C30.9608 19.1717 31.25 20.3966 31.25 21.6385V27.75C31.25 28.3023 30.8023 28.75 30.25 28.75H28.125C27.5727 28.75 27.125 28.3023 27.125 27.75V26.3125" stroke="black" stroke-linecap="round"/>
<path d="M10.625 25.75C10.625 25.75 14.8126 26.875 20 26.875C25.1874 26.875 29.375 25.75 29.375 25.75" stroke="black" stroke-linecap="round"/>
<path d="M11.75 23.7625C11.75 23.7625 14.8126 24.625 20 24.625C25.1874 24.625 28.25 23.7625 28.25 23.7625" stroke="black" stroke-linecap="round"/>
<path d="M8.75 16H9.80169C10.0589 16 10.277 16.1892 10.3134 16.4438V16.4438C10.5 17.7499 11.4923 18.7894 12.8019 18.9493C14.4623 19.1521 16.9754 19.375 20 19.375C23.4284 19.375 26.4304 19.0456 28.0653 18.8234C28.8496 18.7168 29.4506 18.0956 29.5626 17.3121V17.3121C29.6701 16.5592 30.3149 16 31.0754 16H31.25" stroke="black" stroke-linecap="round"/>
<path d="M11.375 21.625L14 22" stroke="black" stroke-linecap="round"/>
<path d="M26 22L28.625 21.625" stroke="black" stroke-linecap="round"/>
<rect x="0.5" y="1" width="39" height="39" rx="19.5" stroke="black"/>
</svg>
