<svg width="16" height="16" viewBox="0 0 16 16" fill="none" xmlns="http://www.w3.org/2000/svg">
<path fill-rule="evenodd" clip-rule="evenodd" d="M1.89009 7.1755C5.37904 5.48736 7.70168 4.36563 8.86798 3.82142C12.1875 2.27766 12.8852 2.01111 13.3338 2C13.4335 2 13.6528 2.02221 13.8023 2.15549C13.922 2.26655 13.9519 2.41093 13.9718 2.52199C13.9917 2.63306 14.0117 2.86629 13.9917 3.04399C13.8123 5.15417 13.0348 10.2741 12.636 12.6287C12.4666 13.6282 12.1376 13.9614 11.8186 13.9947C11.1208 14.0614 10.5925 13.4838 9.92463 12.9952C8.86798 12.2288 8.27984 11.7513 7.2531 10.996C6.06686 10.1298 6.83442 9.65219 7.51228 8.87475C7.69171 8.67484 10.752 5.5651 10.8118 5.28744C10.8218 5.25412 10.8218 5.12085 10.752 5.05421C10.6822 4.98757 10.5825 5.00979 10.5028 5.032C10.3931 5.05421 8.71845 6.29811 5.45878 8.75259C4.9803 9.11909 4.55166 9.29679 4.16289 9.28569C3.73425 9.27458 2.91684 9.01913 2.2988 8.79701C1.55117 8.53046 0.953062 8.38608 1.0029 7.91962C1.03281 7.67528 1.33186 7.43094 1.89009 7.1755Z" fill="#BB9B8C"/>
</svg>
