<svg width="16" height="16" viewBox="0 0 16 16" fill="none" xmlns="http://www.w3.org/2000/svg">
<path fill-rule="evenodd" clip-rule="evenodd" d="M8.02921 1C9.89388 1.0008 11.6441 1.72327 12.9601 3.03457C14.2762 4.34581 15.0007 6.08877 15 7.94233C14.9984 11.7674 11.871 14.8797 8.02927 14.8797H8.02639C6.85975 14.8793 5.71344 14.588 4.69528 14.0353L1 15L1.98891 11.4052C1.37886 10.353 1.05795 9.15959 1.05842 7.93692C1.05996 4.11193 4.18705 1 8.02921 1ZM10.0172 8.82567C10.1768 8.88353 11.0331 9.3029 11.2073 9.38961C11.2413 9.4066 11.2732 9.42192 11.3027 9.43613C11.4241 9.49453 11.506 9.53396 11.5411 9.59205C11.5846 9.66434 11.5846 10.0114 11.4395 10.4164C11.2943 10.8213 10.5985 11.1908 10.2638 11.2406C9.96377 11.2852 9.5841 11.3039 9.1668 11.1719C8.91383 11.092 8.58935 10.9854 8.17387 10.8068C6.54119 10.1051 5.4377 8.53021 5.22905 8.23243C5.21442 8.21155 5.20419 8.19695 5.19849 8.18937L5.19701 8.18741C5.10457 8.06462 4.4873 7.24478 4.4873 6.39622C4.4873 5.59775 4.88136 5.17924 5.06276 4.98658C5.0752 4.97337 5.08664 4.96122 5.09688 4.95008C5.25657 4.77654 5.44523 4.73315 5.56132 4.73315C5.67748 4.73315 5.79371 4.73429 5.89518 4.73929C5.9077 4.73992 5.92071 4.73985 5.93416 4.73977C6.03567 4.73919 6.16223 4.73846 6.28706 5.03685C6.3351 5.15175 6.40542 5.32211 6.47957 5.50177C6.62942 5.86484 6.79495 6.2659 6.82407 6.324C6.86766 6.4107 6.8967 6.51196 6.83862 6.62763C6.82988 6.64505 6.82179 6.66149 6.81406 6.67719C6.7705 6.76575 6.73845 6.83089 6.66445 6.91684C6.63525 6.95076 6.60507 6.98733 6.5749 7.02388C6.51505 7.0964 6.45523 7.16889 6.40315 7.22054C6.3159 7.30698 6.22516 7.40076 6.32676 7.5743C6.42837 7.74791 6.77793 8.31552 7.29569 8.77514C7.85256 9.26945 8.33646 9.47829 8.58158 9.58408C8.62931 9.60468 8.66799 9.62137 8.69639 9.6355C8.8705 9.72234 8.97211 9.70779 9.07371 9.59218C9.17532 9.47645 9.50918 9.08604 9.62528 8.9125C9.74137 8.73896 9.85753 8.76793 10.0172 8.82567Z" fill="#BB9B8C"/>
</svg>
