<svg width="297" height="29" viewBox="0 0 297 29" fill="none" xmlns="http://www.w3.org/2000/svg">
    <rect x="6.71484" y="0.92627" width="9.49739" height="9.49739" transform="rotate(45 6.71484 0.92627)"
        fill="#BB9B8C" />
    <rect width="273" height="16" transform="translate(23.3594)" fill="#0E1D2B" />
    <path
        d="M29.4394 11H28.0194V4.33H32.7394V5.58H29.4394V11ZM34.4877 11.12V9.86C34.8477 9.86 35.1244 9.71667 35.3177 9.43C35.5111 9.13667 35.6577 8.57333 35.7577 7.74L36.1477 4.33H40.8877V11H39.4577V5.58H37.4277L37.1677 7.84C37.0877 8.51333 36.9677 9.07333 36.8077 9.52C36.6544 9.96 36.4544 10.2933 36.2077 10.52C35.9677 10.7467 35.7144 10.9033 35.4477 10.99C35.1811 11.0767 34.8611 11.12 34.4877 11.12ZM50.2222 11H48.6022L48.1922 9.87H45.3322L44.9122 11H43.2922L45.8722 4.33H47.6522L50.2222 11ZM47.8022 8.62L46.7622 5.75L45.7222 8.62H47.8022ZM56.2581 11H52.6381V4.33H56.1481C56.7548 4.33 57.2248 4.49667 57.5581 4.83C57.8981 5.15667 58.0681 5.55667 58.0681 6.03C58.0681 6.43667 57.9581 6.77667 57.7381 7.05C57.5181 7.32333 57.2448 7.49333 56.9181 7.56C57.2781 7.61333 57.5815 7.79667 57.8281 8.11C58.0748 8.42333 58.1981 8.78667 58.1981 9.2C58.1981 9.72 58.0281 10.15 57.6881 10.49C57.3481 10.83 56.8715 11 56.2581 11ZM55.8381 7C56.0781 7 56.2681 6.93333 56.4081 6.8C56.5481 6.66667 56.6181 6.49333 56.6181 6.28C56.6181 6.06667 56.5448 5.89333 56.3981 5.76C56.2581 5.62 56.0715 5.55 55.8381 5.55H54.0581V7H55.8381ZM55.8881 9.77C56.1548 9.77 56.3648 9.70333 56.5181 9.57C56.6715 9.43 56.7481 9.24 56.7481 9C56.7481 8.78 56.6715 8.59667 56.5181 8.45C56.3648 8.29667 56.1548 8.22 55.8881 8.22H54.0581V9.77H55.8881ZM67.069 11H65.639V8.2H62.489V11H61.069V4.33H62.489V6.95H65.639V4.33H67.069V11ZM76.4034 11H74.7834L74.3734 9.87H71.5134L71.0934 11H69.4734L72.0534 4.33H73.8334L76.4034 11ZM73.9834 8.62L72.9434 5.75L71.9034 8.62H73.9834ZM80.1594 11H78.5294L80.0294 8.46C79.6227 8.36667 79.276 8.15 78.9894 7.81C78.7094 7.47 78.5694 7.02667 78.5694 6.48C78.5694 5.84667 78.7694 5.33 79.1694 4.93C79.576 4.53 80.1227 4.33 80.8094 4.33H83.9294V11H82.5094V8.63H81.4794L80.1594 11ZM81.0194 7.38H82.5094V5.58H81.0194C80.726 5.58 80.486 5.66333 80.2994 5.83C80.1127 5.99 80.0194 6.20667 80.0194 6.48C80.0194 6.75333 80.1127 6.97333 80.2994 7.14C80.486 7.3 80.726 7.38 81.0194 7.38ZM97.4038 11H95.9738V5.58H92.8238V11H91.4038V4.33H97.4038V11ZM105.238 11H100.518V4.33H105.238V5.58H101.938V6.99H105.168V8.24H101.938V9.75H105.238V11ZM115.228 4.33H116.658V11H108.148V4.33H109.568V9.75H111.688V4.33H113.118V9.75H115.228V4.33ZM124.502 11H119.782V4.33H124.502V5.58H121.202V6.99H124.432V8.24H121.202V9.75H124.502V11ZM133.462 11H131.762L130.092 8.56L128.412 11H126.722L129.142 7.58L126.872 4.33H128.562L130.092 6.61L131.602 4.33H133.312L131.042 7.57L133.462 11ZM138.749 11.12C137.743 11.12 136.909 10.7967 136.249 10.15C135.596 9.49667 135.269 8.67 135.269 7.67C135.269 6.67 135.596 5.84667 136.249 5.2C136.909 4.54667 137.743 4.22 138.749 4.22C139.763 4.22 140.596 4.54333 141.249 5.19C141.909 5.83667 142.239 6.66333 142.239 7.67C142.239 8.67667 141.909 9.50333 141.249 10.15C140.596 10.7967 139.763 11.12 138.749 11.12ZM137.279 9.24C137.653 9.65333 138.143 9.86 138.749 9.86C139.356 9.86 139.846 9.65333 140.219 9.24C140.593 8.82667 140.779 8.30333 140.779 7.67C140.779 7.03667 140.593 6.51333 140.219 6.1C139.846 5.68667 139.356 5.48 138.749 5.48C138.143 5.48 137.653 5.68667 137.279 6.1C136.913 6.51333 136.729 7.03667 136.729 7.67C136.729 8.30333 136.913 8.82667 137.279 9.24ZM144.294 12.23V9.86C144.547 9.82667 144.744 9.76 144.884 9.66C145.031 9.56 145.164 9.35667 145.284 9.05C145.404 8.74333 145.497 8.30667 145.564 7.74L145.954 4.33H150.694V9.75H151.294V12.23H149.874V11H145.714V12.23H144.294ZM146.974 7.84C146.881 8.7 146.611 9.33667 146.164 9.75H149.264V5.58H147.234L146.974 7.84ZM159.926 11H158.496V8.2H155.346V11H153.926V4.33H155.346V6.95H158.496V4.33H159.926V11ZM169.26 11H167.64L167.23 9.87H164.37L163.95 11H162.33L164.91 4.33H166.69L169.26 11ZM166.84 8.62L165.8 5.75L164.76 8.62H166.84ZM173.016 11H171.386L172.886 8.46C172.479 8.36667 172.133 8.15 171.846 7.81C171.566 7.47 171.426 7.02667 171.426 6.48C171.426 5.84667 171.626 5.33 172.026 4.93C172.433 4.53 172.979 4.33 173.666 4.33H176.786V11H175.366V8.63H174.336L173.016 11ZM173.876 7.38H175.366V5.58H173.876C173.583 5.58 173.343 5.66333 173.156 5.83C172.969 5.99 172.876 6.20667 172.876 6.48C172.876 6.75333 172.969 6.97333 173.156 7.14C173.343 7.3 173.583 7.38 173.876 7.38ZM185.16 11.12C184.86 11.12 184.57 11.0767 184.29 10.99C184.017 10.8967 183.804 10.78 183.65 10.64L184.19 9.5C184.484 9.74 184.77 9.86 185.05 9.86C185.29 9.86 185.477 9.81 185.61 9.71C185.75 9.60333 185.887 9.42333 186.02 9.17L183.56 4.33H185.17L186.82 7.87L188.48 4.33H190.09L187.34 9.72C187.114 10.1733 186.83 10.52 186.49 10.76C186.157 11 185.714 11.12 185.16 11.12ZM191.637 11.12V9.86C191.997 9.86 192.274 9.71667 192.467 9.43C192.66 9.13667 192.807 8.57333 192.907 7.74L193.297 4.33H198.037V11H196.607V5.58H194.577L194.317 7.84C194.237 8.51333 194.117 9.07333 193.957 9.52C193.804 9.96 193.604 10.2933 193.357 10.52C193.117 10.7467 192.864 10.9033 192.597 10.99C192.33 11.0767 192.01 11.12 191.637 11.12ZM202.521 11H201.151V4.33H202.571V8.64L205.661 4.33H207.121V11H205.701V6.53L202.521 11ZM215.417 12.23V11H210.237V4.33H211.657V9.75H214.807V4.33H216.237V9.75H216.837V12.23H215.417ZM225.688 11H224.068L223.658 9.87H220.798L220.378 11H218.758L221.338 4.33H223.118L225.688 11ZM223.268 8.62L222.228 5.75L221.188 8.62H223.268ZM232.463 4.33H237.333V5.58H233.883V6.76H235.613C236.299 6.76 236.839 6.96333 237.233 7.37C237.626 7.77667 237.823 8.28 237.823 8.88C237.823 9.48 237.626 9.98333 237.233 10.39C236.839 10.7967 236.299 11 235.613 11H232.463V4.33ZM235.423 8.01H233.883V9.75H235.423C235.703 9.75 235.929 9.67 236.103 9.51C236.283 9.35 236.373 9.14 236.373 8.88C236.373 8.61333 236.283 8.40333 236.103 8.25C235.929 8.09 235.703 8.01 235.423 8.01ZM246.723 11H245.103L244.693 9.87H241.833L241.413 11H239.793L242.373 4.33H244.153L246.723 11ZM244.303 8.62L243.263 5.75L242.223 8.62H244.303ZM250.039 11.12C249.739 11.12 249.449 11.0767 249.169 10.99C248.896 10.8967 248.682 10.78 248.529 10.64L249.069 9.5C249.362 9.74 249.649 9.86 249.929 9.86C250.169 9.86 250.356 9.81 250.489 9.71C250.629 9.60333 250.766 9.42333 250.899 9.17L248.439 4.33H250.049L251.699 7.87L253.359 4.33H254.969L252.219 9.72C251.992 10.1733 251.709 10.52 251.369 10.76C251.036 11 250.592 11.12 250.039 11.12ZM264.614 11H263.184V6.33L261.304 11H260.684L258.804 6.33V11H257.384V4.33H259.374L260.994 8.36L262.614 4.33H264.614V11ZM273.959 11H272.339L271.929 9.87H269.069L268.649 11H267.029L269.609 4.33H271.389L273.959 11ZM271.539 8.62L270.499 5.75L269.459 8.62H271.539ZM282.375 11H280.945V8.2H277.795V11H276.375V4.33H277.795V6.95H280.945V4.33H282.375V11ZM291.709 11H290.089L289.679 9.87H286.819L286.399 11H284.779L287.359 4.33H289.139L291.709 11ZM289.289 8.62L288.249 5.75L287.209 8.62H289.289Z"
        fill="white" />
    <rect width="98" height="13" transform="translate(23.3594 16)" fill="white" />
    <path
        d="M29.7674 25.096C28.946 25.096 28.3194 24.8107 27.8874 24.24L28.2954 23.8C28.6634 24.2693 29.154 24.504 29.7674 24.504C30.13 24.504 30.426 24.3947 30.6554 24.176C30.8847 23.9573 30.9994 23.6853 30.9994 23.36C30.9994 23.0133 30.8847 22.736 30.6554 22.528C30.4314 22.3147 30.138 22.208 29.7754 22.208C29.2954 22.208 28.8847 22.376 28.5434 22.712L28.0554 22.544V19.664H31.3194V20.256H28.7194V22.112C29.0394 21.792 29.4554 21.632 29.9674 21.632C30.4367 21.632 30.8367 21.7867 31.1674 22.096C31.498 22.4 31.6634 22.8133 31.6634 23.336C31.6634 23.8693 31.4847 24.296 31.1274 24.616C30.77 24.936 30.3167 25.096 29.7674 25.096ZM42.8686 25H42.2046V20.608L40.3886 25H40.1166L38.3086 20.608V25H37.6446V19.664H38.5966L40.2526 23.68L41.9166 19.664H42.8686V25ZM46.1934 25H45.5534V19.664H46.2174V23.832L49.2894 19.664H49.9694V25H49.3054V20.744L46.1934 25ZM57.1054 25H56.4414V22.552H53.3214V25H52.6574V19.664H53.3214V21.96H56.4414V19.664H57.1054V25ZM60.3288 25.096C60.1101 25.096 59.9074 25.056 59.7208 24.976C59.5341 24.896 59.3901 24.7947 59.2888 24.672L59.5688 24.144C59.7981 24.384 60.0408 24.504 60.2968 24.504C60.4994 24.504 60.6594 24.4507 60.7768 24.344C60.8994 24.2373 61.0381 24.0373 61.1928 23.744L61.2888 23.56L59.2408 19.664H60.0008L61.6728 22.968L63.3448 19.664H64.1048L61.7768 24.056C61.5901 24.408 61.3901 24.6693 61.1768 24.84C60.9634 25.0107 60.6808 25.096 60.3288 25.096ZM68.2246 25H67.5606V20.256H65.8726V19.664H69.9206V20.256H68.2246V25ZM80.1936 25H79.5296V20.256H76.4096V25H75.7456V19.664H80.1936V25ZM86.3769 25H82.8809V19.664H86.3769V20.256H83.5449V21.976H86.3209V22.568H83.5449V24.408H86.3769V25ZM94.6276 19.664H95.2916V25H88.8756V19.664H89.5396V24.408H91.7556V19.664H92.4196V24.408H94.6276V19.664ZM102.028 25H101.204L99.1796 22.6L98.6436 23.208V25H97.9796V19.664H98.6436V22.424L101.004 19.664H101.836L99.6116 22.2L102.028 25ZM106.227 25.096C105.443 25.096 104.805 24.8347 104.315 24.312C103.824 23.7893 103.579 23.1307 103.579 22.336C103.579 21.5413 103.824 20.8827 104.315 20.36C104.805 19.8373 105.443 19.576 106.227 19.576C107.005 19.576 107.64 19.8373 108.131 20.36C108.627 20.8827 108.875 21.5413 108.875 22.336C108.875 23.1307 108.627 23.7893 108.131 24.312C107.64 24.8347 107.005 25.096 106.227 25.096ZM106.227 24.504C106.813 24.504 107.285 24.3013 107.643 23.896C108.005 23.4853 108.187 22.9653 108.187 22.336C108.187 21.7013 108.005 21.1813 107.643 20.776C107.285 20.3707 106.813 20.168 106.227 20.168C105.635 20.168 105.16 20.3707 104.803 20.776C104.445 21.1813 104.267 21.7013 104.267 22.336C104.267 22.9653 104.445 23.4853 104.803 23.896C105.16 24.3013 105.635 24.504 106.227 24.504ZM116.576 25H115.912V20.608L114.096 25H113.824L112.016 20.608V25H111.352V19.664H112.304L113.96 23.68L115.624 19.664H116.576V25Z"
        fill="black" />
</svg>