<svg width="40" height="41" viewBox="0 0 40 41" fill="none" xmlns="http://www.w3.org/2000/svg">
<path d="M22.625 10.375L22.9007 10.9263C23.1839 11.4929 23.0729 12.1771 22.625 12.625V12.625C22.1771 13.0729 22.0661 13.7571 22.3493 14.3237L22.625 14.875" stroke="black" stroke-linecap="round"/>
<path d="M18.5 10.375L18.7757 10.9263C19.0589 11.4929 18.9479 12.1771 18.5 12.625V12.625C18.0521 13.0729 17.9411 13.7571 18.2243 14.3237L18.5 14.875" stroke="black" stroke-linecap="round"/>
<path d="M14.375 10.375L14.6507 10.9263C14.9339 11.4929 14.8229 12.1771 14.375 12.625V12.625C13.9271 13.0729 13.8161 13.7571 14.0993 14.3237L14.375 14.875" stroke="black" stroke-linecap="round"/>
<path d="M9.125 27.25C9.125 27.25 12.5 28.75 18.125 28.75C23.9382 28.75 27.125 27.25 27.125 27.25" stroke="black" stroke-linecap="round"/>
<path d="M18.125 26.875C22.9906 26.875 26.9904 22.8719 27.455 17.7489C27.5048 17.1989 27.0523 16.75 26.5 16.75H9.75C9.19772 16.75 8.74517 17.1989 8.79505 17.7489C9.25958 22.8719 13.2594 26.875 18.125 26.875Z" stroke="black" stroke-linecap="round"/>
<path d="M27.5 16.7501C28.125 16.0626 29.6375 15.0626 30.6875 16.5626C32 18.4376 30.3125 22.0001 27.125 23.1251" stroke="black" stroke-linecap="round"/>
<rect x="0.5" y="1" width="39" height="39" rx="19.5" stroke="black"/>
</svg>
