<svg width="40" height="41" viewBox="0 0 40 41" fill="none" xmlns="http://www.w3.org/2000/svg">
<path d="M10.75 24.875V16.125H9.75V24.875H10.75ZM12.25 14.625H13.875V13.625H12.25V14.625ZM15.375 16.125V24.875H16.375V16.125H15.375ZM13.875 26.375H12.25V27.375H13.875V26.375ZM15.375 24.875C15.375 25.7034 14.7034 26.375 13.875 26.375V27.375C15.2557 27.375 16.375 26.2557 16.375 24.875H15.375ZM13.875 14.625C14.7034 14.625 15.375 15.2966 15.375 16.125H16.375C16.375 14.7443 15.2557 13.625 13.875 13.625V14.625ZM10.75 16.125C10.75 15.2966 11.4216 14.625 12.25 14.625V13.625C10.8693 13.625 9.75 14.7443 9.75 16.125H10.75ZM9.75 24.875C9.75 26.2557 10.8693 27.375 12.25 27.375V26.375C11.4216 26.375 10.75 25.7034 10.75 24.875H9.75Z" fill="black"/>
<path d="M9.5 22.75C9.08579 22.75 8.75 22.4142 8.75 22V19C8.75 18.5858 9.08579 18.25 9.5 18.25V18.25C9.91421 18.25 10.25 18.5858 10.25 19V22C10.25 22.4142 9.91421 22.75 9.5 22.75V22.75Z" stroke="black" stroke-linecap="round"/>
<path d="M12.125 15.625H14" stroke="black" stroke-linecap="round"/>
<path d="M26 15.625H27.875" stroke="black" stroke-linecap="round"/>
<path d="M26.125 26.875C25.0204 26.875 24.125 25.9796 24.125 24.875V16.125C24.125 15.0204 25.0204 14.125 26.125 14.125H27.75C28.8546 14.125 29.75 15.0204 29.75 16.125V24.875C29.75 25.9796 28.8546 26.875 27.75 26.875H26.125Z" stroke="black" stroke-linecap="round"/>
<path d="M30.5 22.75C30.0858 22.75 29.75 22.4142 29.75 22V19C29.75 18.5858 30.0858 18.25 30.5 18.25V18.25C30.9142 18.25 31.25 18.5858 31.25 19V22C31.25 22.4142 30.9142 22.75 30.5 22.75V22.75Z" stroke="black" stroke-linecap="round"/>
<path d="M15.875 22V19H24.125V22H15.875Z" stroke="black" stroke-linecap="round"/>
<rect x="0.5" y="1" width="39" height="39" rx="19.5" stroke="black"/>
</svg>
