<svg width="40" height="41" viewBox="0 0 40 41" fill="none" xmlns="http://www.w3.org/2000/svg">
<path d="M20 24.625C19.0132 24.625 18.2067 25.0157 17.6794 25.3688C17.2613 25.6487 17.2423 26.2138 17.5658 26.5993L19.234 28.5872C19.6336 29.0634 20.3664 29.0634 20.766 28.5872L22.4342 26.5993C22.7577 26.2138 22.7387 25.6487 22.3206 25.3688C21.7933 25.0157 20.9868 24.625 20 24.625Z" stroke="black" stroke-linecap="round"/>
<path d="M14.5625 23.6875C14.5625 23.6875 16.625 21.625 20 21.625C23.375 21.625 25.4375 23.6875 25.4375 23.6875" stroke="black" stroke-linecap="round"/>
<path d="M12.501 21.4376C12.501 21.4376 15.3135 18.6252 20.001 18.6251C24.6885 18.6251 27.501 21.4376 27.501 21.4376" stroke="black" stroke-linecap="round"/>
<path d="M10.6231 19.1876C10.6231 19.1876 14.4435 15.6251 19.9981 15.6251C25.5528 15.625 29.3731 19.1876 29.3731 19.1876" stroke="black" stroke-linecap="round"/>
<path d="M8.74923 16.9375C8.74923 16.9375 12.8742 12.6251 19.9992 12.6251C27.1242 12.6251 31.2492 16.9375 31.2492 16.9375" stroke="black" stroke-linecap="round"/>
<rect x="0.5" y="1" width="39" height="39" rx="19.5" stroke="black"/>
</svg>
