<svg width="40" height="41" viewBox="0 0 40 41" fill="none" xmlns="http://www.w3.org/2000/svg">
<path d="M18.1992 19.3001V17.1001C18.1992 15.9955 19.0946 15.1001 20.1992 15.1001H26.9992C28.1038 15.1001 28.9992 15.9955 28.9992 17.1001V28.7001C28.9992 29.8047 28.1038 30.7001 26.9992 30.7001H18.7992" stroke="black" stroke-linecap="round"/>
<path d="M11.2326 21.5094C11.1083 20.3285 12.0342 19.3 13.2216 19.3H19.5784C20.7658 19.3 21.6917 20.3285 21.5674 21.5094L20.7885 28.9094C20.6813 29.9273 19.823 30.7001 18.7995 30.7001H14.0005C12.977 30.7001 12.1187 29.9273 12.0115 28.9094L11.2326 21.5094Z" stroke="black" stroke-linecap="round"/>
<path d="M11.6016 22.9001H21.2016" stroke="black" stroke-linecap="round"/>
<path d="M29.0016 19.3L23.6016 19.3" stroke="black" stroke-linecap="round"/>
<path d="M29.0016 26.5L23.6016 26.5" stroke="black" stroke-linecap="round"/>
<path d="M21.8008 11.3C21.8008 10.7478 22.2485 10.3 22.8008 10.3H24.4008C24.9531 10.3 25.4008 10.7478 25.4008 11.3V15.1H21.8008V11.3Z" stroke="black" stroke-linecap="round"/>
<rect x="0.5" y="1" width="39" height="39" rx="19.5" stroke="black"/>
</svg>
