<svg width="40" height="41" viewBox="0 0 40 41" fill="none" xmlns="http://www.w3.org/2000/svg">
<g clip-path="url(#clip0_403_4458)">
<path d="M15.7992 22.9001L10.3716 25.3672C9.65762 25.6918 9.19922 26.4037 9.19922 27.188V29.6001C9.19922 30.7047 10.0946 31.6001 11.1992 31.6001H28.7992C29.9038 31.6001 30.7992 30.7047 30.7992 29.6001V27.188C30.7992 26.4037 30.3408 25.6918 29.6268 25.3672L24.1992 22.9001" stroke="black" stroke-linecap="round"/>
<path d="M14.8984 16.3001C19.3984 16.9001 21.1984 15.4001 22.3984 13.6001" stroke="black" stroke-linecap="round"/>
<path d="M25.1008 16C24.2008 16.3 22.4008 16 21.8008 14.5" stroke="black" stroke-linecap="round"/>
<path d="M14.89 16.2337C14.4214 13.1096 16.841 10.3 20 10.3V10.3C23.159 10.3 25.5786 13.1096 25.11 16.2337L24.823 18.1465C24.4649 20.5339 22.4141 22.3 20 22.3V22.3C17.5859 22.3 15.5351 20.5339 15.177 18.1465L14.89 16.2337Z" stroke="black" stroke-linecap="round"/>
<path d="M19.8481 25.2133C19.9152 25.2517 19.9152 25.3486 19.8481 25.387L15.9496 27.6147C15.8829 27.6527 15.8 27.6046 15.8 27.5278L15.8 23.0725C15.8 22.9957 15.8829 22.9475 15.9496 22.9856L19.8481 25.2133Z" stroke="black" stroke-linecap="round"/>
<path d="M20.1519 25.2133C20.0848 25.2517 20.0848 25.3486 20.1519 25.387L24.0504 27.6147C24.1171 27.6527 24.2 27.6046 24.2 27.5278L24.2 23.0725C24.2 22.9957 24.1171 22.9475 24.0504 22.9856L20.1519 25.2133Z" stroke="black" stroke-linecap="round"/>
</g>
<rect x="0.5" y="1" width="39" height="39" rx="19.5" stroke="black"/>
<defs>
<clipPath id="clip0_403_4458">
<rect width="24" height="24" fill="white" transform="translate(8 8.5)"/>
</clipPath>
</defs>
</svg>
