<svg width="16" height="16" viewBox="0 0 16 16" fill="none" xmlns="http://www.w3.org/2000/svg">
<path fill-rule="evenodd" clip-rule="evenodd" d="M8.68658 11.9666C8.68658 11.9666 8.93925 11.9384 9.06867 11.7992C9.18713 11.6716 9.18302 11.4309 9.18302 11.4309C9.18302 11.4309 9.16727 10.3068 9.68836 10.1408C10.2019 9.97758 10.8613 11.2279 11.5611 11.7087C12.0897 12.0722 12.491 11.9926 12.491 11.9926L14.361 11.9666C14.361 11.9666 15.3388 11.9062 14.8753 11.136C14.8369 11.0729 14.6048 10.566 13.4852 9.52491C12.3123 8.43509 12.4698 8.61135 13.8817 6.72594C14.7417 5.57781 15.0855 4.87687 14.978 4.57715C14.876 4.29046 14.2432 4.36659 14.2432 4.36659L12.1384 4.37962C12.1384 4.37962 11.9822 4.35836 11.8665 4.42763C11.7535 4.49553 11.6803 4.65397 11.6803 4.65397C11.6803 4.65397 11.3475 5.54215 10.9031 6.29796C9.96568 7.89189 9.59112 7.97625 9.43774 7.87749C9.08099 7.64636 9.17001 6.95021 9.17001 6.45571C9.17001 4.91048 9.40419 4.26646 8.71466 4.09979C8.48595 4.04424 8.31751 4.00789 7.73205 4.00172C6.98089 3.99417 6.34545 4.00446 5.98528 4.18072C5.74562 4.29801 5.56074 4.56 5.67372 4.57509C5.81273 4.59361 6.12771 4.66014 6.29478 4.88784C6.51048 5.18207 6.50294 5.84187 6.50294 5.84187C6.50294 5.84187 6.62688 7.66076 6.2133 7.8864C5.92982 8.04141 5.54088 7.72523 4.70481 6.27876C4.27685 5.53803 3.95365 4.71912 3.95365 4.71912C3.95365 4.71912 3.89134 4.56618 3.77973 4.48387C3.64484 4.38442 3.45653 4.35356 3.45653 4.35356L1.45641 4.36659C1.45641 4.36659 1.1558 4.37482 1.04556 4.50582C0.947644 4.62173 1.03803 4.86247 1.03803 4.86247C1.03803 4.86247 2.60403 8.53248 4.37751 10.3822C6.00377 12.0777 7.84983 11.9666 7.84983 11.9666H8.68658Z" fill="#BB9B8C"/>
</svg>
