<svg width="41" height="40" viewBox="0 0 41 40" fill="none" xmlns="http://www.w3.org/2000/svg">
<path d="M3.375 37.5L6.84482 36.0129C8.35411 35.3661 10.0626 35.3661 11.5718 36.0129L12.6782 36.4871C14.1874 37.1339 15.8959 37.1339 17.4052 36.4871L18.5115 36.0129C20.0208 35.3661 21.7292 35.3661 23.2385 36.0129L24.3448 36.4871C25.8541 37.1339 27.5626 37.1339 29.0718 36.4871L30.1782 36.0129C31.6874 35.3661 33.3959 35.3661 34.9052 36.0129L38.375 37.5" stroke="#BB9B8C" stroke-width="1.5" stroke-linecap="round"/>
<path d="M3.375 34.375L6.84482 32.8879C8.35411 32.2411 10.0626 32.2411 11.5718 32.8879L12.6782 33.3621C14.1874 34.0089 15.8959 34.0089 17.4052 33.3621L18.5115 32.8879C20.0208 32.2411 21.7292 32.2411 23.2385 32.8879L24.3448 33.3621C25.8541 34.0089 27.5626 34.0089 29.0718 33.3621L30.1782 32.8879C31.6874 32.2411 33.3959 32.2411 34.9052 32.8879L38.375 34.375" stroke="#BB9B8C" stroke-width="1.5" stroke-linecap="round"/>
<path d="M6.5 8.125V6.875C6.5 5.14911 7.89911 3.75 9.625 3.75V3.75C11.3509 3.75 12.75 5.14911 12.75 6.875V30" stroke="#BB9B8C" stroke-width="1.5" stroke-linecap="round"/>
<path d="M24 8.125V6.875C24 5.14911 25.3991 3.75 27.125 3.75V3.75C28.8509 3.75 30.25 5.14911 30.25 6.875V30" stroke="#BB9B8C" stroke-width="1.5" stroke-linecap="round"/>
<path d="M12.75 13.75H30.25" stroke="#BB9B8C" stroke-width="1.5" stroke-linecap="round"/>
<path d="M12.75 20H30.25" stroke="#BB9B8C" stroke-width="1.5" stroke-linecap="round"/>
<path d="M12.75 26.25H30.25" stroke="#BB9B8C" stroke-width="1.5" stroke-linecap="round"/>
</svg>
