<svg width="41" height="40" viewBox="0 0 41 40" fill="none" xmlns="http://www.w3.org/2000/svg">
<g clip-path="url(#clip0_301_5007)">
<path d="M9 29.6875V32.75C9 33.3023 8.55228 33.75 8 33.75H3.125C2.57272 33.75 2.125 33.3023 2.125 32.75V20.6385C2.125 19.3966 2.41416 18.1717 2.96958 17.0608L8.09861 6.80279C8.268 6.464 8.61426 6.25 8.99303 6.25H32.757C33.1357 6.25 33.482 6.464 33.6514 6.80279L38.7804 17.0608C39.3358 18.1717 39.625 19.3966 39.625 20.6385V32.75C39.625 33.3023 39.1773 33.75 38.625 33.75H33.75C33.1977 33.75 32.75 33.3023 32.75 32.75V29.6875" stroke="#BB9B8C" stroke-width="1.5" stroke-linecap="round"/>
<path d="M5.25 28.75C5.25 28.75 12.2293 30.625 20.875 30.625C29.5207 30.625 36.5 28.75 36.5 28.75" stroke="#BB9B8C" stroke-width="1.5" stroke-linecap="round"/>
<path d="M7.125 25.4375C7.125 25.4375 12.2293 26.875 20.875 26.875C29.5207 26.875 34.625 25.4375 34.625 25.4375" stroke="#BB9B8C" stroke-width="1.5" stroke-linecap="round"/>
<path d="M2.125 12.5H3.87782C4.30655 12.5 4.67004 12.8153 4.73067 13.2397V13.2397C5.04165 15.4165 6.69545 17.149 8.87818 17.4155C11.6455 17.7535 15.8341 18.125 20.875 18.125C26.589 18.125 31.5924 17.5759 34.3171 17.2056C35.6243 17.0279 36.626 15.9927 36.8126 14.6868V14.6868C36.9919 13.432 38.0665 12.5 39.334 12.5H39.625" stroke="#BB9B8C" stroke-width="1.5" stroke-linecap="round"/>
<path d="M6.5 21.875L10.875 22.5" stroke="#BB9B8C" stroke-width="1.5" stroke-linecap="round"/>
<path d="M30.875 22.5L35.25 21.875" stroke="#BB9B8C" stroke-width="1.5" stroke-linecap="round"/>
</g>
<defs>
<clipPath id="clip0_301_5007">
<rect width="40" height="40" fill="white" transform="translate(0.875)"/>
</clipPath>
</defs>
</svg>
