<svg width="41" height="40" viewBox="0 0 41 40" fill="none" xmlns="http://www.w3.org/2000/svg">
<path d="M3.375 34.5L6.84482 33.0129C8.35411 32.3661 10.0626 32.3661 11.5718 33.0129L12.6782 33.4871C14.1874 34.1339 15.8959 34.1339 17.4052 33.4871L18.5115 33.0129C20.0208 32.3661 21.7292 32.3661 23.2385 33.0129L24.3448 33.4871C25.8541 34.1339 27.5626 34.1339 29.0718 33.4871L30.1782 33.0129C31.6874 32.3661 33.3959 32.3661 34.9052 33.0129L38.375 34.5" stroke="#BB9B8C" stroke-width="1.5" stroke-linecap="round"/>
<path d="M3.375 30.375L6.84482 28.8879C8.35411 28.2411 10.0626 28.2411 11.5718 28.8879L12.6782 29.3621C14.1874 30.0089 15.8959 30.0089 17.4052 29.3621L18.5115 28.8879C20.0208 28.2411 21.7292 28.2411 23.2385 28.8879L24.3448 29.3621C25.8541 30.0089 27.5626 30.0089 29.0718 29.3621L30.1782 28.8879C31.6874 28.2411 33.3959 28.2411 34.9052 28.8879L38.375 30.375" stroke="#BB9B8C" stroke-width="1.5" stroke-linecap="round"/>
<path d="M3.375 26.375L6.84482 24.8879C8.35411 24.2411 10.0626 24.2411 11.5718 24.8879L12.6782 25.3621C14.1874 26.0089 15.8959 26.0089 17.4052 25.3621L18.5115 24.8879C20.0208 24.2411 21.7292 24.2411 23.2385 24.8879L24.3448 25.3621C25.8541 26.0089 27.5626 26.0089 29.0718 25.3621L30.1782 24.8879C31.6874 24.2411 33.3959 24.2411 34.9052 24.8879L38.375 26.375" stroke="#BB9B8C" stroke-width="1.5" stroke-linecap="round"/>
<path d="M27.875 7L28.4043 7.82338C29.4086 9.38567 29.1883 11.4367 27.875 12.75V12.75C26.5617 14.0633 26.3414 16.1143 27.3457 17.6766L27.875 18.5" stroke="#BB9B8C" stroke-width="1.5" stroke-linecap="round"/>
<path d="M20.875 7L21.4043 7.82338C22.4086 9.38567 22.1883 11.4367 20.875 12.75V12.75C19.5617 14.0633 19.3414 16.1143 20.3457 17.6766L20.875 18.5" stroke="#BB9B8C" stroke-width="1.5" stroke-linecap="round"/>
<path d="M13.875 7L14.4043 7.82338C15.4086 9.38567 15.1883 11.4367 13.875 12.75V12.75C12.5617 14.0633 12.3414 16.1143 13.3457 17.6766L13.875 18.5" stroke="#BB9B8C" stroke-width="1.5" stroke-linecap="round"/>
</svg>
