<svg width="41" height="40" viewBox="0 0 41 40" fill="none" xmlns="http://www.w3.org/2000/svg">
<path d="M13.875 24L4.04739 28.4671C3.33341 28.7916 2.875 29.5035 2.875 30.2878V36.5C2.875 37.6046 3.77043 38.5 4.875 38.5H36.875C37.9796 38.5 38.875 37.6046 38.875 36.5V30.2878C38.875 29.5035 38.4166 28.7916 37.7026 28.4671L27.875 24" stroke="#BB9B8C" stroke-width="1.5" stroke-linecap="round"/>
<path d="M12.375 13C19.875 14 22.875 11.5 24.875 8.5" stroke="#BB9B8C" stroke-width="1.5" stroke-linecap="round"/>
<path d="M29.375 12.5C27.875 13 24.875 12.5 23.875 10" stroke="#BB9B8C" stroke-width="1.5" stroke-linecap="round"/>
<path d="M12.3584 12.8894C11.5774 7.68259 15.61 3 20.875 3V3C26.14 3 30.1726 7.68259 29.3916 12.8894L28.9134 16.0774C28.3165 20.0564 24.8985 23 20.875 23V23C16.8515 23 13.4335 20.0564 12.8366 16.0774L12.3584 12.8894Z" stroke="#BB9B8C" stroke-width="1.5" stroke-linecap="round"/>
<path d="M20.7231 27.9132C20.7902 27.9516 20.7902 28.0484 20.7231 28.0868L14.0246 31.9145C13.9579 31.9526 13.875 31.9045 13.875 31.8277L13.875 24.1723C13.875 24.0955 13.9579 24.0474 14.0246 24.0855L20.7231 27.9132Z" stroke="#BB9B8C" stroke-width="1.5" stroke-linecap="round"/>
<path d="M21.0269 27.9132C20.9598 27.9516 20.9598 28.0484 21.0269 28.0868L27.7254 31.9145C27.7921 31.9526 27.875 31.9045 27.875 31.8277L27.875 24.1723C27.875 24.0955 27.7921 24.0474 27.7254 24.0855L21.0269 27.9132Z" stroke="#BB9B8C" stroke-width="1.5" stroke-linecap="round"/>
</svg>
