<svg width="41" height="40" viewBox="0 0 41 40" fill="none" xmlns="http://www.w3.org/2000/svg">
<path d="M22.875 32C22.875 34.7614 20.6364 37 17.875 37" stroke="#BB9B8C" stroke-width="1.5" stroke-linecap="round"/>
<path d="M16.875 13H33.375" stroke="#BB9B8C" stroke-width="1.5" stroke-linecap="round"/>
<path d="M14.875 37H30.875" stroke="#BB9B8C" stroke-width="1.5" stroke-linecap="round"/>
<path d="M27.875 37C25.1136 37 22.875 34.7614 22.875 32" stroke="#BB9B8C" stroke-width="1.5" stroke-linecap="round"/>
<path d="M22.875 32L22.875 25" stroke="#BB9B8C" stroke-width="1.5" stroke-linecap="round"/>
<path d="M8.60807 8.83081L22.875 25L37.1419 8.83081C37.4268 8.50796 37.1976 8 36.767 8H8.98299C8.55243 8 8.3232 8.50796 8.60807 8.83081Z" stroke="#BB9B8C" stroke-width="1.5" stroke-linecap="round"/>
<path d="M13.875 8C13.875 5.23858 11.6364 3 8.875 3C6.11358 3 3.875 5.23858 3.875 8C3.875 10.7614 6.11358 13 8.875 13" stroke="#BB9B8C" stroke-width="1.5" stroke-linecap="round"/>
</svg>
