<svg width="56" height="56" viewBox="0 0 56 56" fill="none" xmlns="http://www.w3.org/2000/svg">
<rect x="28" y="0.707107" width="38.598" height="38.598" transform="rotate(45 28 0.707107)" fill="#F4E5A0" stroke="#F4E5A0"/>
<g clip-path="url(#clip0_7_6333)">
<path d="M28.5004 20.5469C23.6999 20.5469 19.7871 23.9105 19.7871 28.1202C19.7871 30.5634 21.126 32.6905 23.1819 34.0814C23.1789 34.163 23.1848 34.2952 23.078 34.693C22.9444 35.1843 22.6757 35.8775 22.1309 36.6583L21.7435 37.2134H22.4204C24.7657 37.2134 26.1224 35.6845 26.3332 35.4396C27.0309 35.6029 27.7493 35.6934 28.5004 35.6934C33.3009 35.6934 37.2137 32.3298 37.2137 28.1202C37.2137 23.9105 33.3009 20.5469 28.5004 20.5469ZM28.5004 21.2534C32.9728 21.2534 36.5071 24.3498 36.5071 28.1202C36.5071 31.8905 32.9728 34.9869 28.5004 34.9869C27.7255 34.9869 26.9952 34.9127 26.3095 34.733L26.0898 34.6752L25.9458 34.8518C25.9458 34.8518 24.8488 36.0898 23.0973 36.3881C23.4149 35.8152 23.6495 35.2808 23.7578 34.877C23.9107 34.3145 23.9137 33.9345 23.9137 33.9345V33.74L23.7504 33.6361C21.7435 32.3595 20.4937 30.3838 20.4937 28.1202C20.4937 24.3498 24.028 21.2534 28.5004 21.2534ZM24.7004 27.3602C24.2803 27.3602 23.9404 27.7001 23.9404 28.1202C23.9404 28.5402 24.2803 28.8802 24.7004 28.8802C25.1205 28.8802 25.4604 28.5402 25.4604 28.1202C25.4604 27.7001 25.1205 27.3602 24.7004 27.3602ZM28.5004 27.3602C28.0803 27.3602 27.7404 27.7001 27.7404 28.1202C27.7404 28.5402 28.0803 28.8802 28.5004 28.8802C28.9205 28.8802 29.2604 28.5402 29.2604 28.1202C29.2604 27.7001 28.9205 27.3602 28.5004 27.3602ZM32.3004 27.3602C31.8803 27.3602 31.5404 27.7001 31.5404 28.1202C31.5404 28.5402 31.8803 28.8802 32.3004 28.8802C32.7205 28.8802 33.0604 28.5402 33.0604 28.1202C33.0604 27.7001 32.7205 27.3602 32.3004 27.3602Z" fill="black"/>
</g>
<defs>
<clipPath id="clip0_7_6333">
<rect width="19" height="19" fill="white" transform="translate(19 19)"/>
</clipPath>
</defs>
</svg>
