<svg id="Layer_1" data-name="Layer 1" xmlns="http://www.w3.org/2000/svg" xmlns:xlink="http://www.w3.org/1999/xlink" viewBox="0 0 16 16"><defs><style>.cls-1{fill:none;}.cls-2{clip-path:url(#clip-path);}</style><clipPath id="clip-path"><rect class="cls-1" width="16" height="16"/></clipPath></defs><g class="cls-2"><path d="M4,0A2,2,0,0,0,2.59.59,2,2,0,0,0,2,2V14a2,2,0,0,0,2,2h8a2,2,0,0,0,2-2V2A2,2,0,0,0,13.41.59,2,2,0,0,0,12,0ZM4,1h8a1,1,0,0,1,.71.29A1,1,0,0,1,13,2V14a1,1,0,0,1-1,1H4a1,1,0,0,1-1-1V2a1,1,0,0,1,.29-.71A1,1,0,0,1,4,1Z"/><path d="M4.6,12.09a.86.86,0,0,1-.44-.42,1.1,1.1,0,0,1,.08-1.11,2.78,2.78,0,0,1,.9-.78,7.48,7.48,0,0,1,1.48-.65A18.79,18.79,0,0,0,7.68,6.91a8.61,8.61,0,0,1-.43-1.3,3,3,0,0,1,0-1.14,1.06,1.06,0,0,1,.65-.82,1,1,0,0,1,.6-.08.9.9,0,0,1,.28.13.91.91,0,0,1,.2.24,1.12,1.12,0,0,1,.12.54,3.34,3.34,0,0,1,0,.61,10.4,10.4,0,0,1-.52,1.8,10.09,10.09,0,0,0,1,1.68,5.93,5.93,0,0,1,1.33,0,1.6,1.6,0,0,1,1,.47.85.85,0,0,1,.2.51,1.15,1.15,0,0,1-.14.57,1,1,0,0,1-.35.41.84.84,0,0,1-.51.14A1.61,1.61,0,0,1,10,10.3a5.12,5.12,0,0,1-.91-1,12.23,12.23,0,0,0-2,.41,11.1,11.1,0,0,1-1,1.51,2.67,2.67,0,0,1-.93.79A.83.83,0,0,1,4.6,12.09ZM6,10.19a3.94,3.94,0,0,0-.46.23,2.13,2.13,0,0,0-.65.55.35.35,0,0,0,0,.36l0,.05,0,0a2,2,0,0,0,.63-.57C5.69,10.6,5.84,10.39,6,10.19ZM7.62,8.86c.33-.08.67-.15,1-.2-.18-.28-.35-.56-.51-.86-.16.36-.32.71-.5,1Zm2.45.45a4,4,0,0,0,.43.41A1,1,0,0,0,11,10h.07a.38.38,0,0,0,.09-.13.36.36,0,0,0,.06-.2.14.14,0,0,0,0-.06,1,1,0,0,0-.52-.21,4.18,4.18,0,0,0-.61,0Zm-2-3.51A7.72,7.72,0,0,0,8.28,5a2,2,0,0,0,0-.46.64.64,0,0,0,0-.2.33.33,0,0,0-.14,0c-.09,0-.16.1-.2.28a2,2,0,0,0,0,.82,2.58,2.58,0,0,0,.09.35Z"/></g></svg>