<svg id="Layer_1" data-name="Layer 1" xmlns="http://www.w3.org/2000/svg" xmlns:xlink="http://www.w3.org/1999/xlink" viewBox="0 0 16 16"><defs><style>.cls-1{fill:none;}.cls-2{clip-path:url(#clip-path);}</style><clipPath id="clip-path"><rect class="cls-1" width="16" height="16"/></clipPath></defs><g class="cls-2"><path d="M3.26,10.64a17.05,17.05,0,0,0,5.65,4.42,8.8,8.8,0,0,0,3.15.93h.23a2.63,2.63,0,0,0,2-.87s0,0,0,0a7.9,7.9,0,0,1,.64-.66c.16-.15.32-.31.47-.47a1.59,1.59,0,0,0,0-2.38l-2-2a1.62,1.62,0,0,0-1.17-.54,1.71,1.71,0,0,0-1.18.53L9.91,10.79l-.33-.17c-.13-.07-.26-.13-.37-.2a12.69,12.69,0,0,1-3-2.73,7.37,7.37,0,0,1-1-1.62c.31-.28.6-.58.88-.86.1-.11.21-.21.31-.31a1.71,1.71,0,0,0,.55-1.2,1.69,1.69,0,0,0-.55-1.19l-1-1-.34-.34C4.84,1,4.62.72,4.39.51A1.67,1.67,0,0,0,3.22,0,1.74,1.74,0,0,0,2,.51L.8,1.75A2.59,2.59,0,0,0,0,3.38,6.32,6.32,0,0,0,.5,6,15.61,15.61,0,0,0,3.26,10.64ZM.85,3.45a1.74,1.74,0,0,1,.53-1.12L2.61,1.09A.94.94,0,0,1,3.22.81a.85.85,0,0,1,.6.29l.66.65.34.35,1,1a.92.92,0,0,1,.31.62.92.92,0,0,1-.31.62l-.31.31c-.31.31-.6.61-.91.89l0,0a.64.64,0,0,0-.17.73v0A7.73,7.73,0,0,0,5.58,8.2a13.09,13.09,0,0,0,3.19,2.91,3.89,3.89,0,0,0,.44.24c.13.07.26.13.37.2l0,0a.66.66,0,0,0,.32.08.75.75,0,0,0,.5-.22l1.24-1.24a.89.89,0,0,1,.6-.3.83.83,0,0,1,.59.3l2,2a.8.8,0,0,1,0,1.25c-.14.15-.29.3-.44.44a9.42,9.42,0,0,0-.69.72,1.82,1.82,0,0,1-1.43.61h-.17a8,8,0,0,1-2.86-.85,16.23,16.23,0,0,1-5.37-4.21A14.78,14.78,0,0,1,1.27,5.77,5.47,5.47,0,0,1,.85,3.45Z"/></g></svg>