<svg id="Layer_1" data-name="Layer 1" xmlns="http://www.w3.org/2000/svg" viewBox="0 0 18.34 17.54"><path d="M9.17,0C4.12,0,0,3.54,0,8a7.64,7.64,0,0,0,3.57,6.28,1.94,1.94,0,0,1-.11.64,6.69,6.69,0,0,1-1,2.07l-.41.58h.71a5.55,5.55,0,0,0,4.12-1.86,10,10,0,0,0,2.28.26c5.05,0,9.17-3.54,9.17-8S14.22,0,9.17,0Zm0,.74C13.88.74,17.6,4,17.6,8S13.88,15.2,9.17,15.2a9,9,0,0,1-2.3-.27l-.24-.06-.15.19a5.59,5.59,0,0,1-3,1.61,7,7,0,0,0,.7-1.59,4.19,4.19,0,0,0,.16-1v-.2l-.17-.11A6.92,6.92,0,0,1,.74,8C.74,4,4.46.74,9.17.74Zm-4,6.43A.8.8,0,1,0,6,8,.8.8,0,0,0,5.17,7.17Zm4,0A.8.8,0,1,0,10,8,.8.8,0,0,0,9.17,7.17Zm4,0A.8.8,0,1,0,14,8,.8.8,0,0,0,13.17,7.17Z"/></svg>