<svg id="Layer_1" data-name="Layer 1" xmlns="http://www.w3.org/2000/svg" viewBox="0 0 20 20"><path d="M17.83,12a8.6,8.6,0,0,1,2,2.21c.66,1.06-.73,1.14-.73,1.14l-2.67,0A1.94,1.94,0,0,1,15.09,15c-1-.66-2-2.38-2.68-2.15s-.72,1.77-.72,1.77a.62.62,0,0,1-.16.39.69.69,0,0,1-.55.12H9.78A6.61,6.61,0,0,1,4.83,13C2.29,10.49.05,5.49.05,5.49s-.12-.3,0-.47a1.07,1.07,0,0,1,.59-.16H3.51A.78.78,0,0,1,4,5a.85.85,0,0,1,.25.34A16.26,16.26,0,0,0,5.3,7.49C6.49,9.48,7,9.91,7.42,9.7c.62-.31.45-2.81.45-2.81a2.69,2.69,0,0,0-.3-1.31,1.38,1.38,0,0,0-.89-.43c-.17,0,.1-.38.44-.55a7.06,7.06,0,0,1,2.5-.24,5.2,5.2,0,0,1,1.4.13c1,.23.65,1.12.65,3.24,0,.69-.1,1.63.38,2,.22.14.76,0,2.11-2.17a17.72,17.72,0,0,0,1.1-2.27.85.85,0,0,1,.26-.31,1,1,0,0,1,.39-.08h3s.91-.1,1,.29S19.63,6.53,18.4,8.1C16.39,10.7,16.16,10.46,17.83,12Z"/></svg>