<svg width="57" height="56" viewBox="0 0 57 56" fill="none" xmlns="http://www.w3.org/2000/svg">
<rect x="28.5" y="0.707107" width="38.598" height="38.598" transform="rotate(45 28.5 0.707107)" fill="#F4E5A0" stroke="#F4E5A0"/>
<mask id="path-2-outside-1_301_8582" maskUnits="userSpaceOnUse" x="24.3242" y="18.5195" width="11" height="19" fill="black">
<rect fill="white" x="24.3242" y="18.5195" width="11" height="19"/>
<path d="M34.3242 27.8868C34.3226 27.7825 34.2806 27.6844 34.2074 27.6113L26.2381 19.6419C26.1385 19.5376 25.989 19.4956 25.8505 19.5329C25.7104 19.5687 25.6015 19.6777 25.5657 19.8178C25.5283 19.9563 25.5703 20.1057 25.6746 20.2054L33.3623 27.893L25.6746 35.5806C25.5703 35.6802 25.5283 35.8296 25.5657 35.9682C25.6015 36.1083 25.7104 36.2172 25.8505 36.253C25.989 36.2904 26.1385 36.2484 26.2381 36.1441L34.2074 28.1747C34.2837 28.0984 34.3257 27.9942 34.3242 27.8868Z"/>
</mask>
<path d="M34.3242 27.8868C34.3226 27.7825 34.2806 27.6844 34.2074 27.6113L26.2381 19.6419C26.1385 19.5376 25.989 19.4956 25.8505 19.5329C25.7104 19.5687 25.6015 19.6777 25.5657 19.8178C25.5283 19.9563 25.5703 20.1057 25.6746 20.2054L33.3623 27.893L25.6746 35.5806C25.5703 35.6802 25.5283 35.8296 25.5657 35.9682C25.6015 36.1083 25.7104 36.2172 25.8505 36.253C25.989 36.2904 26.1385 36.2484 26.2381 36.1441L34.2074 28.1747C34.2837 28.0984 34.3257 27.9942 34.3242 27.8868Z" fill="black"/>
<path d="M34.3242 27.8868L34.8241 27.8795L34.8241 27.8793L34.3242 27.8868ZM34.2074 27.6113L34.561 27.2577L34.561 27.2577L34.2074 27.6113ZM26.2381 19.6419L25.8764 19.9874L25.8845 19.9955L26.2381 19.6419ZM25.8505 19.5329L25.9743 20.0174L25.9807 20.0157L25.8505 19.5329ZM25.5657 19.8178L26.0485 19.948L26.0501 19.9416L25.5657 19.8178ZM25.6746 20.2054L26.0283 19.8517L26.02 19.8438L25.6746 20.2054ZM33.3623 27.893L33.7158 28.2465L34.0694 27.893L33.7158 27.5394L33.3623 27.893ZM25.6746 35.5806L26.0201 35.9423L26.0282 35.9342L25.6746 35.5806ZM25.5657 35.9682L26.0501 35.8444L26.0484 35.838L25.5657 35.9682ZM25.8505 36.253L25.9807 35.7702L25.9743 35.7686L25.8505 36.253ZM26.2381 36.1441L25.8844 35.7904L25.8765 35.7987L26.2381 36.1441ZM34.2074 28.1747L33.8539 27.8212L33.8539 27.8212L34.2074 28.1747ZM34.8241 27.8793C34.8206 27.6438 34.7252 27.4219 34.561 27.2577L33.8539 27.9648C33.836 27.9469 33.8246 27.9212 33.8242 27.8942L34.8241 27.8793ZM34.561 27.2577L26.5916 19.2884L25.8845 19.9955L33.8539 27.9648L34.561 27.2577ZM26.5996 19.2965C26.3745 19.0608 26.0368 18.9649 25.7203 19.0502L25.9807 20.0157C25.9413 20.0263 25.9024 20.0144 25.8765 19.9873L26.5996 19.2965ZM25.7267 19.0485C25.4095 19.1296 25.1623 19.3768 25.0812 19.694L26.0501 19.9416C26.0406 19.9786 26.0113 20.0079 25.9743 20.0174L25.7267 19.0485ZM25.0829 19.6876C24.9976 20.0041 25.0935 20.3418 25.3293 20.5669L26.02 19.8438C26.0471 19.8697 26.059 19.9086 26.0484 19.948L25.0829 19.6876ZM25.3211 20.5589L33.0087 28.2465L33.7158 27.5394L26.0282 19.8518L25.3211 20.5589ZM33.0087 27.5394L25.3211 35.2271L26.0282 35.9342L33.7158 28.2465L33.0087 27.5394ZM25.3293 35.2191C25.0935 35.4442 24.9976 35.7819 25.0829 36.0984L26.0484 35.838C26.059 35.8774 26.0471 35.9162 26.02 35.9422L25.3293 35.2191ZM25.0812 36.092C25.1623 36.4092 25.4095 36.6564 25.7267 36.7375L25.9743 35.7686C26.0113 35.778 26.0406 35.8074 26.0501 35.8444L25.0812 36.092ZM25.7203 36.7358C26.0368 36.8211 26.3745 36.7251 26.5996 36.4894L25.8765 35.7987C25.9024 35.7716 25.9413 35.7596 25.9807 35.7703L25.7203 36.7358ZM26.5916 36.4976L34.561 28.5283L33.8539 27.8212L25.8845 35.7905L26.5916 36.4976ZM34.561 28.5283C34.7332 28.356 34.8276 28.1214 34.8241 27.8795L33.8242 27.894C33.8238 27.8669 33.8342 27.8409 33.8539 27.8212L34.561 28.5283Z" fill="black" mask="url(#path-2-outside-1_301_8582)"/>
</svg>
