<svg width="130" height="130" viewBox="0 0 130 130" fill="none" xmlns="http://www.w3.org/2000/svg">
    <rect opacity="0.4" x="65" y="0.707107" width="90.9239" height="90.9239" transform="rotate(45 65 0.707107)"
        stroke="#BB9B8C" />
    <path
        d="M71.1562 64.9916C71.154 64.845 71.0949 64.7072 70.9921 64.6044L59.7921 53.4044C59.6521 53.2578 59.4421 53.1988 59.2474 53.2513C59.0506 53.3016 58.8974 53.4547 58.8471 53.6516C58.7946 53.8463 58.8537 54.0563 59.0003 54.1963L69.8043 65.0003L59.0003 75.8044C58.8537 75.9444 58.7946 76.1544 58.8471 76.3491C58.8974 76.546 59.0506 76.6991 59.2474 76.7494C59.4421 76.8019 59.6521 76.7428 59.7921 76.5963L70.9921 65.3963C71.0993 65.2891 71.1584 65.1425 71.1562 64.9916Z"
        fill="#BB9B8C" />
</svg>