<svg width="130" height="130" viewBox="0 0 130 130" fill="none" xmlns="http://www.w3.org/2000/svg">
<rect opacity="0.4" y="0.707107" width="90.9239" height="90.9239" transform="matrix(-0.707107 0.707107 0.707107 0.707107 64.5 0.207107)" stroke="#BB9B8C"/>
<path d="M58.8438 64.9916C58.846 64.845 58.9051 64.7072 59.0079 64.6044L70.2079 53.4044C70.3479 53.2578 70.5579 53.1988 70.7526 53.2513C70.9494 53.3016 71.1026 53.4547 71.1529 53.6516C71.2054 53.8463 71.1463 54.0563 70.9997 54.1963L60.1957 65.0003L70.9997 75.8044C71.1463 75.9444 71.2054 76.1544 71.1529 76.3491C71.1026 76.546 70.9494 76.6991 70.7526 76.7494C70.5579 76.8019 70.3479 76.7428 70.2079 76.5963L59.0079 65.3963C58.9007 65.2891 58.8416 65.1425 58.8438 64.9916Z" fill="#BB9B8C"/>
</svg>
