<svg id="Layer_1" data-name="Layer 1" xmlns="http://www.w3.org/2000/svg" viewBox="0 0 25 25"><path d="M7.87,2.08h8.48A6,6,0,0,1,22.2,8.13v8.75a6,6,0,0,1-5.85,6H7.87a6,6,0,0,1-5.85-6V8.13A6,6,0,0,1,7.87,2.08Zm-.2,2.09A3.68,3.68,0,0,0,4,7.92v9.16a3.68,3.68,0,0,0,3.63,3.75h8.88a3.68,3.68,0,0,0,3.63-3.75V7.92a3.68,3.68,0,0,0-3.63-3.75Zm9.74,1.56A1.3,1.3,0,1,1,16.14,7,1.28,1.28,0,0,1,17.41,5.73Zm-5.3,1.56a5.13,5.13,0,0,1,5,5.21,5.13,5.13,0,0,1-5,5.21,5.13,5.13,0,0,1-5-5.21A5.14,5.14,0,0,1,12.11,7.29Zm0,2.09a3.13,3.13,0,1,0,3,3.12A3.07,3.07,0,0,0,12.11,9.38Z"/></svg>