<svg id="Layer_1" data-name="Layer 1" xmlns="http://www.w3.org/2000/svg" viewBox="0 0 25 25"><path d="M20.5,15.21a9.08,9.08,0,0,1,1.94,2.31c.64,1.11-.71,1.19-.71,1.19l-2.6,0a1.83,1.83,0,0,1-1.3-.41c-1-.68-1.91-2.49-2.61-2.25S14.53,18,14.53,18a.62.62,0,0,1-.17.4.63.63,0,0,1-.53.13H12.67a6.18,6.18,0,0,1-4.82-2.16C5.37,13.68,3.2,8.47,3.2,8.47s-.13-.31,0-.49.57-.17.57-.17H6.57A.69.69,0,0,1,7,8a.9.9,0,0,1,.24.35A19.46,19.46,0,0,0,8.3,10.55c1.16,2.08,1.7,2.52,2.07,2.3.6-.32.43-2.92.43-2.92a3,3,0,0,0-.29-1.37,1.36,1.36,0,0,0-.87-.45c-.16,0,.1-.39.44-.57a6.42,6.42,0,0,1,2.43-.25,4.4,4.4,0,0,1,1.36.14c1,.24.64,1.16.64,3.37,0,.72-.11,1.7.37,2,.21.15.74,0,2-2.26A19.47,19.47,0,0,0,18,8.22a.89.89,0,0,1,.25-.32.9.9,0,0,1,.38-.09h2.93s.89-.1,1,.3-.34,1.44-1.54,3.08C19.1,13.9,18.87,13.65,20.5,15.21Z"/></svg>