<svg width="64" height="64" viewBox="0 0 64 64" fill="none" xmlns="http://www.w3.org/2000/svg">
<rect width="64" height="64" rx="32" fill="#BB9B8C"/>
<path fill-rule="evenodd" clip-rule="evenodd" d="M32.0012 13.54C30.3733 13.54 29.0816 14.9109 29.1784 16.5359L30.4221 37.4264C30.4722 38.267 31.1684 38.923 32.0104 38.923C32.853 38.923 33.5495 38.2661 33.5989 37.425L34.8241 16.5334C34.9193 14.9093 33.628 13.54 32.0012 13.54ZM34.9996 47.4608C34.9996 49.1175 33.6566 50.4606 31.9998 50.4606C30.3431 50.4606 29 49.1175 29 47.4608C29 45.804 30.3431 44.461 31.9998 44.461C33.6566 44.461 34.9996 45.804 34.9996 47.4608Z" fill="white"/>
</svg>
