<svg id="Layer_1" data-name="Layer 1" xmlns="http://www.w3.org/2000/svg" viewBox="0 0 16 16"><path d="M12,9.63l-.85-.84a1.07,1.07,0,0,0-.88-.32,1.12,1.12,0,0,0-.81.47l-.29.42a3.26,3.26,0,0,1-1.72-.82,3.26,3.26,0,0,1-.82-1.72l.43-.29a1.09,1.09,0,0,0,.46-.81,1.12,1.12,0,0,0-.31-.88L6.37,4a1.1,1.1,0,0,0-1.28-.21,2.67,2.67,0,0,0-1.37,2,5.64,5.64,0,0,0,1.82,4.64,6,6,0,0,0,4.05,1.86,3.9,3.9,0,0,0,.59,0,2.7,2.7,0,0,0,2-1.38h0A1.1,1.1,0,0,0,12,9.63Zm-.66.83a1.75,1.75,0,0,1-1.32.87A4.8,4.8,0,0,1,6.22,9.78,4.74,4.74,0,0,1,4.68,6a1.68,1.68,0,0,1,.86-1.31l0,0a.15.15,0,0,1,.09,0l.85.85a.19.19,0,0,1,0,.1.18.18,0,0,1-.06.1l-.67.46a.49.49,0,0,0-.21.43A4.53,4.53,0,0,0,6.77,9.23a4.53,4.53,0,0,0,2.61,1.14.49.49,0,0,0,.43-.21l.46-.67a.12.12,0,0,1,.1-.05.1.1,0,0,1,.1,0l.85.85A.13.13,0,0,1,11.35,10.46Z"/><path d="M13.66,2.34a8,8,0,0,0-11.32,0A8,8,0,0,0,1.09,12L.26,15.15a.48.48,0,0,0,.59.59L4,14.91A8.12,8.12,0,0,0,8,16,8.27,8.27,0,0,0,8.87,16a8,8,0,0,0,4.79-2.29,8,8,0,0,0,0-11.32ZM13,13a7,7,0,0,1-8.68,1A.52.52,0,0,0,4,13.9l-.13,0-2.5.67.67-2.5A.46.46,0,0,0,2,11.71,7,7,0,1,1,13,13Z"/></svg>