<svg width="41" height="40" viewBox="0 0 41 40" fill="none" xmlns="http://www.w3.org/2000/svg">
<g clip-path="url(#clip0_301_5086)">
<path d="M20.875 26.875C18.8975 26.875 17.3546 27.8164 16.5325 28.4581C16.1358 28.7678 16.1173 29.3305 16.4408 29.716L20.109 34.0872C20.5086 34.5634 21.2414 34.5634 21.641 34.0872L25.3092 29.716C25.6327 29.3305 25.6142 28.7678 25.2175 28.4581C24.3954 27.8164 22.8524 26.875 20.875 26.875Z" stroke="#BB9B8C" stroke-width="1.5" stroke-linecap="round"/>
<path d="M11.8124 25.312C11.8124 25.312 15.2499 21.8745 20.8749 21.8745C26.4999 21.8745 29.9374 25.312 29.9374 25.312" stroke="#BB9B8C" stroke-width="1.5" stroke-linecap="round"/>
<path d="M8.37564 21.5616C8.37564 21.5616 13.0631 16.8742 20.8756 16.8742C28.6881 16.8742 33.3756 21.5616 33.3756 21.5616" stroke="#BB9B8C" stroke-width="1.5" stroke-linecap="round"/>
<path d="M5.25049 17.8124C5.25049 17.8124 11.6177 11.8751 20.8755 11.875C30.1333 11.8749 36.5005 17.8124 36.5005 17.8124" stroke="#BB9B8C" stroke-width="1.5" stroke-linecap="round"/>
<path d="M2.12534 14.0622C2.12534 14.0622 9.00034 6.87473 20.8753 6.8747C32.7503 6.87468 39.6253 14.0622 39.6253 14.0622" stroke="#BB9B8C" stroke-width="1.5" stroke-linecap="round"/>
</g>
<defs>
<clipPath id="clip0_301_5086">
<rect width="40" height="40" fill="white" transform="translate(0.875)"/>
</clipPath>
</defs>
</svg>
