<svg width="41" height="40" viewBox="0 0 41 40" fill="none" xmlns="http://www.w3.org/2000/svg">
<path d="M8.875 22.625C5.78638 24.2545 3.875 26.5091 3.875 29C3.875 33.9705 11.4862 38 20.875 38C30.2638 38 37.875 33.9705 37.875 29C37.875 26.5091 35.9636 24.2545 32.875 22.625" stroke="#BB9B8C" stroke-width="1.5" stroke-linecap="round"/>
<path d="M20.875 35.001C13.875 35.501 6.875 32.501 6.875 27.9766" stroke="#BB9B8C" stroke-width="1.5" stroke-linecap="round"/>
<path d="M14.375 12.7988C9.9162 13.9696 6.875 16.3073 6.875 19.0002C6.875 22.8662 13.143 26.0002 20.875 26.0002C28.607 26.0002 34.875 22.8662 34.875 19.0002C34.875 16.3073 31.8338 13.9696 27.375 12.7988" stroke="#BB9B8C" stroke-width="1.5" stroke-linecap="round"/>
<path d="M9.875 19C10.875 22 15.875 24 20.875 23" stroke="#BB9B8C" stroke-width="1.5" stroke-linecap="round"/>
<ellipse cx="20.875" cy="9" rx="10" ry="5" stroke="#BB9B8C" stroke-width="1.5" stroke-linecap="round"/>
<path d="M13.875 9C14.875 11 17.875 11.5 19.875 11.5" stroke="#BB9B8C" stroke-width="1.5" stroke-linecap="round"/>
</svg>
