<svg width="41" height="40" viewBox="0 0 41 40" fill="none" xmlns="http://www.w3.org/2000/svg">
<path d="M16.375 32H4.875C3.77043 32 2.875 31.1046 2.875 30V5C2.875 3.89543 3.77043 3 4.875 3H36.875C37.9796 3 38.875 3.89543 38.875 5V30C38.875 31.1046 37.9796 32 36.875 32H25.375" stroke="#BB9B8C" stroke-width="1.5" stroke-linecap="round"/>
<path d="M2.875 7H38.875" stroke="#BB9B8C" stroke-width="1.5" stroke-linecap="round"/>
<path d="M14.875 22C14.875 18.6863 17.5613 16 20.875 16V16C24.1887 16 26.875 18.6863 26.875 22V28C26.875 31.3137 24.1887 34 20.875 34V34C17.5613 34 14.875 31.3137 14.875 28V22Z" stroke="#BB9B8C" stroke-width="1.5" stroke-linecap="round"/>
<path d="M14.875 22H20.875" stroke="#BB9B8C" stroke-width="1.5" stroke-linecap="round"/>
<path d="M14.875 26H20.875" stroke="#BB9B8C" stroke-width="1.5" stroke-linecap="round"/>
<path d="M20.875 34V37.5" stroke="#BB9B8C" stroke-width="1.5" stroke-linecap="round"/>
<path d="M15.875 37.5H25.875" stroke="#BB9B8C" stroke-width="1.5" stroke-linecap="round"/>
</svg>
