<svg xmlns="http://www.w3.org/2000/svg" viewBox="0 0 354.25 327.18">
  
    <path fill="#F3F1EB"
        d="M157,132.61c1-18.86-1-36.58-8.89-52.94-7-14.53-18.73-23.7-35.26-25.87-19.67-2.57-36.3,4.18-50.67,17a22.56,22.56,0,0,0-7.87,19.41c.5,5.58,5.71,11,10.23,10.46,5.51-.69,9-7.34,7-13.13a26.27,26.27,0,0,0-1.16-2.41c13.73-2.89,28.31,8,30.38,21.88,1.85,12.51-1.5,23-11.86,30.3-10.64,7.51-22.62,9-34.71,3.93-10.87-4.58-20-11.64-25.33-22.58C21.68,104,23.47,89.44,31.22,75.77c11.38-20.08,30.44-28.89,52-32.95,28.52-5.36,55.62-.77,80.14,14.78C184.47,71,197.66,90.36,202,115.19c7.84,3.06,23.63-8.28,27.31-21-3.46-2.22-7.17-4.3-10.56-6.83C208.87,80,203.93,70,202.5,57.63c-2.14-18.48,4-34.45,14.56-48.61C224.92-1.55,233.5-3,243,5.51c3,2.73,5.49,6.1,8.44,9.44-7.54,2.33-5.23,8.27-4.33,14,1.4,8.91,2.09,18,3.89,26.8,2.42,11.88,10.18,20.76,18.71,30.51,7.91-3.27,16.24-6,23.77-10.13,3.75-2.08,6.23-6.67,8.95-10.38,6.35-8.64,15.65-12.95,25.19-16.29C335.43,46.68,343.85,45,352.7,48,349.41,60,342.6,69.15,333,76.78c-10.08,8-22.07,5.83-33.46,7l-.63,1.33c2.44,1.43,4.73,3.29,7.35,4.22,9.85,3.49,20,6.18,29.66,10.13,7.89,3.23,14.48,8.59,18.3,18-4.68,1.08-8.84,2.53-13.1,3-12.2,1.18-22.43-2.6-29.71-13-2.91-4.15-5.91-8.24-8.9-12.33-7.57-10.36-16.66-10.13-27-.22L284,105.05c4.59,5.55,9.23,11,13.72,16.68.8,1,.89,2.58,1.4,3.86,1.21,3.1,1.65,6.64-1.32,8.38-2.17,1.27-5.63,1.35-8.21.72a24.76,24.76,0,0,1-15.81-11.81c-4.91-8.24-11.58-14.39-21-17-2.56-.71-5.68-1.36-8.05-.55a122.6,122.6,0,0,0-38.86,21.75c-2.46,2-3.3,4.43-3.28,7.65q.19,34,0,68.11c-.06,9.84-1.19,19.72-.73,29.53.67,14.53,2.2,29,3.66,43.52a27.78,27.78,0,0,0,3,9.17c3,6.11,8,9.61,15,9.75,3.23.07,6.47,0,10.06,0,3.25,6.07,1,11.66-1.92,16.55-5.29,9-14.25,12.94-24,14.83-14,2.7-26.83-.05-38.18-9a29.37,29.37,0,0,1-10.21-16.56c-1.56-6.36-2-13-2.95-19.5-.12-.85-.28-1.69-.47-2.79-12.67,14.71-28.58,24.2-45.11,32.75a95.86,95.86,0,0,1-51.8,10.56c-15.22-1.11-28.84-6.72-39.82-17.32C7.46,293.1,2.23,278.81.45,262.79c-1.55-13.91,1-26.78,6.19-39.51,5.51-13.51,14.94-24,25.54-33.48a150.12,150.12,0,0,1,41.79-26c17.1-7.27,34.65-13.5,52.05-20C136.24,139.92,146.55,136.36,157,132.61Zm.2,19a8.27,8.27,0,0,0-1.9.14c-26,11.38-51.29,24-74.32,40.85-9.75,7.14-18.33,15.32-23.27,26.32-9.07,20.21-5.09,43.23,14.25,57.76,7.94,6,16.72,10.74,27,10.67,18.06-.12,34-6.52,47.82-18,6.11-5.07,10.58-11.21,10.51-20.09-.27-30.88-.11-61.76-.11-92.64ZM48.47,120.18c12.75,13.76,25,12.61,33.62,5.4,5.42-4.57,8.36-14.21,2.91-20-1.63,8.45-6.75,13.61-14.47,15.84A34.2,34.2,0,0,1,48.47,120.18ZM233,95c-1.33,4.14-2.41,7.53-3.84,12l16-4.78.43-1.32Z" />
    <path fill="#F3F1EB"
        d="M231,122c14.83,2.7,20.14,9.37,23.2,29.14-5.67,2.16-16.62-1.69-21.66-7.61C227.79,137.92,227.15,129,231,122Z" />
</svg>