<svg width="1025" height="447" viewBox="0 0 1025 447" fill="none" xmlns="http://www.w3.org/2000/svg">
<g opacity="0.1">
<path d="M42.0694 296.589C75.1778 226.855 111.342 168.828 150.563 122.509C189.784 75.68 227.731 40.304 264.405 16.3807C270.008 12.8177 275.865 9.76368 281.978 7.21865C288.599 4.67359 295.73 2.63757 303.371 1.11057C311.011 -0.925463 317.124 -0.161965 321.708 3.40106C326.292 6.45512 328.584 12.3087 328.584 20.9618C325.528 34.705 315.086 54.0472 297.259 78.9885C279.431 103.421 262.877 124.29 247.596 141.596C232.315 158.393 217.798 173.918 204.046 188.17C194.368 198.35 171.447 217.947 135.282 246.961L97.0802 273.683L68.8108 291.244C66.7734 292.262 64.2266 294.807 61.1704 298.879C54.0394 311.604 48.1817 323.566 43.5975 334.764C28.8261 371.922 20.4216 394.827 18.3842 403.48C15.8374 407.552 13.8 414.933 12.2719 425.622C10.7438 435.802 13.0359 441.655 19.1482 443.182C33.4103 441.655 52.766 430.203 77.2152 408.825C102.174 387.446 127.132 363.523 152.091 337.055C177.05 310.077 191.057 295.316 194.113 292.771C200.735 287.681 205.064 284.373 207.102 282.846L207.866 283.609C206.338 285.645 202.008 289.972 194.877 296.589C192.84 298.625 183.417 308.55 166.608 326.366C149.799 343.672 132.99 360.978 116.181 378.284C99.8817 395.081 81.7995 410.861 61.9344 425.622C42.0694 439.874 26.2793 447 14.564 447C-7.33845 441.91 -4.53698 405.771 22.9684 338.582L42.0694 296.589ZM70.3389 283.609C102.938 266.812 143.687 236.526 192.585 192.751C211.431 176.463 237.409 147.959 270.517 107.238C304.135 66.0088 321.962 37.25 324 20.9618C324 14.3447 321.708 10.0182 317.124 7.98215C313.049 5.94612 308.21 5.94612 302.607 7.98215C297.004 9.50915 291.656 11.7997 286.562 14.8537C281.468 17.3988 277.648 19.9438 275.101 22.4888C264.405 32.1599 253.963 42.0856 243.776 52.2657C233.589 61.9368 224.165 71.3534 215.506 80.5155C206.847 89.6776 198.952 98.0762 191.821 105.711C184.69 113.346 177.559 121.491 170.428 130.144C163.806 138.288 158.203 145.159 153.619 150.758C149.035 156.357 143.941 162.975 138.338 170.61C133.245 178.245 129.425 183.589 126.878 186.643C124.84 189.697 121.53 194.533 116.945 201.15C112.87 207.258 110.578 210.567 110.069 211.076C90.2039 239.58 76.9606 263.758 70.3389 283.609Z" fill="#BB9B8C"/>
<path d="M225.463 238.562C230.047 234.49 234.886 233.726 239.979 236.271C243.545 237.798 243.29 240.598 239.215 244.67C219.35 270.12 205.852 288.19 198.721 298.879C192.609 309.568 193.118 315.422 200.249 316.44C209.418 315.931 227.5 300.406 254.496 269.866C261.118 261.213 271.305 249.76 285.058 235.508C295.245 224.31 302.885 220.492 307.979 224.055C311.544 226.6 310.526 231.181 304.923 237.798C289.642 256.123 275.38 275.719 262.137 296.589C260.099 300.661 258.316 303.969 256.788 306.514C255.77 308.55 253.732 312.877 250.676 319.494C248.129 325.602 246.346 330.692 245.328 334.764C244.309 338.836 243.545 343.417 243.036 348.507C242.526 353.597 243.29 357.415 245.328 359.96C247.875 362.505 251.695 363.778 256.788 363.778C264.938 363.778 274.871 359.96 286.586 352.325C298.301 344.181 311.544 333.746 326.316 321.021C341.087 307.787 349.237 300.661 350.765 299.643C362.48 289.972 369.102 284.882 370.63 284.373C373.177 283.355 368.847 287.936 357.642 298.116C356.623 298.625 355.604 299.388 354.585 300.406C350.51 303.969 343.634 310.077 333.956 318.73C324.788 326.875 317.147 333.237 311.035 337.818C305.432 342.399 298.301 347.489 289.642 353.088C281.492 358.687 273.597 363.014 265.957 366.068C254.751 369.122 246.346 367.086 240.743 359.96C235.141 352.325 232.594 343.672 233.103 334.001C234.122 323.821 235.395 315.167 236.923 308.041C237.433 306.514 238.706 303.206 240.743 298.116C242.781 293.026 243.8 289.972 243.8 288.954C243.29 287.936 240.998 289.463 236.923 293.535L215.53 311.859C207.89 318.985 201.013 321.021 194.901 317.967C181.658 312.368 180.639 300.406 191.845 282.082C203.051 263.249 214.257 248.742 225.463 238.562Z" fill="#BB9B8C"/>
<path d="M364.058 267.575C379.339 248.233 394.11 237.035 408.373 233.981C420.597 231.945 427.474 233.472 429.002 238.562C431.548 244.67 428.747 251.287 420.597 258.413C419.578 258.413 419.069 257.65 419.069 256.123L424.417 248.488C427.474 242.38 426.71 239.58 422.125 240.089C412.447 240.598 400.732 250.269 386.979 269.102L383.159 274.447C364.313 302.442 353.871 318.221 351.834 321.784C342.156 338.582 340.628 351.052 347.249 359.196C355.399 366.323 368.133 365.05 385.451 355.379C402.77 345.708 421.616 332.474 441.99 315.676C462.874 298.37 476.372 288.19 482.484 285.136C482.994 285.136 483.248 285.391 483.248 285.9C478.664 288.954 468.477 296.843 452.687 309.568C437.406 321.784 424.927 331.456 415.249 338.582C405.571 345.708 394.365 352.579 381.631 359.196C369.407 365.305 359.983 368.104 353.362 367.595C341.646 366.068 334.261 360.723 331.205 351.561C328.148 341.89 328.403 332.219 331.969 322.548C335.025 312.368 339.1 303.46 344.193 295.825L364.058 267.575Z" fill="#BB9B8C"/>
<path d="M506.874 235.508C517.061 224.31 524.702 220.492 529.795 224.055C533.361 226.6 532.342 231.181 526.739 237.798C511.458 256.123 497.196 275.719 483.953 296.589C481.915 300.661 480.133 303.969 478.604 306.514C477.586 308.55 475.548 312.877 472.492 319.494C469.945 325.602 468.163 330.692 467.144 334.764C466.125 338.836 465.361 343.417 464.852 348.507C464.342 353.597 465.106 357.415 467.144 359.96C469.691 362.505 473.511 363.778 478.604 363.778C486.754 363.778 496.687 359.96 508.402 352.325C520.117 344.181 533.361 333.746 548.132 321.021C562.904 307.787 571.053 300.661 572.581 299.643C584.297 289.972 590.918 284.882 592.446 284.373C594.993 283.355 590.664 287.936 579.458 298.116C578.439 298.625 577.42 299.388 576.401 300.406C572.327 303.969 565.45 310.077 555.772 318.73C546.604 326.875 538.964 333.237 532.851 337.818C527.248 342.399 520.117 347.489 511.458 353.088C503.308 358.687 495.413 363.014 487.773 366.068C476.567 369.122 468.163 367.086 462.56 359.96C456.957 352.325 454.665 343.672 455.683 334.001C456.193 323.821 457.211 315.167 458.739 308.041C465.871 286.154 481.915 261.976 506.874 235.508ZM537.435 196.569C547.623 185.371 555.263 181.553 560.357 185.116C563.922 187.661 562.904 192.242 557.301 198.859C547.113 210.058 539.473 213.875 534.379 210.312C530.814 207.767 531.833 203.186 537.435 196.569Z" fill="#BB9B8C"/>
<path d="M587.217 308.041C578.049 311.095 572.701 308.296 571.173 299.643C569.644 288.954 577.794 276.228 595.622 261.467C605.809 254.341 615.742 250.524 625.419 250.015C635.097 249.506 640.191 253.069 640.7 260.704C640.7 261.213 642.738 259.686 646.812 256.123C648.85 254.596 651.397 252.051 654.453 248.488C658.018 244.925 661.075 242.125 663.621 240.089C666.168 238.053 669.479 237.798 673.554 239.325C677.629 240.852 678.393 243.652 675.846 247.724C640.7 289.972 618.543 322.548 609.375 345.453C605.809 358.687 607.592 365.05 614.723 364.541C620.835 363.523 635.861 354.615 659.801 337.818C687.307 316.44 708.7 301.679 723.98 293.535C740.789 284.882 747.411 282.082 743.845 285.136C742.317 286.663 739.261 288.954 734.677 292.008C721.434 298.116 707.172 306.769 691.891 317.967C685.778 322.039 676.61 328.656 664.385 337.818C652.161 346.471 642.992 352.834 636.88 356.906C615.996 371.667 603.262 371.667 598.678 356.906C594.094 341.636 596.131 326.366 604.79 311.095L612.431 295.825C610.903 296.334 607.082 298.37 600.97 301.933C594.858 304.987 590.274 307.023 587.217 308.041ZM617.015 257.65C598.678 278.519 587.217 292.262 582.633 298.879C581.105 300.915 580.596 302.951 581.105 304.987C581.614 307.023 583.652 307.278 587.217 305.751C604.536 298.625 620.58 285.645 635.352 266.812C637.389 262.231 637.644 258.668 636.116 256.123C635.097 253.578 632.296 252.305 627.711 252.305C623.637 252.305 620.071 254.087 617.015 257.65Z" fill="#BB9B8C"/>
<path d="M724.553 285.9C735.759 278.264 742.381 274.192 744.418 273.683C746.965 273.174 748.748 273.429 749.767 274.447C751.295 275.465 751.804 276.992 751.295 279.028L749.767 287.427L750.531 288.19C753.587 286.663 755.624 285.391 756.643 284.373C762.246 280.3 770.396 273.938 781.092 265.285C791.789 256.632 799.939 250.524 805.542 246.961C811.654 242.38 818.785 238.816 826.935 236.271C836.613 234.235 842.216 236.271 843.744 242.38C845.781 247.979 844.253 253.323 839.159 258.413C834.066 266.048 824.897 279.791 811.654 299.643C798.92 319.494 789.242 335.019 782.62 346.217C763.774 380.829 761.482 398.39 775.744 398.899C777.272 398.899 779.31 398.644 781.856 398.135C792.044 395.081 804.523 387.701 819.294 375.994C834.066 363.777 847.054 351.816 858.26 340.109C869.976 328.402 880.927 316.949 891.114 305.751C901.301 294.553 906.649 288.699 907.159 288.19C908.687 286.663 909.96 285.9 910.979 285.9C911.998 285.391 912.252 285.391 911.743 285.9L909.451 289.717C908.942 290.226 905.631 294.044 899.518 301.17C893.406 308.296 889.331 312.877 887.294 314.913C885.256 316.949 881.181 321.275 875.069 327.893C869.466 334.51 864.882 339.345 861.316 342.399C858.26 345.453 853.676 350.034 847.564 356.142C841.961 361.741 837.122 366.068 833.047 369.122C828.972 372.176 824.133 375.994 818.53 380.575C813.437 384.647 808.343 388.21 803.25 391.264C798.665 393.809 794.081 396.099 789.497 398.135C780.838 402.207 772.943 402.716 765.812 399.662C758.681 396.608 754.606 391.009 753.587 382.865C752.568 378.284 753.078 371.158 755.115 361.487C758.681 349.271 766.576 334.001 778.8 315.676L820.822 256.886L828.463 243.907C829.991 242.38 829.991 241.107 828.463 240.089C827.444 239.58 825.916 239.58 823.879 240.089C816.748 243.652 803.504 252.814 784.148 267.575C769.886 278.773 757.152 294.807 745.947 315.676C742.381 322.293 736.778 322.802 729.138 317.203C725.063 314.149 723.789 311.604 725.318 309.568C726.846 306.514 729.647 302.697 733.722 298.116C737.797 293.026 740.344 289.717 741.362 288.19C741.362 287.681 742.126 286.409 743.654 284.373C745.182 282.336 745.947 280.809 745.947 279.791C746.456 278.773 745.947 277.755 744.418 276.737L726.082 288.19L724.553 285.9Z" fill="#BB9B8C"/>
<path d="M1014.3 287.427C994.438 295.571 973.3 299.643 950.888 299.643C949.869 299.643 948.851 299.643 947.832 299.643C946.813 299.134 946.049 298.879 945.54 298.879C958.783 282.082 964.386 261.722 962.349 237.798C960.311 213.366 949.869 202.168 931.023 204.204C913.196 206.24 901.48 215.402 895.877 231.69C890.274 247.979 892.567 262.994 902.754 276.737L894.349 288.19C879.068 306.005 873.466 322.293 877.54 337.055C879.578 341.636 883.907 344.435 890.529 345.453C896.641 346.471 901.99 345.453 906.574 342.399C919.817 333.237 932.297 319.748 944.012 301.933C949.105 302.951 955.982 302.951 964.641 301.933C983.487 299.897 998.768 296.589 1010.48 292.008C1015.58 290.99 1020.16 288.699 1024.24 285.136C1025.25 284.118 1025.25 283.609 1024.24 283.609C1022.71 283.609 1019.4 284.882 1014.3 287.427ZM911.922 214.13C936.881 199.877 952.162 204.459 957.765 227.873C962.349 247.724 959.547 267.575 949.36 287.427C947.323 292.008 945.031 295.571 942.484 298.116C939.428 298.116 935.353 296.843 930.259 294.298C928.222 293.28 925.93 291.499 923.383 288.954L918.799 285.9L922.619 281.319L937.899 264.521C939.428 262.994 940.446 260.958 940.956 258.413C941.465 255.868 940.956 254.087 939.428 253.069C938.409 251.542 936.371 251.287 933.315 252.305C927.712 254.85 918.544 261.976 905.81 273.683C898.169 263.503 895.113 252.814 896.641 241.616C898.679 229.909 903.772 220.747 911.922 214.13ZM940.192 301.17L934.843 308.805C924.147 323.566 914.724 333.492 906.574 338.582C900.971 342.145 896.896 343.163 894.349 341.636C891.802 340.109 890.784 337.055 891.293 332.474C892.312 327.893 898.169 316.949 908.866 299.643C912.432 294.044 914.978 290.481 916.506 288.954C917.016 289.463 917.78 290.226 918.799 291.244C920.327 292.262 921.855 293.28 923.383 294.298C924.911 295.316 926.439 296.08 927.967 296.589C934.079 299.643 938.154 301.17 940.192 301.17Z" fill="#BB9B8C"/>
</g>
</svg>
