<svg width="916" height="507" viewBox="0 0 916 507" fill="none" xmlns="http://www.w3.org/2000/svg">
<g opacity="0.03">
<path d="M14.9132 77.9944L34.0232 50.7994C48.7232 32.1794 62.9332 21.3994 76.6532 18.4594C88.4132 16.4994 95.0282 17.9694 96.4982 22.8694C98.9482 28.7494 96.2532 35.1194 88.4132 41.9794C87.4332 41.9794 86.9432 41.2444 86.9432 39.7744C88.9032 37.8144 90.6182 35.3644 92.0882 32.4244C95.0282 26.5444 94.2932 23.8494 89.8832 24.3394C80.5732 24.8294 69.3032 34.1394 56.0732 52.2694L52.3982 57.4144C34.2682 84.3644 24.2232 99.5544 22.2632 102.984C12.9532 119.154 11.4832 131.159 17.8532 138.999C25.6932 145.859 37.9432 144.634 54.6032 135.324C71.2632 126.014 89.3932 113.274 108.993 97.1044C129.083 80.4444 142.068 70.6444 147.948 67.7044C148.438 67.7044 148.683 67.9494 148.683 68.4394C144.273 71.3794 134.473 78.9744 119.283 91.2244C104.583 102.984 92.5782 112.294 83.2682 119.154C73.9582 126.014 63.1782 132.629 50.9282 138.999C39.1682 144.879 30.1032 147.574 23.7332 147.084C12.4632 145.614 5.3582 140.469 2.4182 131.649C-0.521802 122.339 -0.276804 113.029 3.1532 103.719C6.0932 93.9194 10.0132 85.3444 14.9132 77.9944Z" fill="#0E1D2B"/>
<path d="M303.711 75.7894C301.751 77.7494 295.871 82.4044 286.071 89.7544C275.781 97.1044 257.896 114.744 232.416 142.674C207.426 170.114 190.766 187.019 182.436 193.389C165.286 209.559 153.771 210.784 147.891 197.064C142.501 185.304 143.726 171.094 151.566 154.434C153.036 151.494 155.731 146.594 159.651 139.734C164.061 132.384 167.736 126.014 170.676 120.624C174.106 115.234 177.291 108.864 180.231 101.514C183.661 93.6744 185.131 87.5494 184.641 83.1394C184.641 78.7294 183.171 74.3194 180.231 69.9094C177.291 65.9894 173.861 68.4394 169.941 77.2594C167.981 81.6694 164.306 88.2844 158.916 97.1044C153.526 105.924 149.606 109.599 147.156 108.129C134.906 105.679 132.456 98.8194 139.806 87.5494C143.236 82.6494 148.626 75.7894 155.976 66.9694C163.326 58.1494 168.716 51.2894 172.146 46.3894C176.066 39.0394 173.861 38.3044 165.531 44.1844C162.101 46.6344 156.221 51.5344 147.891 58.8844C141.031 64.7644 136.866 68.1944 135.396 69.1744C130.496 72.1144 128.291 73.0944 128.781 72.1144C129.271 70.6444 131.476 68.6844 135.396 66.2344C136.866 65.2544 140.541 62.3144 146.421 57.4144C152.301 52.0244 156.956 47.8594 160.386 44.9194C164.306 41.9794 168.961 39.5294 174.351 37.5694C180.231 35.1194 185.376 34.1394 189.786 34.6294C194.196 36.0994 195.421 38.7944 193.461 42.7144C191.991 46.1444 189.786 50.0644 186.846 54.4744C183.906 58.3944 182.926 60.3544 183.906 60.3544C205.466 53.0044 224.821 35.1194 241.971 6.69939C243.931 6.69939 245.156 7.18939 245.646 8.16939C231.436 31.6894 215.756 48.1044 198.606 57.4144L183.906 64.7644C182.926 65.7444 183.661 68.4394 186.111 72.8494C187.581 76.7694 188.561 80.9344 189.051 85.3444C189.541 89.2644 189.786 92.9394 189.786 96.3694C189.786 99.3094 189.296 103.474 188.316 108.864C187.336 113.764 186.356 117.439 185.376 119.889C184.886 122.339 183.661 126.504 181.701 132.384C179.741 138.264 178.516 142.184 178.026 144.144C176.556 147.574 174.351 152.229 171.411 158.109C168.961 163.499 167.001 168.154 165.531 172.074C164.061 175.994 162.836 180.649 161.856 186.039C160.876 195.839 161.366 200.739 163.326 200.739C165.776 200.739 173.861 194.614 187.581 182.364C196.401 175.504 212.816 159.089 236.826 133.119C260.836 106.659 280.681 88.2844 296.361 77.9944C306.651 68.1944 311.796 64.0294 311.796 65.4994C312.286 66.4794 309.591 69.9094 303.711 75.7894Z" fill="#0E1D2B"/>
<path d="M328.89 22.8694C333.3 18.9494 337.955 18.2144 342.855 20.6644C346.285 22.1344 346.04 24.8294 342.12 28.7494C323.01 53.2494 310.025 70.6444 303.165 80.9344C297.285 91.2244 297.775 96.8594 304.635 97.8394C313.455 97.3494 330.85 82.4044 356.82 53.0044C363.19 44.6744 372.99 33.6494 386.22 19.9294C396.02 9.14939 403.37 5.47438 408.27 8.90438C411.7 11.3544 410.72 15.7644 405.33 22.1344C390.63 39.7744 376.91 58.6394 364.17 78.7294C362.21 82.6494 360.495 85.8344 359.025 88.2844C358.045 90.2444 356.085 94.4094 353.145 100.779C350.695 106.659 348.98 111.559 348 115.479C347.02 119.399 346.285 123.809 345.795 128.709C345.305 133.609 346.04 137.284 348 139.734C350.45 142.184 354.125 143.409 359.025 143.409C366.865 143.409 376.42 139.734 387.69 132.384C398.96 124.544 411.7 114.499 425.91 102.249C440.12 89.5094 447.96 82.6494 449.43 81.6694C460.7 72.3594 467.07 67.4594 468.54 66.9694C470.99 65.9894 466.825 70.3994 456.045 80.1994C455.065 80.6894 454.085 81.4244 453.105 82.4044C449.185 85.8344 442.57 91.7144 433.26 100.044C424.44 107.884 417.09 114.009 411.21 118.419C405.82 122.829 398.96 127.729 390.63 133.119C382.79 138.509 375.195 142.674 367.845 145.614C357.065 148.554 348.98 146.594 343.59 139.734C338.2 132.384 335.75 124.054 336.24 114.744C337.22 104.944 338.445 96.6144 339.915 89.7544C340.405 88.2844 341.63 85.0994 343.59 80.1994C345.55 75.2994 346.53 72.3594 346.53 71.3794C346.04 70.3994 343.835 71.8694 339.915 75.7894C331.095 83.6294 324.235 89.5094 319.335 93.4294C311.985 100.289 305.37 102.249 299.49 99.3094C286.75 93.9194 285.77 82.4044 296.55 64.7644C307.33 46.6344 318.11 32.6694 328.89 22.8694Z" fill="#0E1D2B"/>
<path d="M501.156 78.7294C500.176 79.7094 497.726 82.1594 493.806 86.0794C489.886 89.5094 487.681 91.4694 487.191 91.9594C469.061 110.089 455.586 118.174 446.766 116.214C440.396 114.744 439.416 107.394 443.826 94.1644C445.296 90.7344 447.011 86.0794 448.971 80.1994C452.891 69.4194 458.526 60.3544 465.876 53.0044C474.206 44.6744 480.576 38.5494 484.986 34.6294C486.946 32.6694 492.826 28.7494 502.626 22.8694C506.546 20.9094 511.446 20.6644 517.326 22.1344C523.206 23.6044 525.656 27.2794 524.676 33.1594C524.186 36.0994 523.696 37.5694 523.206 37.5694C521.246 37.5694 520.511 36.0994 521.001 33.1594C520.021 27.7694 517.326 26.2994 512.916 28.7494C509.976 30.7094 507.771 32.4244 506.301 33.8944C487.191 52.0244 474.206 66.9694 467.346 78.7294C461.466 87.0594 457.791 92.4494 456.321 94.8994C451.911 101.759 450.686 106.904 452.646 110.334C453.136 111.804 454.606 111.804 457.056 110.334C458.526 109.354 460.486 108.129 462.936 106.659C465.876 104.699 468.326 102.984 470.286 101.514C472.736 100.044 474.941 98.5744 476.901 97.1044C482.291 92.2044 489.886 84.3644 499.686 73.5844C504.586 68.1944 514.141 57.6594 528.351 41.9794C543.051 25.8094 554.811 13.5594 563.631 5.22939C568.041 -0.650609 571.961 -1.38561 575.391 3.02439C576.861 4.98438 576.616 7.18938 574.656 9.63939L541.581 55.9444C541.091 56.9244 536.191 63.2944 526.881 75.0544C524.431 78.9744 520.511 85.0994 515.121 93.4294C510.221 101.269 506.546 107.149 504.096 111.069L497.481 124.299C501.401 124.299 516.591 116.949 543.051 102.249C569.511 87.5494 585.926 77.9944 592.296 73.5844C599.156 69.1744 603.566 66.9694 605.526 66.9694C608.956 66.4794 607.731 68.1944 601.851 72.1144C598.911 74.5644 595.481 76.5244 591.561 77.9944C582.741 83.8744 558.486 97.5944 518.796 119.154L496.746 130.179C493.316 132.139 490.866 134.344 489.396 136.794L438.681 211.764C434.761 217.644 428.881 226.709 421.041 238.959C412.711 251.209 406.586 260.519 402.666 266.889C399.236 271.789 394.336 279.139 387.966 288.939C381.106 299.229 375.961 306.824 372.531 311.724C365.671 320.054 356.361 332.794 344.601 349.944C332.841 367.584 324.021 380.324 318.141 388.164C315.691 391.594 303.441 406.294 281.391 432.264C275.511 439.124 270.856 444.269 267.426 447.699C259.586 456.519 253.461 462.889 249.051 466.809C236.801 479.059 227.246 488.124 220.386 494.004C214.016 499.884 205.441 504.049 194.661 506.499C191.231 506.989 188.046 505.764 185.106 502.824C171.876 489.594 170.406 464.849 180.696 428.589C186.086 407.029 194.171 386.694 204.951 367.584C229.451 326.424 249.786 297.269 265.956 280.119C275.756 269.339 283.596 261.499 289.476 256.599C294.866 252.189 303.441 244.839 315.201 234.549C326.471 224.259 336.761 215.684 346.071 208.824C355.381 201.474 364.691 195.104 374.001 189.714C386.741 181.874 406.341 170.604 432.801 155.904C435.741 153.944 440.151 151.739 446.031 149.289C451.421 146.839 454.606 145.369 455.586 144.879C458.036 143.409 460.241 141.449 462.201 138.999C465.141 134.589 469.551 127.974 475.431 119.154C481.311 109.844 485.721 102.984 488.661 98.5744C489.151 98.0844 489.886 97.3494 490.866 96.3694C491.846 94.8994 492.581 93.6744 493.071 92.6944C493.561 91.7144 494.296 90.7344 495.276 89.7544C496.256 88.2844 496.991 87.0594 497.481 86.0794C498.461 84.6094 499.441 83.3844 500.421 82.4044C501.401 81.4244 501.891 80.6894 501.891 80.1994C501.891 79.7094 501.646 79.2194 501.156 78.7294ZM455.586 148.554C454.606 148.554 452.401 149.289 448.971 150.759L444.561 152.964L431.331 159.579C427.901 162.029 415.161 169.624 393.111 182.364C391.151 183.344 387.966 185.304 383.556 188.244C378.656 190.694 374.981 192.654 372.531 194.124C367.141 197.064 351.706 209.069 326.226 230.139C300.256 251.699 284.086 265.419 277.716 271.299C276.246 272.769 274.041 275.219 271.101 278.649C268.161 282.079 265.956 284.529 264.486 285.999C255.666 296.779 249.296 304.864 245.376 310.254C238.026 321.034 231.166 331.814 224.796 342.594C217.936 353.864 210.341 367.829 202.011 384.489C193.681 401.639 187.311 417.074 182.901 430.794C178.001 444.514 175.796 457.744 176.286 470.484C176.776 483.714 180.941 493.759 188.781 500.619C191.721 503.559 196.621 502.824 203.481 498.414C209.851 494.494 214.751 490.329 218.181 485.919C232.391 470.729 246.111 455.539 259.341 440.349C283.351 409.969 297.316 392.084 301.236 386.694C329.656 344.554 350.726 312.949 364.446 291.879C368.366 285.999 374.246 276.934 382.086 264.684C389.436 252.434 395.071 243.124 398.991 236.754C403.891 228.914 409.281 220.584 415.161 211.764C420.551 202.944 426.676 193.144 433.536 182.364C440.396 171.584 445.786 163.254 449.706 157.374C450.196 156.884 451.176 155.414 452.646 152.964C454.116 150.514 455.096 149.044 455.586 148.554Z" fill="#0E1D2B"/>
<path d="M760.617 75.7894C758.657 77.7494 752.777 82.4044 742.977 89.7544C732.687 97.1044 714.802 114.744 689.322 142.674C664.332 170.114 647.672 187.019 639.342 193.389C622.192 209.559 610.677 210.784 604.797 197.064C599.407 185.304 600.632 171.094 608.472 154.434C609.942 151.494 612.637 146.594 616.557 139.734C620.967 132.384 624.642 126.014 627.582 120.624C631.012 115.234 634.197 108.864 637.137 101.514C640.567 93.6744 642.037 87.5494 641.547 83.1394C641.547 78.7294 640.077 74.3194 637.137 69.9094C634.197 65.9894 630.767 68.4394 626.847 77.2594C624.887 81.6694 621.212 88.2844 615.822 97.1044C610.432 105.924 606.512 109.599 604.062 108.129C591.812 105.679 589.362 98.8194 596.712 87.5494C600.142 82.6494 605.532 75.7894 612.882 66.9694C620.232 58.1494 625.622 51.2894 629.052 46.3894C632.972 39.0394 630.767 38.3044 622.437 44.1844C619.007 46.6344 613.127 51.5344 604.797 58.8844C597.937 64.7644 593.772 68.1944 592.302 69.1744C587.402 72.1144 585.197 73.0944 585.687 72.1144C586.177 70.6444 588.382 68.6844 592.302 66.2344C593.772 65.2544 597.447 62.3144 603.327 57.4144C609.207 52.0244 613.862 47.8594 617.292 44.9194C621.212 41.9794 625.867 39.5294 631.257 37.5694C637.137 35.1194 642.282 34.1394 646.692 34.6294C651.102 36.0994 652.327 38.7944 650.367 42.7144C648.897 46.1444 646.692 50.0644 643.752 54.4744C640.812 58.3944 639.832 60.3544 640.812 60.3544C662.372 53.0044 681.727 35.1194 698.877 6.69939C700.837 6.69939 702.062 7.18939 702.552 8.16939C688.342 31.6894 672.662 48.1044 655.512 57.4144L640.812 64.7644C639.832 65.7444 640.567 68.4394 643.017 72.8494C644.487 76.7694 645.467 80.9344 645.957 85.3444C646.447 89.2644 646.692 92.9394 646.692 96.3694C646.692 99.3094 646.202 103.474 645.222 108.864C644.242 113.764 643.262 117.439 642.282 119.889C641.792 122.339 640.567 126.504 638.607 132.384C636.647 138.264 635.422 142.184 634.932 144.144C633.462 147.574 631.257 152.229 628.317 158.109C625.867 163.499 623.907 168.154 622.437 172.074C620.967 175.994 619.742 180.649 618.762 186.039C617.782 195.839 618.272 200.739 620.232 200.739C622.682 200.739 630.767 194.614 644.487 182.364C653.307 175.504 669.722 159.089 693.732 133.119C717.742 106.659 737.587 88.2844 753.267 77.9944C763.557 68.1944 768.702 64.0294 768.702 65.4994C769.192 66.4794 766.497 69.9094 760.617 75.7894Z" fill="#0E1D2B"/>
<path d="M763.746 89.7544C754.926 92.6944 749.781 89.9994 748.311 81.6694C746.841 71.3794 754.681 59.1294 771.831 44.9194C781.631 38.0594 791.186 34.3844 800.496 33.8944C809.806 33.4044 814.706 36.8344 815.196 44.1844C815.196 44.6744 817.156 43.2044 821.076 39.7744C823.036 38.3044 825.486 35.8544 828.426 32.4244C831.856 28.9944 834.796 26.2994 837.246 24.3394C839.696 22.3794 842.881 22.1344 846.801 23.6044C850.721 25.0744 851.456 27.7694 849.006 31.6894C815.196 72.3594 793.881 103.719 785.061 125.769C781.631 138.509 783.346 144.634 790.206 144.144C796.086 143.164 810.541 134.589 833.571 118.419C860.031 97.8394 880.611 83.6294 895.311 75.7894C911.481 67.4594 917.851 64.7644 914.421 67.7044C912.951 69.1744 910.011 71.3794 905.601 74.3194C892.861 80.1994 879.141 88.5294 864.441 99.3094C858.561 103.229 849.741 109.599 837.981 118.419C826.221 126.749 817.401 132.874 811.521 136.794C791.431 151.004 779.181 151.004 774.771 136.794C770.361 122.094 772.321 107.394 780.651 92.6944L788.001 77.9944C786.531 78.4844 782.856 80.4444 776.976 83.8744C771.096 86.8144 766.686 88.7744 763.746 89.7544ZM792.411 41.2444C774.771 61.3344 763.746 74.5644 759.336 80.9344C757.866 82.8944 757.376 84.8544 757.866 86.8144C758.356 88.7744 760.316 89.0194 763.746 87.5494C780.406 80.6894 795.841 68.1944 810.051 50.0644C812.011 45.6544 812.256 42.2244 810.786 39.7744C809.806 37.3244 807.111 36.0994 802.701 36.0994C798.781 36.0994 795.351 37.8144 792.411 41.2444Z" fill="#0E1D2B"/>
</g>
</svg>
