
<svg xmlns="http://www.w3.org/2000/svg" viewBox="0 0 146 120">
    <defs>
        <linearGradient id="linear-gradient" x1="14.5" y1="83.07" x2="157.31" y2="83.07"
            gradientTransform="matrix(1 0 0 -1 0 122)" gradientUnits="userSpaceOnUse">
            <stop offset="0" stop-color="#967028" />
            <stop offset=".4" stop-color="#f4e5a0" />
            <stop offset=".5" stop-color="#f4e5a0" />
            <stop offset="1" stop-color="#775928" />
        </linearGradient>
    </defs>
    <path
        d="M60.07 56.64c-.65 6.63 5.93 12.88 6.83 13.61 6.64 5.42 11.75 6 16.81 6 7.55-.21 11.56-3.75 13.9-5.17-1.34.67-8.44 2.65-13.79.81C74.35 68.35 71.26 60 70.07 57.17c-.43-1-1.77-3.9-3.95-4.45a6.67 6.67 0 0 0-1.57-.21 4.57 4.57 0 0 0-4.48 4.13ZM79.64.18l.68.16a36.85 36.85 0 0 1 13.25 6.54 38.24 38.24 0 0 1 12.63 20.63c.41 1.81 2.08 8.06-1.39 11.24 0 0 .72 2.69 2.65 2.85a3 3 0 0 0 3.31-2.28c.69-1.83.26-4.63 0-6.49a48.06 48.06 0 0 0-8.3-19.06 36.71 36.71 0 0 0-13-10.41 50.58 50.58 0 0 0-9.12-3Zm14 10.93a31.59 31.59 0 0 1 6.25 11.71c.51 1.8 2.1 8.54-3.51 10.56.47 2.52 1.62 5.2 4.45 5.47a4.25 4.25 0 0 0 4.42-2.85c.91-2 .67-5.36-.18-8.56C99.61 6.84 84.58 1.57 76 0c11.43 3.05 16.54 9.74 17.68 11.11ZM72.69.34h-.06A30.92 30.92 0 0 0 68 .82c10-.22 14.34 3.8 15.6 4.6 1.69 1.07 8.35 6.82 9.13 13.74.13 1.16.49 5.44-3.51 7.17A10.51 10.51 0 0 0 90.77 30a4.64 4.64 0 0 0 4.76 2.22c1.35-.23 3.55-1.18 3.94-4.81.26-2.5-1.08-9-7.33-16.64a30 30 0 0 0-9.46-7.44 32.55 32.55 0 0 0-5.56-2.26 13.46 13.46 0 0 0-4.43-.73Zm23.5 6.07A36.6 36.6 0 0 1 107.06 19c3.54 7.1 5 13.13 5.14 18.28.4.63 1.33.62 1.92-.16s.51-2.3.4-3.25a34.76 34.76 0 0 0-2.06-8.29 42.39 42.39 0 0 0-12.07-17.21A43.26 43.26 0 0 0 92 3.23 38.45 38.45 0 0 0 83.44.51a40 40 0 0 1 12.75 5.9ZM40.88 38.55c-.69 1.83-.26 4.62 0 6.49a48.06 48.06 0 0 0 8.3 19.06A36.71 36.71 0 0 0 62.2 74.51a50.69 50.69 0 0 0 9.1 3A36.87 36.87 0 0 1 58.08 71a38.3 38.3 0 0 1-12.64-20.65c-.41-1.8-2.07-8.05 1.39-11.23 0 0-.7-2.69-2.64-2.85h-.37a3 3 0 0 0-2.94 2.28Zm-3.36 2.18c-.6.79-.5 2.3-.39 3.25a34.64 34.64 0 0 0 2.06 8.28A42.27 42.27 0 0 0 51.25 69.5a43.78 43.78 0 0 0 8.39 5.14 38.45 38.45 0 0 0 8.57 2.72 39.9 39.9 0 0 1-12.76-5.91 36.5 36.5 0 0 1-10.86-12.61c-3.53-7.09-5-13.12-5.14-18.27a.94.94 0 0 0-.82-.45 1.41 1.41 0 0 0-1.11.61ZM50.42 39a4.28 4.28 0 0 0-4 2.85c-.91 2-.67 5.37.18 8.57C52 71 67.07 76.3 75.63 77.87 64.22 74.82 59.11 68.12 58 66.76A31.77 31.77 0 0 1 51.72 55c-.51-1.79-2.1-8.53 3.51-10.55-.47-2.45-1.62-5.17-4.45-5.45a2.11 2.11 0 0 0-.36 0Zm3.33-32.07c3.8-1.92 10-2.5 14.09-1 9.49 3.5 12.55 11.91 13.74 14.77.43 1 1.78 3.9 4 4.45a4.59 4.59 0 0 0 6-3.92c.65-6.63-5.94-12.89-6.83-13.62C78.12 2.2 73 1.65 68 1.65c-8.11 0-11.69 3.99-14.25 5.28ZM57 45.53a5.84 5.84 0 0 0-.81.08c-1.35.23-3.48 1.21-3.86 4.85C52 53 53 59.31 59.3 66.9a31.14 31.14 0 0 0 9.7 7.59 32.23 32.23 0 0 0 5.56 2.27c2.82.9 4.55 1 9.14.29-10 .22-14.34-3.8-15.6-4.6-1.69-1.08-8.35-6.82-9.13-13.74-.14-1.16-.49-5.44 3.51-7.18a10.53 10.53 0 0 0-1.52-3.79A4.66 4.66 0 0 0 57 45.53Z"
        fill="url(#linear-gradient)" fill-rule="evenodd" />
    <path fill="currentColor" fill-rule="evenodd"
        d="M68.2 38.86V39a7.63 7.63 0 0 0 15.25 0 7.7 7.7 0 0 0 0-.83 7.63 7.63 0 0 0-15.15 0c-.08.19-.09.44-.1.69Zm13.8-.47v-.74a6.71 6.71 0 0 0-1.16-3.07 6.62 6.62 0 0 1 1.74 3.81 4.68 4.68 0 0 1 0 .74 6.84 6.84 0 0 1-12.51 3.76A6.84 6.84 0 0 0 82 38.39ZM69.21 77.69l-.73-.17ZM22.06 98.89v.89c2.85.14 2.82.35 2.82 2.66v10.64a7 7 0 0 0 .75 3.88c1.42 2.63 4.67 3 7.38 3a14.33 14.33 0 0 0 4-.61 6.86 6.86 0 0 0 3.1-2.35 7.64 7.64 0 0 0 1.31-4.32v-10.89c0-1.72.56-2 2.44-2h.47v-.89c-1.15.1-2.33.1-3.53.1s-2.37-.06-3.57-.15v.89h.47c1.82 0 2.35.26 2.35 2v9.4a8.75 8.75 0 0 1-1.19 4.94c-1.07 1.57-3.23 2-5.06 2-3.89 0-6.27-1.21-6.09-5.41v-10.23c0-2.31 0-2.52 2.83-2.66v-.89c-1.43.09-2.83.15-4.28.15s-2.86-.04-4.2-.15ZM44.53 109.15c0 7 5.46 10.85 12 10.85a15.7 15.7 0 0 0 6.72-1.75l.6-1.32-.27-.3a11 11 0 0 1-6 1.86c-6 0-9.84-4.08-9.84-10 0-5.34 3.38-8.81 8.29-8.81a10.4 10.4 0 0 1 4.8 1.1l.14.08.14.1a.73.73 0 0 1 .28.79.63.63 0 0 1-.73.35.64.64 0 0 1-.51-.49 1.76 1.76 0 0 0 1 3 2.13 2.13 0 0 0 2.26-1 3 3 0 0 0 .25-1.78A3.23 3.23 0 0 0 62 99.65c-.21-.11-.43-.22-.66-.32a7.62 7.62 0 0 0-1.1-.33 9.87 9.87 0 0 0-1.28-.3 19.72 19.72 0 0 0-3-.24c-5.88-.02-11.43 3.83-11.43 10.69Zm18.16-7.52c.5 2.4-1.89 2.7-2.23 1.42a1.13 1.13 0 0 0 .69.24 1.75 1.75 0 0 0 1.54-1.66ZM65.72 98.89v.89c2.86.14 2.83.35 2.83 2.66V116c0 2.3 0 2.51-2.83 2.66v.88a62.17 62.17 0 0 1 8.48 0v-.88c-2.86-.15-2.83-.36-2.83-2.66v-13.56c0-2.31 0-2.52 2.83-2.66v-.89c-1.43.09-2.83.15-4.29.15s-2.85-.04-4.19-.15ZM75.41 118.67v.89a42.38 42.38 0 0 1 6.84 0v-.89c-1.07-.14-2.53 0-2.53-1a34 34 0 0 1 2-5h8.44L92 117c.23.54.21 1-.21 1.21a5 5 0 0 1-2.23.42v.89a57.44 57.44 0 0 1 7.95 0v-.89a2.75 2.75 0 0 1-1.64-.5 7.26 7.26 0 0 1-1.51-2.63l-7.23-16.79h-.95c-.78 2.13-1.76 4.29-2.71 6.39l-4 8.93-1.46 3c-.72 1.58-.93 1.32-2.6 1.64Zm10.65-16.27 3.71 8.81h-7.43ZM98.42 118.68v.88a45.65 45.65 0 0 1 7.11 0v-.88h-.47c-1.88 0-2.45-.26-2.45-2v-14.45L117 119.59l2.35.41-.09-1.09v-17.12c0-1.72.57-2 2.44-2h.47v-.89a45.65 45.65 0 0 1-7.1 0v.89h.48c1.81 0 2.34.26 2.34 2v14.69l-14-17.59a22.18 22.18 0 0 1-5.15 0v.89h.42c1.67 0 2.14.29 2.14 2v14.87c0 1.72-.53 2-2.34 2ZM123.47 109.08v.07C123.49 115.87 128 120 134 120a11.35 11.35 0 0 0 11.5-11.44c0-6.57-4.52-10.12-10.88-10.12h-.19c-6.74 0-10.94 4.68-10.96 10.64Zm3.18-.93c0-4.85 2.34-8.43 7.52-8.43 5.53 0 8.18 3.9 8.18 9.75 0 5.45-2.41 8.94-7.38 9.26-5.88 0-8.32-5.41-8.32-10.58ZM8.38 99c-1.46 0-2.86-.06-4.2-.15H3.8a3.09 3.09 0 0 0-2.86 2.16 3.2 3.2 0 0 0 0 1.69 2.13 2.13 0 0 0 2 1.54 1.76 1.76 0 0 0 1.5-2.75.66.66 0 0 1-.6.39.59.59 0 0 1-.55-.51.74.74 0 0 1 .33-.7 2.39 2.39 0 0 1 1.61-.32l1.12.06.53.06a4.7 4.7 0 0 1 .12 1.97v12.77c0 2.37-.2 3.23-1.6 3.47v.88c1.73-.09 3.39-.15 5.12-.15h5.66c1.24 0 2.12-.09 2.12-.09.18 0 .65-.08 1-.16a3.07 3.07 0 0 0 2.41-2.65 3.46 3.46 0 0 0-.29-1.67 2.17 2.17 0 0 0-2.22-1.14 1.76 1.76 0 0 0-1 3 .68.68 0 0 1 .51-.5.61.61 0 0 1 .69.34.85.85 0 0 1-.24.8 2.35 2.35 0 0 1-1.51.62c-.36.06-.72.1-1.12.15s-1.41.08-1.41.08h-1a40.23 40.23 0 0 1-4.19-.14l-.1-1.05v-14.56c0-2.31 0-2.51 2.83-2.66v-.89c-1.43.11-2.83.11-4.28.11Zm-6.51 2c-.21.85.72 2.4 1.93 1.82a1 1 0 0 1-.91.56c-.8.06-1.66-.78-1.02-2.32Zm18.94 14.82a2.88 2.88 0 0 1-.06.8 1.08 1.08 0 0 0 0-.3c-.21-.82-1.26-1.77-2.2-1.07.26-1.11 2.13-1.02 2.26.63Z" />
</svg>