<svg width="127" height="122" viewBox="0 0 127 122" fill="none" xmlns="http://www.w3.org/2000/svg">
<path opacity="0.14" d="M37.4724 80.2771C43.8057 80.2771 48.7317 82.2136 52.2502 86.0866C56.1206 89.9596 58.0558 94.8889 58.0558 100.874C58.0558 114.958 49.9632 122 33.7779 122C23.2223 122 14.9538 118.127 8.97226 110.381C2.99075 102.283 0 90.8398 0 76.0519C0 61.9683 3.16668 48.9409 9.50004 36.9697C15.8334 24.6465 25.1575 12.4993 37.4724 0.528163C37.8242 0.176054 38.352 0 39.0557 0C40.1113 0 40.9909 0.528142 41.6946 1.58443C42.3983 2.64071 42.3983 3.52094 41.6946 4.22512C24.4538 21.8297 15.8334 42.6032 15.8334 66.5455C15.8334 76.4041 17.5927 83.6219 21.1112 88.1991C24.2779 82.9178 29.7316 80.2771 37.4724 80.2771ZM106.417 80.2771C112.75 80.2771 117.676 82.2136 121.194 86.0866C125.065 89.9596 127 94.8889 127 100.874C127 114.958 118.907 122 102.722 122C92.1665 122 83.898 118.127 77.9165 110.381C71.935 102.283 68.9442 90.8398 68.9442 76.0519C68.9442 61.9683 72.1109 48.9409 78.4442 36.9697C84.7776 24.6465 94.1017 12.4993 106.417 0.528163C106.768 0.176054 107.296 0 108 0C109.055 0 109.935 0.528142 110.639 1.58443C111.343 2.64071 111.343 3.52094 110.639 4.22512C93.398 21.8297 84.7776 42.6032 84.7776 66.5455C84.7776 76.4041 86.5369 83.6219 90.0554 88.1991C93.2221 82.9178 98.6758 80.2771 106.417 80.2771Z" fill="#BB9B8C"/>
</svg>
