<svg width="135" height="17" viewBox="0 0 135 17" fill="none" xmlns="http://www.w3.org/2000/svg">
<rect x="8.71484" y="1.92627" width="9.49739" height="9.49739" transform="rotate(45 8.71484 1.92627)" stroke="#F4E5A0" stroke-width="2"/>
<rect width="109" height="16" transform="translate(25.3594 1)" fill="#F4E5A0"/>
<path d="M33.1794 12.12C32.1727 12.12 31.3394 11.7967 30.6794 11.15C30.026 10.4967 29.6994 9.67 29.6994 8.67C29.6994 7.67 30.026 6.84667 30.6794 6.2C31.3394 5.54667 32.1727 5.22 33.1794 5.22C34.1927 5.22 35.026 5.54333 35.6794 6.19C36.3394 6.83667 36.6694 7.66333 36.6694 8.67C36.6694 9.67667 36.3394 10.5033 35.6794 11.15C35.026 11.7967 34.1927 12.12 33.1794 12.12ZM31.7094 10.24C32.0827 10.6533 32.5727 10.86 33.1794 10.86C33.786 10.86 34.276 10.6533 34.6494 10.24C35.0227 9.82667 35.2094 9.30333 35.2094 8.67C35.2094 8.03667 35.0227 7.51333 34.6494 7.1C34.276 6.68667 33.786 6.48 33.1794 6.48C32.5727 6.48 32.0827 6.68667 31.7094 7.1C31.3427 7.51333 31.1594 8.03667 31.1594 8.67C31.1594 9.30333 31.3427 9.82667 31.7094 10.24ZM42.1917 12H40.7617V6.58H38.8117V5.33H44.1317V6.58H42.1917V12ZM51.562 12H46.842V5.33H51.562V6.58H48.262V7.99H51.492V9.24H48.262V10.75H51.562V12ZM54.0721 12.12V10.86C54.4321 10.86 54.7088 10.7167 54.9021 10.43C55.0954 10.1367 55.2421 9.57333 55.3421 8.74L55.7321 5.33H60.4721V12H59.0421V6.58H57.0121L56.7521 8.84C56.6721 9.51333 56.5521 10.0733 56.3921 10.52C56.2388 10.96 56.0388 11.2933 55.7921 11.52C55.5521 11.7467 55.2988 11.9033 55.0321 11.99C54.7654 12.0767 54.4454 12.12 54.0721 12.12ZM63.5866 5.33H65.0066V7.7H66.7066C67.3999 7.7 67.9466 7.90667 68.3466 8.32C68.7466 8.73333 68.9466 9.24333 68.9466 9.85C68.9466 10.4633 68.7466 10.9767 68.3466 11.39C67.9532 11.7967 67.4066 12 66.7066 12H63.5866V5.33ZM66.5166 8.95H65.0066V10.75H66.5166C66.8032 10.75 67.0366 10.67 67.2166 10.51C67.4032 10.3433 67.4966 10.1233 67.4966 9.85C67.4966 9.57667 67.4032 9.36 67.2166 9.2C67.0366 9.03333 66.8032 8.95 66.5166 8.95ZM80.2254 12H75.9854V5.33H77.4054V10.75H80.2254V12ZM88.0256 11.37C87.519 11.87 86.7723 12.12 85.7856 12.12C84.799 12.12 84.049 11.87 83.5356 11.37C83.029 10.8633 82.7756 10.1867 82.7756 9.34V5.33H84.2156V9.29C84.2156 9.77 84.3523 10.1533 84.6256 10.44C84.899 10.72 85.2856 10.86 85.7856 10.86C86.2856 10.86 86.669 10.72 86.9356 10.44C87.209 10.1533 87.3456 9.77 87.3456 9.29V5.33H88.7956V9.33C88.7956 10.19 88.539 10.87 88.0256 11.37ZM95.1396 12.12C94.1263 12.12 93.2796 11.8 92.5996 11.16C91.9263 10.5133 91.5896 9.68333 91.5896 8.67C91.5896 7.65667 91.9263 6.83 92.5996 6.19C93.2796 5.54333 94.1263 5.22 95.1396 5.22C96.3863 5.22 97.3163 5.76333 97.9296 6.85L96.7096 7.45C96.5629 7.17 96.3463 6.94 96.0596 6.76C95.7796 6.57333 95.4729 6.48 95.1396 6.48C94.5329 6.48 94.0329 6.68667 93.6396 7.1C93.2463 7.51333 93.0496 8.03667 93.0496 8.67C93.0496 9.30333 93.2463 9.82667 93.6396 10.24C94.0329 10.6533 94.5329 10.86 95.1396 10.86C95.4729 10.86 95.7796 10.77 96.0596 10.59C96.3463 10.41 96.5629 10.1767 96.7096 9.89L97.9296 10.48C97.2963 11.5733 96.3663 12.12 95.1396 12.12ZM101.995 12H100.575V5.33H101.995V12ZM111.339 12H109.719L109.309 10.87H106.449L106.029 12H104.409L106.989 5.33H108.769L111.339 12ZM108.919 9.62L107.879 6.75L106.839 9.62H108.919ZM119.725 12H118.355L115.175 7.65V12H113.755V5.33H115.215L118.305 9.52V5.33H119.725V12ZM126 12.12C124.993 12.12 124.16 11.7967 123.5 11.15C122.847 10.4967 122.52 9.67 122.52 8.67C122.52 7.67 122.847 6.84667 123.5 6.2C124.16 5.54667 124.993 5.22 126 5.22C127.013 5.22 127.847 5.54333 128.5 6.19C129.16 6.83667 129.49 7.66333 129.49 8.67C129.49 9.67667 129.16 10.5033 128.5 11.15C127.847 11.7967 127.013 12.12 126 12.12ZM124.53 10.24C124.903 10.6533 125.393 10.86 126 10.86C126.607 10.86 127.097 10.6533 127.47 10.24C127.843 9.82667 128.03 9.30333 128.03 8.67C128.03 8.03667 127.843 7.51333 127.47 7.1C127.097 6.68667 126.607 6.48 126 6.48C125.393 6.48 124.903 6.68667 124.53 7.1C124.163 7.51333 123.98 8.03667 123.98 8.67C123.98 9.30333 124.163 9.82667 124.53 10.24Z" fill="black"/>
</svg>
