<svg id="Layer_1" data-name="Layer 1" xmlns="http://www.w3.org/2000/svg" viewBox="0 0 189.36 29">
    <defs>
        <style>
            .cls-1 {
                fill: #bb9b8c;
            }

            .cls-2 {
                fill: #0e1d2b;
            }

            .cls-3 {
                fill: #fff;
            }
        </style>
    </defs>
    <rect class="cls-1" x="1.97" y="2.89" width="9.5" height="9.5" transform="translate(-3.44 6.99) rotate(-45)" />
    <rect class="cls-2" x="23.36" width="166" height="16" />
    <path class="cls-3"
        d="M34,11H32.59V8.2H29.44V11H28V4.33h1.42V7h3.15V4.33H34Zm9.33,0H41.73l-.41-1.13H38.46L38,11H36.42L39,4.33h1.78ZM40.93,8.62l-1-2.87-1,2.87Zm4.84-4.29h4.87V5.58H47.19V6.76h1.73a2.12,2.12,0,1,1,0,4.24H45.77Zm3,3.68H47.19V9.75h1.54a1,1,0,0,0,.68-.24.8.8,0,0,0,.27-.63.77.77,0,0,0-.27-.63A1,1,0,0,0,48.73,8Zm9.8,3H53.81V4.33h4.72V5.58h-3.3V7h3.23V8.24H55.23V9.75h3.3Zm4.33,0H61.44V4.33h3.12A2.16,2.16,0,0,1,66.2,5a2.1,2.1,0,0,1,.6,1.53A2.1,2.1,0,0,1,66.2,8a2.19,2.19,0,0,1-1.64.62h-1.7Zm1.51-3.62a1,1,0,0,0,.7-.24.84.84,0,0,0,.28-.66.81.81,0,0,0-.28-.65,1,1,0,0,0-.7-.25H62.86v1.8ZM74.2,11H69.48V4.33H74.2V5.58H70.9V7h3.23V8.24H70.9V9.75h3.3Zm4,0H76.45l2.82-3.54L76.62,4.33h1.75L80.49,7V4.33h1.43V7L84,4.33h1.76L83.14,7.46,86,11H84.22l-2-2.67-.28.34V11H80.49V8.67l-.28-.34Zm16.23,0H93V8.2H89.84V11H88.42V4.33h1.42V7H93V4.33h1.43Zm9.34,0h-1.62l-.41-1.13H98.87L98.45,11H96.83l2.58-6.67h1.78Zm-2.42-2.38-1-2.87-1,2.87ZM107.51,11h-1.63l1.5-2.54a1.9,1.9,0,0,1-1-.65,2,2,0,0,1-.42-1.33,2.1,2.1,0,0,1,.6-1.55,2.25,2.25,0,0,1,1.64-.6h3.12V11h-1.42V8.63h-1Zm.86-3.62h1.49V5.58h-1.49a1,1,0,0,0-.72.25.84.84,0,0,0-.28.65.87.87,0,0,0,.28.66A1.08,1.08,0,0,0,108.37,7.38Zm13.55,3.74a3.41,3.41,0,0,1-2.5-1,3.33,3.33,0,0,1-1-2.48,3.31,3.31,0,0,1,1-2.47,3.69,3.69,0,0,1,5,0,3.32,3.32,0,0,1,1,2.48,3.32,3.32,0,0,1-1,2.48A3.41,3.41,0,0,1,121.92,11.12Zm-1.47-1.88a1.89,1.89,0,0,0,1.47.62,1.92,1.92,0,0,0,1.47-.62A2.27,2.27,0,0,0,124,7.67a2.27,2.27,0,0,0-.56-1.57,1.92,1.92,0,0,0-1.47-.62,1.89,1.89,0,0,0-1.47.62,2.26,2.26,0,0,0-.55,1.57A2.26,2.26,0,0,0,120.45,9.24Zm10,1.88a4.34,4.34,0,0,1-1.63-.3,2.82,2.82,0,0,1-1.12-.77l.74-1a2.42,2.42,0,0,0,.88.56,3.3,3.3,0,0,0,1.07.2,1.93,1.93,0,0,0,1-.23.71.71,0,0,0,.37-.62c0-.51-.49-.77-1.47-.77H129V7h1.35a2.24,2.24,0,0,0,1-.18.57.57,0,0,0,.37-.53.62.62,0,0,0-.38-.58,2,2,0,0,0-1-.21,2.52,2.52,0,0,0-1.81.69l-.71-.89a2.94,2.94,0,0,1,1.11-.77,4.11,4.11,0,0,1,1.55-.29,3.32,3.32,0,0,1,1.91.49A1.52,1.52,0,0,1,133.13,6a1.32,1.32,0,0,1-.43,1,1.91,1.91,0,0,1-1,.51,1.82,1.82,0,0,1,1.06.49,1.38,1.38,0,0,1,.49,1.11,1.66,1.66,0,0,1-.77,1.41A3.28,3.28,0,0,1,130.49,11.12Zm6.81-.25a.8.8,0,1,1,.24-.57A.78.78,0,0,1,137.3,10.87Zm13.23.13h-1.75l-2-2.67-.52.62V11h-1.42V4.33h1.42v3l2.36-3h1.75L147.7,7.46Zm8.67,0h-1.62l-.41-1.13h-2.86L153.89,11h-1.62l2.58-6.67h1.78Zm-2.42-2.38-1-2.87-1,2.87Zm4.84-4.29h4.87V5.58H163V6.76h1.73a2.16,2.16,0,0,1,1.62.61A2.11,2.11,0,0,1,167,8.88a2.11,2.11,0,0,1-.59,1.51,2.16,2.16,0,0,1-1.62.61h-3.15Zm3,3.68H163V9.75h1.54a1,1,0,0,0,.68-.24.8.8,0,0,0,.27-.63.77.77,0,0,0-.27-.63A1,1,0,0,0,164.58,8Zm11.3,3h-1.62l-.41-1.13H171L170.57,11H169l2.58-6.67h1.78Zm-2.42-2.38-1-2.87-1,2.87ZM184.29,11h-1.43V8.2h-3.15V11h-1.42V4.33h1.42V7h3.15V4.33h1.43Z" />
    <rect class="cls-3" x="23.36" y="16" width="98" height="13" />
    <path
        d="M29.06,25h-.73l2.15-4.74H27.61v-.6h3.64v.46Zm13.21,0H41.6V20.61L39.79,25h-.27l-1.81-4.39V25H37V19.66h1l1.65,4,1.67-4h1Zm3.32,0H45V19.66h.67v4.17l3.07-4.17h.68V25H48.7V20.74ZM56.5,25h-.66V22.55H52.72V25h-.66V19.66h.66V22h3.12v-2.3h.66Zm3.23.1a1.54,1.54,0,0,1-.61-.12,1.11,1.11,0,0,1-.43-.31l.28-.53a1,1,0,0,0,.73.36.68.68,0,0,0,.48-.16,2,2,0,0,0,.41-.6l.1-.18-2-3.9h.76L61.07,23l1.67-3.31h.76l-2.32,4.4a2.57,2.57,0,0,1-.6.78A1.35,1.35,0,0,1,59.73,25.1Zm7.89-.1H67V20.26H65.27v-.6h4v.6h-1.7Zm12,0h-.66V20.26H75.81V25h-.67V19.66h4.45Zm6.19,0h-3.5V19.66h3.5v.6H82.94V22h2.78v.59H82.94v1.84h2.84ZM94,19.66h.66V25H88.27V19.66h.67v4.75h2.21V19.66h.67v4.75H94Zm7.4,5.34h-.83l-2-2.4-.54.61V25h-.66V19.66H98v2.76l2.36-2.76h.83L99,22.2Zm4.2.1a2.52,2.52,0,0,1-1.92-.79,3,3,0,0,1,0-3.95,2.73,2.73,0,0,1,3.82,0,3,3,0,0,1,0,3.95A2.51,2.51,0,0,1,105.63,25.1Zm0-.6a1.81,1.81,0,0,0,1.41-.6,2.28,2.28,0,0,0,.55-1.56,2.25,2.25,0,0,0-.55-1.56,2,2,0,0,0-2.84,0,2.24,2.24,0,0,0-.53,1.56,2.27,2.27,0,0,0,.53,1.56A1.82,1.82,0,0,0,105.63,24.5ZM116,25h-.66V20.61L113.49,25h-.27l-1.81-4.39V25h-.66V19.66h1l1.66,4,1.66-4h1Z" />
</svg>