<svg width="164" height="29" viewBox="0 0 164 29" fill="none" xmlns="http://www.w3.org/2000/svg">
    <rect x="6.71484" y="0.92627" width="9.49739" height="9.49739" transform="rotate(45 6.71484 0.92627)"
        fill="#BB9B8C" />
    <rect width="140" height="16" transform="translate(23.3594)" fill="#0E1D2B" />
    <path
        d="M33.7294 11H31.9794L29.9594 8.33L29.4394 8.95V11H28.0194V4.33H29.4394V7.31L31.7994 4.33H33.5494L30.8994 7.46L33.7294 11ZM42.3968 11H40.7768L40.3668 9.87H37.5068L37.0868 11H35.4668L38.0468 4.33H39.8268L42.3968 11ZM39.9768 8.62L38.9368 5.75L37.8968 8.62H39.9768ZM47.0344 11.12C46.441 11.12 45.8977 11.02 45.4044 10.82C44.911 10.62 44.5377 10.3633 44.2844 10.05L45.0244 9.1C45.2444 9.33333 45.5377 9.52 45.9044 9.66C46.2777 9.79333 46.6344 9.86 46.9744 9.86C47.4077 9.86 47.7477 9.78333 47.9944 9.63C48.241 9.47 48.3644 9.26333 48.3644 9.01C48.3644 8.49667 47.8744 8.24 46.8944 8.24H45.5444V6.99H46.8944C47.3077 6.99 47.6377 6.93 47.8844 6.81C48.131 6.69 48.2544 6.51333 48.2544 6.28C48.2544 6.02667 48.1277 5.83333 47.8744 5.7C47.621 5.56 47.2944 5.49 46.8944 5.49C46.1677 5.49 45.5644 5.72 45.0844 6.18L44.3744 5.29C44.6544 4.97 45.0244 4.71333 45.4844 4.52C45.951 4.32667 46.4677 4.23 47.0344 4.23C47.821 4.23 48.4577 4.39333 48.9444 4.72C49.431 5.04667 49.6744 5.48667 49.6744 6.04C49.6744 6.44 49.531 6.77667 49.2444 7.05C48.9577 7.31667 48.6177 7.48667 48.2244 7.56C48.611 7.6 48.9644 7.76333 49.2844 8.05C49.611 8.33 49.7744 8.7 49.7744 9.16C49.7744 9.73333 49.5177 10.2033 49.0044 10.57C48.491 10.9367 47.8344 11.12 47.0344 11.12ZM58.8679 11H57.2479L56.8379 9.87H53.9779L53.5579 11H51.9379L54.5179 4.33H56.2979L58.8679 11ZM56.4479 8.62L55.4079 5.75L54.3679 8.62H56.4479ZM67.2838 11H65.8538V8.2H62.7038V11H61.2838V4.33H62.7038V6.95H65.8538V4.33H67.2838V11ZM73.6283 11.12C72.6149 11.12 71.7683 10.8 71.0883 10.16C70.4149 9.51333 70.0783 8.68333 70.0783 7.67C70.0783 6.65667 70.4149 5.83 71.0883 5.19C71.7683 4.54333 72.6149 4.22 73.6283 4.22C74.8749 4.22 75.8049 4.76333 76.4183 5.85L75.1983 6.45C75.0516 6.17 74.8349 5.94 74.5483 5.76C74.2683 5.57333 73.9616 5.48 73.6283 5.48C73.0216 5.48 72.5216 5.68667 72.1283 6.1C71.7349 6.51333 71.5383 7.03667 71.5383 7.67C71.5383 8.30333 71.7349 8.82667 72.1283 9.24C72.5216 9.65333 73.0216 9.86 73.6283 9.86C73.9616 9.86 74.2683 9.77 74.5483 9.59C74.8349 9.41 75.0516 9.17667 75.1983 8.89L76.4183 9.48C75.7849 10.5733 74.8549 11.12 73.6283 11.12ZM84.7735 11H83.0235L81.0035 8.33L80.4835 8.95V11H79.0635V4.33H80.4835V7.31L82.8435 4.33H84.5935L81.9435 7.46L84.7735 11ZM88.5909 11H87.2209V4.33H88.6409V8.64L91.7309 4.33H93.1909V11H91.7709V6.53L88.5909 11ZM97.6761 11H96.3061V4.33H97.7261V8.64L100.816 4.33H102.276V11H100.856V6.53L97.6761 11ZM101.046 3.14C100.613 3.72667 100.029 4.02 99.2961 4.02C98.5694 4.02 97.9828 3.72667 97.5361 3.14L98.0961 2.67C98.3894 3.08333 98.7894 3.29 99.2961 3.29C99.7894 3.29 100.186 3.08333 100.486 2.67L101.046 3.14ZM115.46 11H113.71L111.69 8.33L111.17 8.95V11H109.75V4.33H111.17V7.31L113.53 4.33H115.28L112.63 7.46L115.46 11ZM119.327 11H117.907V4.33H121.027C121.727 4.33 122.274 4.53667 122.667 4.95C123.067 5.35667 123.267 5.86667 123.267 6.48C123.267 7.08667 123.067 7.59667 122.667 8.01C122.267 8.42333 121.721 8.63 121.027 8.63H119.327V11ZM120.837 7.38C121.124 7.38 121.357 7.3 121.537 7.14C121.724 6.97333 121.817 6.75333 121.817 6.48C121.817 6.20667 121.724 5.99 121.537 5.83C121.357 5.66333 121.124 5.58 120.837 5.58H119.327V7.38H120.837ZM130.667 11H125.947V4.33H130.667V5.58H127.367V6.99H130.597V8.24H127.367V9.75H130.667V11ZM140.808 11H139.378V6.33L137.498 11H136.878L134.998 6.33V11H133.578V4.33H135.568L137.188 8.36L138.808 4.33H140.808V11ZM143.532 11.12V9.86C143.892 9.86 144.169 9.71667 144.362 9.43C144.556 9.13667 144.702 8.57333 144.802 7.74L145.192 4.33H149.932V11H148.502V5.58H146.472L146.212 7.84C146.132 8.51333 146.012 9.07333 145.852 9.52C145.699 9.96 145.499 10.2933 145.252 10.52C145.012 10.7467 144.759 10.9033 144.492 10.99C144.226 11.0767 143.906 11.12 143.532 11.12ZM153.047 4.33H154.467V6.7H156.167C156.86 6.7 157.407 6.90667 157.807 7.32C158.207 7.73333 158.407 8.24333 158.407 8.85C158.407 9.46333 158.207 9.97667 157.807 10.39C157.413 10.7967 156.867 11 156.167 11H153.047V4.33ZM155.977 7.95H154.467V9.75H155.977C156.263 9.75 156.497 9.67 156.677 9.51C156.863 9.34333 156.957 9.12333 156.957 8.85C156.957 8.57667 156.863 8.36 156.677 8.2C156.497 8.03333 156.263 7.95 155.977 7.95Z"
        fill="white" />
    <rect width="105" height="13" transform="translate(23.3594 16)" fill="white" />
    <path
        d="M31.4554 25H27.7914V24.472C28.346 24.0347 28.7754 23.688 29.0794 23.432C29.3887 23.1707 29.6847 22.896 29.9674 22.608C30.2554 22.3147 30.458 22.056 30.5754 21.832C30.6927 21.6027 30.7514 21.376 30.7514 21.152C30.7514 20.832 30.642 20.5893 30.4234 20.424C30.2047 20.2587 29.9434 20.176 29.6394 20.176C29.026 20.176 28.5434 20.4 28.1914 20.848L27.7834 20.424C27.986 20.1573 28.25 19.952 28.5754 19.808C28.906 19.6587 29.2607 19.584 29.6394 19.584C30.1247 19.584 30.5434 19.72 30.8954 19.992C31.2527 20.264 31.4314 20.6507 31.4314 21.152C31.4314 21.648 31.218 22.144 30.7914 22.64C30.3647 23.1307 29.714 23.72 28.8394 24.408H31.4554V25ZM35.9505 25.096C35.5985 25.096 35.2865 25.016 35.0145 24.856C34.7478 24.6907 34.5345 24.472 34.3745 24.2C34.2198 23.928 34.1025 23.6347 34.0225 23.32C33.9478 23.0053 33.9105 22.6773 33.9105 22.336C33.9105 21.9947 33.9478 21.6667 34.0225 21.352C34.1025 21.0373 34.2198 20.7467 34.3745 20.48C34.5345 20.208 34.7478 19.992 35.0145 19.832C35.2865 19.6667 35.5985 19.584 35.9505 19.584C36.2972 19.584 36.6065 19.6667 36.8785 19.832C37.1505 19.992 37.3638 20.208 37.5185 20.48C37.6785 20.7467 37.7958 21.0373 37.8705 21.352C37.9505 21.6667 37.9905 21.9947 37.9905 22.336C37.9905 22.6773 37.9505 23.0053 37.8705 23.32C37.7958 23.6347 37.6785 23.928 37.5185 24.2C37.3638 24.472 37.1505 24.6907 36.8785 24.856C36.6065 25.016 36.2972 25.096 35.9505 25.096ZM35.1505 24.176C35.3638 24.3947 35.6305 24.504 35.9505 24.504C36.2705 24.504 36.5372 24.3947 36.7505 24.176C36.9638 23.952 37.1105 23.6853 37.1905 23.376C37.2705 23.0667 37.3105 22.72 37.3105 22.336C37.3105 21.952 37.2705 21.6053 37.1905 21.296C37.1105 20.9867 36.9638 20.7227 36.7505 20.504C36.5372 20.2853 36.2705 20.176 35.9505 20.176C35.6305 20.176 35.3638 20.2853 35.1505 20.504C34.9372 20.7227 34.7905 20.9867 34.7105 21.296C34.6305 21.6053 34.5905 21.952 34.5905 22.336C34.5905 22.72 34.6305 23.0667 34.7105 23.376C34.7905 23.6853 34.9372 23.952 35.1505 24.176ZM49.1914 25H48.5274V20.608L46.7114 25H46.4394L44.6314 20.608V25H43.9674V19.664H44.9194L46.5754 23.68L48.2394 19.664H49.1914V25ZM52.5162 25H51.8762V19.664H52.5402V23.832L55.6122 19.664H56.2922V25H55.6282V20.744L52.5162 25ZM63.4283 25H62.7643V22.552H59.6443V25H58.9803V19.664H59.6443V21.96H62.7643V19.664H63.4283V25ZM66.6516 25.096C66.4329 25.096 66.2302 25.056 66.0436 24.976C65.8569 24.896 65.7129 24.7947 65.6116 24.672L65.8916 24.144C66.1209 24.384 66.3636 24.504 66.6196 24.504C66.8222 24.504 66.9822 24.4507 67.0996 24.344C67.2222 24.2373 67.3609 24.0373 67.5156 23.744L67.6116 23.56L65.5636 19.664H66.3236L67.9956 22.968L69.6676 19.664H70.4276L68.0996 24.056C67.9129 24.408 67.7129 24.6693 67.4996 24.84C67.2862 25.0107 67.0036 25.096 66.6516 25.096ZM74.5474 25H73.8834V20.256H72.1954V19.664H76.2434V20.256H74.5474V25ZM86.5164 25H85.8524V20.256H82.7324V25H82.0684V19.664H86.5164V25ZM92.6997 25H89.2037V19.664H92.6997V20.256H89.8677V21.976H92.6437V22.568H89.8677V24.408H92.6997V25ZM100.95 19.664H101.614V25H95.1984V19.664H95.8624V24.408H98.0784V19.664H98.7424V24.408H100.95V19.664ZM108.35 25H107.526L105.502 22.6L104.966 23.208V25H104.302V19.664H104.966V22.424L107.326 19.664H108.158L105.934 22.2L108.35 25ZM112.549 25.096C111.765 25.096 111.128 24.8347 110.637 24.312C110.147 23.7893 109.901 23.1307 109.901 22.336C109.901 21.5413 110.147 20.8827 110.637 20.36C111.128 19.8373 111.765 19.576 112.549 19.576C113.328 19.576 113.963 19.8373 114.453 20.36C114.949 20.8827 115.197 21.5413 115.197 22.336C115.197 23.1307 114.949 23.7893 114.453 24.312C113.963 24.8347 113.328 25.096 112.549 25.096ZM112.549 24.504C113.136 24.504 113.608 24.3013 113.965 23.896C114.328 23.4853 114.509 22.9653 114.509 22.336C114.509 21.7013 114.328 21.1813 113.965 20.776C113.608 20.3707 113.136 20.168 112.549 20.168C111.957 20.168 111.483 20.3707 111.125 20.776C110.768 21.1813 110.589 21.7013 110.589 22.336C110.589 22.9653 110.768 23.4853 111.125 23.896C111.483 24.3013 111.957 24.504 112.549 24.504ZM122.899 25H122.235V20.608L120.419 25H120.147L118.339 20.608V25H117.675V19.664H118.627L120.283 23.68L121.947 19.664H122.899V25Z"
        fill="black" />
</svg>