<svg width="198" height="29" viewBox="0 0 198 29" fill="none" xmlns="http://www.w3.org/2000/svg">
    <rect x="6.71484" y="0.92627" width="9.49739" height="9.49739" transform="rotate(45 6.71484 0.92627)"
        fill="#BB9B8C" />
    <rect width="174" height="16" transform="translate(23.3594)" fill="#0E1D2B" />
    <path
        d="M33.7294 11H31.9794L29.9594 8.33L29.4394 8.95V11H28.0194V4.33H29.4394V7.31L31.7994 4.33H33.5494L30.8994 7.46L33.7294 11ZM42.3968 11H40.7768L40.3668 9.87H37.5068L37.0868 11H35.4668L38.0468 4.33H39.8268L42.3968 11ZM39.9768 8.62L38.9368 5.75L37.8968 8.62H39.9768ZM47.0344 11.12C46.441 11.12 45.8977 11.02 45.4044 10.82C44.911 10.62 44.5377 10.3633 44.2844 10.05L45.0244 9.1C45.2444 9.33333 45.5377 9.52 45.9044 9.66C46.2777 9.79333 46.6344 9.86 46.9744 9.86C47.4077 9.86 47.7477 9.78333 47.9944 9.63C48.241 9.47 48.3644 9.26333 48.3644 9.01C48.3644 8.49667 47.8744 8.24 46.8944 8.24H45.5444V6.99H46.8944C47.3077 6.99 47.6377 6.93 47.8844 6.81C48.131 6.69 48.2544 6.51333 48.2544 6.28C48.2544 6.02667 48.1277 5.83333 47.8744 5.7C47.621 5.56 47.2944 5.49 46.8944 5.49C46.1677 5.49 45.5644 5.72 45.0844 6.18L44.3744 5.29C44.6544 4.97 45.0244 4.71333 45.4844 4.52C45.951 4.32667 46.4677 4.23 47.0344 4.23C47.821 4.23 48.4577 4.39333 48.9444 4.72C49.431 5.04667 49.6744 5.48667 49.6744 6.04C49.6744 6.44 49.531 6.77667 49.2444 7.05C48.9577 7.31667 48.6177 7.48667 48.2244 7.56C48.611 7.6 48.9644 7.76333 49.2844 8.05C49.611 8.33 49.7744 8.7 49.7744 9.16C49.7744 9.73333 49.5177 10.2033 49.0044 10.57C48.491 10.9367 47.8344 11.12 47.0344 11.12ZM58.8679 11H57.2479L56.8379 9.87H53.9779L53.5579 11H51.9379L54.5179 4.33H56.2979L58.8679 11ZM56.4479 8.62L55.4079 5.75L54.3679 8.62H56.4479ZM67.2838 11H65.8538V8.2H62.7038V11H61.2838V4.33H62.7038V6.95H65.8538V4.33H67.2838V11ZM73.6283 11.12C72.6149 11.12 71.7683 10.8 71.0883 10.16C70.4149 9.51333 70.0783 8.68333 70.0783 7.67C70.0783 6.65667 70.4149 5.83 71.0883 5.19C71.7683 4.54333 72.6149 4.22 73.6283 4.22C74.8749 4.22 75.8049 4.76333 76.4183 5.85L75.1983 6.45C75.0516 6.17 74.8349 5.94 74.5483 5.76C74.2683 5.57333 73.9616 5.48 73.6283 5.48C73.0216 5.48 72.5216 5.68667 72.1283 6.1C71.7349 6.51333 71.5383 7.03667 71.5383 7.67C71.5383 8.30333 71.7349 8.82667 72.1283 9.24C72.5216 9.65333 73.0216 9.86 73.6283 9.86C73.9616 9.86 74.2683 9.77 74.5483 9.59C74.8349 9.41 75.0516 9.17667 75.1983 8.89L76.4183 9.48C75.7849 10.5733 74.8549 11.12 73.6283 11.12ZM84.7735 11H83.0235L81.0035 8.33L80.4835 8.95V11H79.0635V4.33H80.4835V7.31L82.8435 4.33H84.5935L81.9435 7.46L84.7735 11ZM93.4409 11H91.8209L91.4109 9.87H88.5509L88.1309 11H86.5109L89.0909 4.33H90.8709L93.4409 11ZM91.0209 8.62L89.9809 5.75L88.9409 8.62H91.0209ZM97.1969 11H95.5669L97.0669 8.46C96.6602 8.36667 96.3135 8.15 96.0269 7.81C95.7469 7.47 95.6069 7.02667 95.6069 6.48C95.6069 5.84667 95.8069 5.33 96.2069 4.93C96.6135 4.53 97.1602 4.33 97.8469 4.33H100.967V11H99.5469V8.63H98.5169L97.1969 11ZM98.0569 7.38H99.5469V5.58H98.0569C97.7635 5.58 97.5235 5.66333 97.3369 5.83C97.1502 5.99 97.0569 6.20667 97.0569 6.48C97.0569 6.75333 97.1502 6.97333 97.3369 7.14C97.5235 7.3 97.7635 7.38 98.0569 7.38ZM114.441 11H113.011V8.2H109.861V11H108.441V4.33H109.861V6.95H113.011V4.33H114.441V11ZM123.776 11H122.156L121.746 9.87H118.886L118.466 11H116.846L119.426 4.33H121.206L123.776 11ZM121.356 8.62L120.316 5.75L119.276 8.62H121.356ZM126.192 4.33H131.062V5.58H127.612V6.76H129.342C130.028 6.76 130.568 6.96333 130.962 7.37C131.355 7.77667 131.552 8.28 131.552 8.88C131.552 9.48 131.355 9.98333 130.962 10.39C130.568 10.7967 130.028 11 129.342 11H126.192V4.33ZM129.152 8.01H127.612V9.75H129.152C129.432 9.75 129.658 9.67 129.832 9.51C130.012 9.35 130.102 9.14 130.102 8.88C130.102 8.61333 130.012 8.40333 129.832 8.25C129.658 8.09 129.432 8.01 129.152 8.01ZM138.952 11H134.232V4.33H138.952V5.58H135.652V6.99H138.882V8.24H135.652V9.75H138.952V11ZM143.282 11H141.862V4.33H144.982C145.682 4.33 146.229 4.53667 146.622 4.95C147.022 5.35667 147.222 5.86667 147.222 6.48C147.222 7.08667 147.022 7.59667 146.622 8.01C146.222 8.42333 145.675 8.63 144.982 8.63H143.282V11ZM144.792 7.38C145.079 7.38 145.312 7.3 145.492 7.14C145.679 6.97333 145.772 6.75333 145.772 6.48C145.772 6.20667 145.679 5.99 145.492 5.83C145.312 5.66333 145.079 5.58 144.792 5.58H143.282V7.38H144.792ZM154.622 11H149.902V4.33H154.622V5.58H151.322V6.99H154.552V8.24H151.322V9.75H154.622V11ZM158.612 11H156.872L159.692 7.46L157.042 4.33H158.792L160.912 7.01V4.33H162.342V7.01L164.452 4.33H166.212L163.562 7.46L166.382 11H164.642L162.622 8.33L162.342 8.67V11H160.912V8.67L160.632 8.33L158.612 11ZM174.844 11H173.414V8.2H170.264V11H168.844V4.33H170.264V6.95H173.414V4.33H174.844V11ZM184.178 11H182.558L182.148 9.87H179.288L178.868 11H177.248L179.828 4.33H181.608L184.178 11ZM181.758 8.62L180.718 5.75L179.678 8.62H181.758ZM187.934 11H186.304L187.804 8.46C187.398 8.36667 187.051 8.15 186.764 7.81C186.484 7.47 186.344 7.02667 186.344 6.48C186.344 5.84667 186.544 5.33 186.944 4.93C187.351 4.53 187.898 4.33 188.584 4.33H191.704V11H190.284V8.63H189.254L187.934 11ZM188.794 7.38H190.284V5.58H188.794C188.501 5.58 188.261 5.66333 188.074 5.83C187.888 5.99 187.794 6.20667 187.794 6.48C187.794 6.75333 187.888 6.97333 188.074 7.14C188.261 7.3 188.501 7.38 188.794 7.38Z"
        fill="white" />
    <rect width="103" height="13" transform="translate(23.3594 16)" fill="white" />
    <path
        d="M29.4474 25H28.7834V20.544L27.9274 21.448L27.5274 21.04L28.8634 19.664H29.4474V25ZM33.9583 25.096C33.6063 25.096 33.2943 25.016 33.0223 24.856C32.7556 24.6907 32.5423 24.472 32.3823 24.2C32.2276 23.928 32.1103 23.6347 32.0303 23.32C31.9556 23.0053 31.9183 22.6773 31.9183 22.336C31.9183 21.9947 31.9556 21.6667 32.0303 21.352C32.1103 21.0373 32.2276 20.7467 32.3823 20.48C32.5423 20.208 32.7556 19.992 33.0223 19.832C33.2943 19.6667 33.6063 19.584 33.9583 19.584C34.305 19.584 34.6143 19.6667 34.8863 19.832C35.1583 19.992 35.3716 20.208 35.5263 20.48C35.6863 20.7467 35.8036 21.0373 35.8783 21.352C35.9583 21.6667 35.9983 21.9947 35.9983 22.336C35.9983 22.6773 35.9583 23.0053 35.8783 23.32C35.8036 23.6347 35.6863 23.928 35.5263 24.2C35.3716 24.472 35.1583 24.6907 34.8863 24.856C34.6143 25.016 34.305 25.096 33.9583 25.096ZM33.1583 24.176C33.3716 24.3947 33.6383 24.504 33.9583 24.504C34.2783 24.504 34.545 24.3947 34.7583 24.176C34.9716 23.952 35.1183 23.6853 35.1983 23.376C35.2783 23.0667 35.3183 22.72 35.3183 22.336C35.3183 21.952 35.2783 21.6053 35.1983 21.296C35.1183 20.9867 34.9716 20.7227 34.7583 20.504C34.545 20.2853 34.2783 20.176 33.9583 20.176C33.6383 20.176 33.3716 20.2853 33.1583 20.504C32.945 20.7227 32.7983 20.9867 32.7183 21.296C32.6383 21.6053 32.5983 21.952 32.5983 22.336C32.5983 22.72 32.6383 23.0667 32.7183 23.376C32.7983 23.6853 32.945 23.952 33.1583 24.176ZM47.1992 25H46.5352V20.608L44.7192 25H44.4472L42.6392 20.608V25H41.9752V19.664H42.9272L44.5832 23.68L46.2473 19.664H47.1992V25ZM50.524 25H49.884V19.664H50.548V23.832L53.62 19.664H54.3V25H53.636V20.744L50.524 25ZM61.4361 25H60.7721V22.552H57.6521V25H56.9881V19.664H57.6521V21.96H60.7721V19.664H61.4361V25ZM64.6594 25.096C64.4407 25.096 64.238 25.056 64.0514 24.976C63.8647 24.896 63.7207 24.7947 63.6194 24.672L63.8994 24.144C64.1287 24.384 64.3714 24.504 64.6274 24.504C64.83 24.504 64.99 24.4507 65.1074 24.344C65.23 24.2373 65.3687 24.0373 65.5234 23.744L65.6194 23.56L63.5714 19.664H64.3314L66.0034 22.968L67.6754 19.664H68.4354L66.1074 24.056C65.9207 24.408 65.7207 24.6693 65.5074 24.84C65.294 25.0107 65.0114 25.096 64.6594 25.096ZM72.5552 25H71.8912V20.256H70.2032V19.664H74.2512V20.256H72.5552V25ZM84.5242 25H83.8602V20.256H80.7402V25H80.0762V19.664H84.5242V25ZM90.7075 25H87.2115V19.664H90.7075V20.256H87.8755V21.976H90.6515V22.568H87.8755V24.408H90.7075V25ZM98.9582 19.664H99.6222V25H93.2062V19.664H93.8702V24.408H96.0862V19.664H96.7502V24.408H98.9582V19.664ZM106.358 25H105.534L103.51 22.6L102.974 23.208V25H102.31V19.664H102.974V22.424L105.334 19.664H106.166L103.942 22.2L106.358 25ZM110.557 25.096C109.773 25.096 109.136 24.8347 108.645 24.312C108.155 23.7893 107.909 23.1307 107.909 22.336C107.909 21.5413 108.155 20.8827 108.645 20.36C109.136 19.8373 109.773 19.576 110.557 19.576C111.336 19.576 111.971 19.8373 112.461 20.36C112.957 20.8827 113.205 21.5413 113.205 22.336C113.205 23.1307 112.957 23.7893 112.461 24.312C111.971 24.8347 111.336 25.096 110.557 25.096ZM110.557 24.504C111.144 24.504 111.616 24.3013 111.973 23.896C112.336 23.4853 112.517 22.9653 112.517 22.336C112.517 21.7013 112.336 21.1813 111.973 20.776C111.616 20.3707 111.144 20.168 110.557 20.168C109.965 20.168 109.491 20.3707 109.133 20.776C108.776 21.1813 108.597 21.7013 108.597 22.336C108.597 22.9653 108.776 23.4853 109.133 23.896C109.491 24.3013 109.965 24.504 110.557 24.504ZM120.906 25H120.242V20.608L118.426 25H118.154L116.346 20.608V25H115.682V19.664H116.634L118.29 23.68L119.954 19.664H120.906V25Z"
        fill="black" />
</svg>