<svg width="163" height="29" viewBox="0 0 163 29" fill="none" xmlns="http://www.w3.org/2000/svg">
    <rect x="7.64062" y="0.92627" width="9.49739" height="9.49739" transform="rotate(45 7.64062 0.92627)"
        fill="#BB9B8C" />
    <rect width="138" height="16" transform="translate(24.2852)" fill="#0E1D2B" />
    <path
        d="M36.1752 11H34.7452V6.33L32.8652 11H32.2452L30.3652 6.33V11H28.9452V4.33H30.9352L32.5552 8.36L34.1752 4.33H36.1752V11ZM44.0198 11H39.2998V4.33H44.0198V5.58H40.7198V6.99H43.9498V8.24H40.7198V9.75H44.0198V11ZM48.1899 4.33V6.2C48.1899 7.00667 48.5966 7.41 49.4099 7.41C49.8899 7.41 50.3133 7.33667 50.6799 7.19V4.33H52.0999V11H50.6799V8.44C50.1933 8.58667 49.7133 8.66 49.2399 8.66C48.4133 8.66 47.7933 8.44333 47.3799 8.01C46.9666 7.57 46.7599 6.96667 46.7599 6.2V4.33H48.1899ZM59.9441 11H55.2241V4.33H59.9441V5.58H56.6441V6.99H59.8741V8.24H56.6441V9.75H59.9441V11ZM65.8241 11H64.3941V5.58H62.4441V4.33H67.7641V5.58H65.8241V11ZM70.4745 4.33H71.8945V6.7H73.5945C74.2878 6.7 74.8345 6.90667 75.2345 7.32C75.6345 7.73333 75.8345 8.24333 75.8345 8.85C75.8345 9.46333 75.6345 9.97667 75.2345 10.39C74.8411 10.7967 74.2945 11 73.5945 11H70.4745V4.33ZM73.4045 7.95H71.8945V9.75H73.4045C73.6911 9.75 73.9245 9.67 74.1045 9.51C74.2911 9.34333 74.3845 9.12333 74.3845 8.85C74.3845 8.57667 74.2911 8.36 74.1045 8.2C73.9245 8.03333 73.6911 7.95 73.4045 7.95ZM88.5833 11H86.8333L84.8133 8.33L84.2933 8.95V11H82.8733V4.33H84.2933V7.31L86.6533 4.33H88.4033L85.7533 7.46L88.5833 11ZM91.9307 11.12C91.6307 11.12 91.3407 11.0767 91.0607 10.99C90.7874 10.8967 90.574 10.78 90.4207 10.64L90.9607 9.5C91.254 9.74 91.5407 9.86 91.8207 9.86C92.0607 9.86 92.2474 9.81 92.3807 9.71C92.5207 9.60333 92.6574 9.42333 92.7907 9.17L90.3307 4.33H91.9407L93.5907 7.87L95.2507 4.33H96.8607L94.1107 9.72C93.884 10.1733 93.6007 10.52 93.2607 10.76C92.9274 11 92.484 11.12 91.9307 11.12ZM98.4073 11.12V9.86C98.7673 9.86 99.0439 9.71667 99.2373 9.43C99.4306 9.13667 99.5773 8.57333 99.6773 7.74L100.067 4.33H104.807V11H103.377V5.58H101.347L101.087 7.84C101.007 8.51333 100.887 9.07333 100.727 9.52C100.574 9.96 100.374 10.2933 100.127 10.52C99.8873 10.7467 99.6339 10.9033 99.3673 10.99C99.1006 11.0767 98.7806 11.12 98.4073 11.12ZM109.962 9.12H107.562V8.04H109.962V9.12ZM119.8 4.33H121.23V11H112.72V4.33H114.14V9.75H116.26V4.33H117.69V9.75H119.8V4.33ZM130.574 11H128.954L128.544 9.87H125.684L125.264 11H123.644L126.224 4.33H128.004L130.574 11ZM128.154 8.62L127.114 5.75L126.074 8.62H128.154ZM134.41 11H132.99V4.33H136.11C136.81 4.33 137.356 4.53667 137.75 4.95C138.15 5.35667 138.35 5.86667 138.35 6.48C138.35 7.08667 138.15 7.59667 137.75 8.01C137.35 8.42333 136.803 8.63 136.11 8.63H134.41V11ZM135.92 7.38C136.206 7.38 136.44 7.3 136.62 7.14C136.806 6.97333 136.9 6.75333 136.9 6.48C136.9 6.20667 136.806 5.99 136.62 5.83C136.44 5.66333 136.206 5.58 135.92 5.58H134.41V7.38H135.92ZM142.4 11H141.03V4.33H142.45V8.64L145.54 4.33H147V11H145.58V6.53L142.4 11ZM154.435 11H153.015V10.33C151.995 10.2433 151.202 9.97 150.635 9.51C150.075 9.05 149.795 8.43667 149.795 7.67C149.795 6.91 150.075 6.3 150.635 5.84C151.202 5.38 151.995 5.10333 153.015 5.01V4.33H154.435V5.01C155.455 5.10333 156.245 5.38 156.805 5.84C157.372 6.29333 157.655 6.90333 157.655 7.67C157.655 8.43667 157.372 9.05 156.805 9.51C156.245 9.97 155.455 10.2433 154.435 10.33V11ZM155.745 8.6C156.052 8.36 156.205 8.05 156.205 7.67C156.205 7.29 156.052 6.98 155.745 6.74C155.445 6.5 155.008 6.34667 154.435 6.28V9.06C155.008 8.99333 155.445 8.84 155.745 8.6ZM151.705 6.74C151.405 6.98 151.255 7.29 151.255 7.67C151.255 8.05 151.405 8.36 151.705 8.6C152.005 8.84 152.442 8.99333 153.015 9.06V6.28C152.442 6.34667 152.005 6.5 151.705 6.74Z"
        fill="white" />
    <rect width="102" height="13" transform="translate(24.2852 16)" fill="white" />
    <path
        d="M30.3732 25H29.7092V20.544L28.8532 21.448L28.4532 21.04L29.7892 19.664H30.3732V25ZM36.1241 24.704C35.7614 24.9653 35.3081 25.096 34.7641 25.096C34.2201 25.096 33.7641 24.9653 33.3961 24.704C33.0334 24.4427 32.8521 24.0907 32.8521 23.648C32.8521 23.312 32.9721 23.0213 33.2121 22.776C33.4574 22.5307 33.7614 22.3547 34.1241 22.248C33.7828 22.152 33.5001 21.9973 33.2761 21.784C33.0521 21.5653 32.9401 21.2933 32.9401 20.968C32.9401 20.52 33.1214 20.1787 33.4841 19.944C33.8468 19.704 34.2734 19.584 34.7641 19.584C35.2548 19.584 35.6814 19.704 36.0441 19.944C36.4121 20.1787 36.5961 20.52 36.5961 20.968C36.5961 21.2933 36.4841 21.5653 36.2601 21.784C36.0361 21.9973 35.7508 22.152 35.4041 22.248C35.7668 22.3547 36.0681 22.5307 36.3081 22.776C36.5534 23.0213 36.6761 23.312 36.6761 23.648C36.6761 24.0853 36.4921 24.4373 36.1241 24.704ZM34.7641 21.976C34.8708 21.96 34.9774 21.9333 35.0841 21.896C35.1961 21.8587 35.3214 21.808 35.4601 21.744C35.5988 21.6747 35.7108 21.5813 35.7961 21.464C35.8814 21.3413 35.9241 21.2053 35.9241 21.056C35.9241 20.7893 35.8121 20.576 35.5881 20.416C35.3694 20.256 35.0948 20.176 34.7641 20.176C34.4281 20.176 34.1508 20.256 33.9321 20.416C33.7134 20.576 33.6041 20.7893 33.6041 21.056C33.6041 21.2053 33.6468 21.3413 33.7321 21.464C33.8174 21.5813 33.9294 21.6747 34.0681 21.744C34.2068 21.808 34.3294 21.8587 34.4361 21.896C34.5481 21.928 34.6574 21.9547 34.7641 21.976ZM34.7641 24.504C35.1054 24.504 35.3961 24.4187 35.6361 24.248C35.8814 24.0773 36.0041 23.8533 36.0041 23.576C36.0041 23.3627 35.9188 23.176 35.7481 23.016C35.5828 22.8507 35.4121 22.736 35.2361 22.672C35.0654 22.6027 34.9081 22.56 34.7641 22.544C34.6201 22.56 34.4601 22.6027 34.2841 22.672C34.1134 22.736 33.9428 22.8507 33.7721 23.016C33.6014 23.176 33.5161 23.3627 33.5161 23.576C33.5161 23.8533 33.6361 24.0773 33.8761 24.248C34.1214 24.4187 34.4174 24.504 34.7641 24.504ZM47.875 25H47.211V20.608L45.395 25H45.123L43.315 20.608V25H42.651V19.664H43.603L45.259 23.68L46.923 19.664H47.875V25ZM51.1998 25H50.5598V19.664H51.2238V23.832L54.2958 19.664H54.9758V25H54.3118V20.744L51.1998 25ZM62.1118 25H61.4478V22.552H58.3278V25H57.6638V19.664H58.3278V21.96H61.4478V19.664H62.1118V25ZM65.3352 25.096C65.1165 25.096 64.9138 25.056 64.7272 24.976C64.5405 24.896 64.3965 24.7947 64.2952 24.672L64.5752 24.144C64.8045 24.384 65.0472 24.504 65.3032 24.504C65.5058 24.504 65.6658 24.4507 65.7832 24.344C65.9058 24.2373 66.0445 24.0373 66.1992 23.744L66.2952 23.56L64.2472 19.664H65.0072L66.6792 22.968L68.3512 19.664H69.1112L66.7832 24.056C66.5965 24.408 66.3965 24.6693 66.1832 24.84C65.9698 25.0107 65.6872 25.096 65.3352 25.096ZM73.231 25H72.567V20.256H70.879V19.664H74.927V20.256H73.231V25ZM85.2 25H84.536V20.256H81.416V25H80.752V19.664H85.2V25ZM91.3833 25H87.8873V19.664H91.3833V20.256H88.5513V21.976H91.3273V22.568H88.5513V24.408H91.3833V25ZM99.634 19.664H100.298V25H93.882V19.664H94.546V24.408H96.762V19.664H97.426V24.408H99.634V19.664ZM107.034 25H106.21L104.186 22.6L103.65 23.208V25H102.986V19.664H103.65V22.424L106.01 19.664H106.842L104.618 22.2L107.034 25ZM111.233 25.096C110.449 25.096 109.812 24.8347 109.321 24.312C108.83 23.7893 108.585 23.1307 108.585 22.336C108.585 21.5413 108.83 20.8827 109.321 20.36C109.812 19.8373 110.449 19.576 111.233 19.576C112.012 19.576 112.646 19.8373 113.137 20.36C113.633 20.8827 113.881 21.5413 113.881 22.336C113.881 23.1307 113.633 23.7893 113.137 24.312C112.646 24.8347 112.012 25.096 111.233 25.096ZM111.233 24.504C111.82 24.504 112.292 24.3013 112.649 23.896C113.012 23.4853 113.193 22.9653 113.193 22.336C113.193 21.7013 113.012 21.1813 112.649 20.776C112.292 20.3707 111.82 20.168 111.233 20.168C110.641 20.168 110.166 20.3707 109.809 20.776C109.452 21.1813 109.273 21.7013 109.273 22.336C109.273 22.9653 109.452 23.4853 109.809 23.896C110.166 24.3013 110.641 24.504 111.233 24.504ZM121.582 25H120.918V20.608L119.102 25H118.83L117.022 20.608V25H116.358V19.664H117.31L118.966 23.68L120.63 19.664H121.582V25Z"
        fill="black" />
</svg>