<svg width="380" height="260" viewBox="0 0 380 260" fill="none" xmlns="http://www.w3.org/2000/svg">
<rect width="380" height="260" fill="#F8F8F8"/>
<path opacity="0.2" d="M10.5 10.5H369.5V249.5H10.5V10.5Z" stroke="#4E4E4E"/>
<mask id="mask0_304_9925" style="mask-type:alpha" maskUnits="userSpaceOnUse" x="0" y="0" width="380" height="260">
<rect width="380" height="260" fill="#ECECEC"/>
</mask>
<g mask="url(#mask0_304_9925)">
<g opacity="0.02">
<path d="M-145.997 142.996C-122.385 93.3867 -96.5939 52.1059 -68.6229 19.1537C-40.6518 -14.1606 -13.5889 -39.3273 12.5658 -56.3466C16.5617 -58.8814 20.7392 -61.054 25.0983 -62.8646C29.8207 -64.6752 34.9063 -66.1236 40.3553 -67.2099C45.8042 -68.6584 50.1633 -68.1152 53.4326 -65.5805C56.702 -63.4078 58.3366 -59.2435 58.3366 -53.0876C56.1571 -43.3106 48.7102 -29.5503 35.9961 -11.8068C23.282 5.57454 11.476 20.4211 0.578217 32.7329C-10.3196 44.6826 -20.6725 55.727 -30.4805 65.8661C-37.3825 73.1084 -53.7292 87.0497 -79.5207 107.69L-106.765 126.701L-126.926 139.194C-128.379 139.918 -130.195 141.729 -132.375 144.625C-137.461 153.678 -141.638 162.188 -144.908 170.154C-155.442 196.589 -161.436 212.884 -162.889 219.039C-164.705 221.936 -166.158 227.187 -167.248 234.791C-168.338 242.034 -166.703 246.198 -162.344 247.284C-152.173 246.198 -138.369 238.05 -120.932 222.842C-103.133 207.633 -85.3328 190.614 -67.5331 171.784C-49.7333 152.592 -39.7437 142.091 -37.5641 140.28C-32.8417 136.659 -29.754 134.305 -28.301 133.219L-27.7561 133.762C-28.8459 135.211 -31.9336 138.289 -37.0192 142.996C-38.4723 144.444 -45.1926 151.506 -57.1802 164.18C-69.1678 176.491 -81.1553 188.803 -93.1429 201.115C-104.767 213.065 -117.663 224.29 -131.83 234.791C-145.997 244.93 -157.258 250 -165.613 250C-181.234 246.379 -179.236 220.669 -159.62 172.87L-145.997 142.996ZM-125.836 133.762C-102.588 121.812 -73.5269 100.267 -38.6539 69.1252C-25.2133 57.5376 -6.68698 37.2593 16.9249 8.29037C40.9001 -21.0407 53.6142 -41.5 55.0673 -53.0876C55.0673 -57.795 53.4326 -60.873 50.1633 -62.3214C47.2572 -63.7699 43.8062 -63.7699 39.8103 -62.3214C35.8145 -61.2351 32.0002 -59.6056 28.3676 -57.4329C24.735 -55.6224 22.0106 -53.8118 20.1943 -52.0012C12.5658 -45.1211 5.11899 -38.0599 -2.14622 -30.8177C-9.41144 -23.9376 -16.1317 -17.2385 -22.3072 -10.7205C-28.4826 -4.20249 -34.1131 1.77235 -39.1988 7.20403C-44.2844 12.6357 -49.3701 18.4295 -54.4557 24.5854C-59.1781 30.3792 -63.174 35.2677 -66.4433 39.2509C-69.7126 43.2342 -73.3452 47.9416 -77.3411 53.3733C-80.9737 58.805 -83.6982 62.6071 -85.5145 64.7798C-86.9675 66.9525 -89.3287 70.3925 -92.598 75.1C-95.5041 79.4453 -97.1388 81.7991 -97.5021 82.1612C-111.669 102.439 -121.114 119.64 -125.836 133.762Z" fill="black"/>
<path d="M-15.2066 101.715C-11.9372 98.8183 -8.48627 98.2752 -4.85365 100.086C-2.31084 101.172 -2.49248 103.164 -5.39856 106.061C-19.5657 124.166 -29.1921 137.021 -34.2778 144.625C-38.6369 152.23 -38.2736 156.394 -33.188 157.118C-26.6493 156.756 -13.7535 145.712 5.49927 123.985C10.2216 117.829 17.4869 109.682 27.2949 99.5426C34.5601 91.5761 40.009 88.8602 43.6416 91.395C46.1844 93.2056 45.4579 96.4646 41.4621 101.172C30.5642 114.208 20.3929 128.149 10.9482 142.996C9.49513 145.893 8.22371 148.247 7.13393 150.057C6.40741 151.506 4.95438 154.584 2.77481 159.291C0.958511 163.636 -0.312897 167.257 -1.03943 170.154C-1.76595 173.051 -2.31084 176.31 -2.67409 179.931C-3.03735 183.552 -2.49246 186.268 -1.03943 188.079C0.776871 189.889 3.50133 190.795 7.13393 190.795C12.9461 190.795 20.0297 188.079 28.3847 182.647C36.7397 176.853 46.1844 169.43 56.719 160.377C67.2535 150.962 73.0657 145.893 74.1555 145.169C82.5105 138.289 87.2328 134.667 88.3226 134.305C90.1389 133.581 87.0512 136.84 79.0595 144.082C78.333 144.444 77.6065 144.988 76.8799 145.712C73.9738 148.247 69.0698 152.592 62.1679 158.748C55.6292 164.542 50.1803 169.068 45.8212 172.327C41.8253 175.586 36.7397 179.207 30.5642 183.19C24.7521 187.174 19.1215 190.252 13.6726 192.424C5.68089 194.597 -0.312897 193.148 -4.30876 188.079C-8.30463 182.647 -10.1209 176.491 -9.75768 169.611C-9.03116 162.369 -8.123 156.213 -7.03322 151.143C-6.66997 150.057 -5.76181 147.703 -4.30876 144.082C-2.85573 140.461 -2.12921 138.289 -2.12921 137.564C-2.49248 136.84 -4.12714 137.926 -7.03322 140.823L-22.2902 153.859C-27.7391 158.929 -32.6431 160.377 -37.0022 158.205C-46.447 154.221 -47.1735 145.712 -39.1818 132.676C-31.19 119.278 -23.1983 108.957 -15.2066 101.715Z" fill="black"/>
<path d="M83.6357 122.356C94.5335 108.595 105.068 100.629 115.239 98.4562C123.958 97.0078 128.862 98.0941 129.951 101.715C131.768 106.061 129.77 110.768 123.958 115.838C123.231 115.838 122.868 115.294 122.868 114.208L126.682 108.776C128.862 104.431 128.317 102.439 125.047 102.802C118.145 103.164 109.79 110.044 99.9824 123.442L97.258 127.244C83.8174 147.16 76.3705 158.386 74.9175 160.92C68.0155 172.87 66.9257 181.742 71.6481 187.536C77.4603 192.605 86.5418 191.7 98.8926 184.82C111.243 177.94 124.684 168.525 139.215 156.575C154.108 144.263 163.735 137.021 168.094 134.848C168.457 134.848 168.639 135.03 168.639 135.392C165.369 137.564 158.104 143.177 146.843 152.23C135.945 160.921 127.045 167.801 120.143 172.87C113.241 177.94 105.25 182.828 96.1682 187.536C87.45 191.881 80.7296 193.873 76.0072 193.511C67.6523 192.424 62.385 188.622 60.2054 182.104C58.0258 175.224 58.2075 168.344 60.7503 161.464C62.9299 154.221 65.836 147.884 69.4686 142.453L83.6357 122.356Z" fill="black"/>
<path d="M185.488 99.5426C192.753 91.5761 198.202 88.8602 201.834 91.395C204.377 93.2056 203.651 96.4646 199.655 101.172C188.757 114.208 178.586 128.149 169.141 142.996C167.688 145.893 166.417 148.247 165.327 150.057C164.6 151.506 163.147 154.584 160.968 159.291C159.151 163.636 157.88 167.257 157.153 170.154C156.427 173.051 155.882 176.31 155.519 179.931C155.155 183.552 155.7 186.268 157.153 188.079C158.97 189.889 161.694 190.795 165.327 190.795C171.139 190.795 178.222 188.079 186.577 182.647C194.932 176.853 204.377 169.43 214.912 160.377C225.446 150.962 231.258 145.893 232.348 145.169C240.703 138.289 245.426 134.667 246.515 134.305C248.332 133.581 245.244 136.84 237.252 144.082C236.526 144.444 235.799 144.988 235.073 145.712C232.167 148.247 227.263 152.592 220.361 158.748C213.822 164.542 208.373 169.068 204.014 172.327C200.018 175.586 194.932 179.207 188.757 183.19C182.945 187.174 177.314 190.252 171.865 192.424C163.874 194.597 157.88 193.148 153.884 188.079C149.888 182.647 148.253 176.491 148.98 169.611C149.343 162.369 150.07 156.213 151.16 151.143C156.245 135.573 167.688 118.372 185.488 99.5426ZM207.283 71.841C214.548 63.8745 219.997 61.1587 223.63 63.6935C226.173 65.504 225.446 68.763 221.45 73.4705C214.185 81.437 208.736 84.1528 205.104 81.618C202.561 79.8074 203.287 76.5484 207.283 71.841Z" fill="black"/>
<path d="M242.786 151.143C236.248 153.316 232.433 151.325 231.344 145.169C230.254 137.564 236.066 128.511 248.78 118.01C256.045 112.941 263.129 110.225 270.031 109.863C276.933 109.501 280.565 112.035 280.929 117.467C280.929 117.829 282.382 116.743 285.288 114.208C286.741 113.122 288.557 111.311 290.737 108.776C293.279 106.242 295.459 104.25 297.275 102.802C299.092 101.353 301.453 101.172 304.359 102.258C307.265 103.345 307.81 105.336 305.994 108.233C280.929 138.289 265.127 161.464 258.588 177.759C256.045 187.174 257.317 191.7 262.402 191.338C266.761 190.614 277.478 184.277 294.551 172.327C314.167 157.118 329.424 146.617 340.322 140.823C352.309 134.667 357.032 132.676 354.489 134.848C353.399 135.935 351.219 137.564 347.95 139.737C338.505 144.082 328.334 150.238 317.436 158.205C313.077 161.102 306.538 165.809 297.82 172.327C289.102 178.483 282.563 183.009 278.204 185.906C263.31 196.407 254.229 196.407 250.96 185.906C247.69 175.043 249.143 164.18 255.319 153.316L260.768 142.453C259.678 142.815 256.953 144.263 252.594 146.798C248.235 148.971 244.966 150.419 242.786 151.143ZM264.037 115.294C250.96 130.141 242.786 139.918 239.517 144.625C238.427 146.074 238.064 147.522 238.427 148.971C238.79 150.419 240.243 150.6 242.786 149.514C255.137 144.444 266.58 135.211 277.114 121.812C278.567 118.553 278.749 116.019 277.659 114.208C276.933 112.398 274.935 111.492 271.665 111.492C268.759 111.492 266.217 112.76 264.037 115.294Z" fill="black"/>
<path d="M340.73 135.392C348.722 129.96 353.444 127.063 354.898 126.701C356.714 126.339 357.985 126.52 358.712 127.244C359.802 127.968 360.165 129.055 359.802 130.503L358.712 136.478L359.257 137.021C361.436 135.935 362.889 135.03 363.616 134.305C367.612 131.408 373.424 126.882 381.052 120.726C388.681 114.57 394.493 110.225 398.489 107.69C402.848 104.431 407.933 101.896 413.746 100.086C420.648 98.6373 424.643 100.086 425.733 104.431C427.186 108.414 426.096 112.216 422.464 115.838C418.831 121.269 412.293 131.046 402.848 145.169C393.766 159.291 386.864 170.335 382.142 178.302C368.701 202.925 367.067 215.418 377.238 215.78C378.328 215.78 379.781 215.599 381.597 215.237C388.862 213.065 397.762 207.814 408.297 199.485C418.831 190.795 428.094 182.285 436.086 173.957C444.441 165.628 452.251 157.48 459.516 149.514C466.782 141.548 470.596 137.383 470.959 137.021C472.049 135.935 472.957 135.392 473.684 135.392C474.41 135.03 474.592 135.03 474.229 135.392L472.594 138.107C472.231 138.47 469.869 141.185 465.51 146.255C461.151 151.325 458.245 154.584 456.792 156.032C455.339 157.48 452.433 160.558 448.074 165.266C444.078 169.973 440.809 173.413 438.266 175.586C436.086 177.759 432.817 181.018 428.458 185.363C424.462 189.346 421.011 192.424 418.105 194.597C415.199 196.77 411.748 199.485 407.752 202.744C404.119 205.641 400.487 208.176 396.854 210.349C393.585 212.159 390.315 213.789 387.046 215.237C380.871 218.134 375.24 218.496 370.154 216.324C365.069 214.151 362.163 210.168 361.436 204.374C360.71 201.115 361.073 196.045 362.526 189.165C365.069 180.475 370.699 169.611 379.418 156.575L409.387 114.751L414.835 105.517C415.925 104.431 415.925 103.526 414.835 102.802C414.109 102.439 413.019 102.439 411.566 102.802C406.48 105.336 397.036 111.854 383.232 122.356C373.061 130.322 363.979 141.729 355.987 156.575C353.444 161.283 349.449 161.645 344 157.661C341.094 155.489 340.185 153.678 341.275 152.23C342.365 150.057 344.363 147.341 347.269 144.082C350.175 140.461 351.991 138.107 352.718 137.021C352.718 136.659 353.263 135.754 354.353 134.305C355.442 132.857 355.987 131.77 355.987 131.046C356.351 130.322 355.987 129.598 354.898 128.874L341.82 137.021L340.73 135.392Z" fill="black"/>
<path d="M547.372 136.478C533.204 142.272 518.129 145.169 502.146 145.169C501.419 145.169 500.693 145.169 499.966 145.169C499.24 144.807 498.695 144.625 498.331 144.625C507.776 132.676 511.772 118.191 510.319 101.172C508.866 83.7907 501.419 75.8242 487.979 77.2727C475.264 78.7211 466.909 85.2391 462.914 96.8267C458.918 108.414 460.552 119.097 467.818 128.874L461.824 137.021C450.926 149.695 446.93 161.283 449.836 171.784C451.289 175.043 454.377 177.034 459.099 177.759C463.458 178.483 467.273 177.759 470.542 175.586C479.987 169.068 488.887 159.472 497.242 146.798C500.874 147.522 505.778 147.522 511.954 146.798C525.394 145.35 536.292 142.996 544.647 139.737C548.28 139.013 551.549 137.383 554.455 134.848C555.182 134.124 555.182 133.762 554.455 133.762C553.365 133.762 551.004 134.667 547.372 136.478ZM474.356 84.3339C492.156 74.1947 503.054 77.4537 507.05 94.1109C510.319 108.233 508.321 122.356 501.056 136.478C499.603 139.737 497.968 142.272 496.152 144.082C493.972 144.082 491.066 143.177 487.434 141.366C485.981 140.642 484.346 139.375 482.53 137.564L479.26 135.392L481.985 132.133L492.883 120.183C493.972 119.097 494.699 117.648 495.062 115.838C495.425 114.027 495.062 112.76 493.972 112.035C493.246 110.949 491.793 110.768 489.613 111.492C485.617 113.303 479.079 118.372 469.997 126.701C464.548 119.459 462.369 111.854 463.458 103.888C464.911 95.5593 468.544 89.0413 474.356 84.3339ZM494.517 146.255L490.703 151.687C483.075 162.188 476.354 169.249 470.542 172.87C466.546 175.405 463.64 176.129 461.824 175.043C460.007 173.957 459.281 171.784 459.644 168.525C460.371 165.266 464.548 157.48 472.177 145.169C474.719 141.185 476.536 138.651 477.626 137.564C477.989 137.926 478.534 138.47 479.26 139.194C480.35 139.918 481.44 140.642 482.53 141.366C483.619 142.091 484.709 142.634 485.799 142.996C490.158 145.169 493.064 146.255 494.517 146.255Z" fill="black"/>
</g>
<path fill-rule="evenodd" clip-rule="evenodd" d="M138.051 124.366C138.051 137.047 147.937 143.985 159.828 143.985C163.21 143.985 168.591 142.76 171.985 140.832L173.063 138.432L172.575 137.892C169.348 140.042 165.523 141.263 161.655 141.263C150.848 141.263 143.858 133.884 143.858 123.185C143.858 113.514 149.978 107.25 158.852 107.25C162.725 107.25 165.31 108.162 167.525 109.236C167.599 109.271 167.66 109.308 167.728 109.349L167.729 109.349C167.748 109.361 167.769 109.373 167.79 109.386C167.872 109.453 167.947 109.51 168.039 109.564C168.443 109.865 168.739 110.474 168.543 110.998C168.366 111.483 167.729 111.761 167.226 111.628C166.604 111.483 166.435 111.11 166.308 110.742C164.403 112.623 165.461 115.533 168.029 116.142C169.517 116.471 171.307 115.753 172.108 114.272C172.596 113.366 172.754 111.804 172.56 111.052C172.061 109.092 170.996 107.98 169.629 107.185V107.18H169.606C169.236 106.969 168.84 106.767 168.425 106.591C167.895 106.369 166.812 106.046 166.465 105.987C166.465 105.987 166.435 105.987 166.421 105.982C165.645 105.746 164.885 105.558 164.109 105.436C162.339 105.174 160.542 105 158.75 105C148.094 105 138.051 111.962 138.051 124.366ZM170.902 110.77C171.803 115.102 167.473 115.654 166.856 113.343C167.273 113.651 167.7 113.784 168.112 113.784C169.631 113.784 170.972 112.007 170.902 110.77ZM97.4414 105.816V107.427C102.54 107.683 102.54 108.051 102.54 112.091L102.54 112.23V131.487C102.54 134.158 102.54 136.081 103.889 138.484C106.461 143.25 112.338 143.991 117.231 143.991C119.387 143.991 122.449 143.572 124.483 142.879C126.421 142.233 129.006 140.312 130.082 138.602C131.688 136.023 132.446 133.731 132.446 130.785V111.058C132.446 107.957 133.468 107.473 136.866 107.473L137.718 107.427V105.816C135.624 105.976 133.468 106.088 131.317 106.088C129.169 106.088 127.032 105.976 124.872 105.816V107.427L125.725 107.473C129.006 107.473 129.975 107.957 129.975 111.058V128.064C129.975 131.315 129.489 134.592 127.82 136.996C125.887 139.829 121.974 140.678 118.671 140.678C111.639 140.678 107.33 138.484 107.656 130.898V112.23L107.656 112.084C107.655 108.05 107.655 107.683 112.764 107.427V105.816C110.18 105.976 107.656 106.088 105.028 106.088C102.384 106.088 99.8578 105.976 97.4414 105.816ZM176.398 107.427V105.816C178.823 105.976 181.343 106.088 183.982 106.088C186.623 106.088 189.145 105.976 191.734 105.816V107.427C186.623 107.684 186.623 108.051 186.623 112.097L186.623 112.23V136.787L186.623 136.92C186.623 140.951 186.623 141.338 191.734 141.595V143.196C189.145 143.035 186.623 142.925 183.982 142.925C181.343 142.925 178.823 143.035 176.398 143.196V141.595C181.514 141.338 181.514 140.951 181.514 136.914L181.514 136.787V112.23L181.514 112.102C181.514 108.051 181.514 107.684 176.398 107.427ZM193.902 141.592V143.193C195.946 143.032 197.976 142.922 200.096 142.922C202.18 142.922 204.223 143.032 206.27 143.193V141.592C205.873 141.539 205.447 141.507 205.02 141.476L205.02 141.476L205.02 141.476L205.02 141.476C203.359 141.354 201.691 141.231 201.691 139.826C201.691 138.804 203.914 133.903 204.928 131.667L204.928 131.667C205.085 131.321 205.213 131.038 205.299 130.844H220.576L223.858 138.645C224.283 139.611 224.242 140.469 223.477 140.835C222.317 141.466 220.911 141.527 219.545 141.588L219.446 141.592V143.193C221.819 143.032 224.178 142.922 226.596 142.922C229.019 142.922 231.387 143.032 233.753 143.193V141.592C232.516 141.53 231.387 141.22 230.794 140.675C229.495 139.442 228.803 137.757 228.128 136.112L228.049 135.918L215.084 105.493H213.373C211.968 109.341 210.195 113.247 208.471 117.046L201.21 133.2L198.584 138.692C197.511 141.004 197.071 141.073 195.235 141.363C194.856 141.423 194.418 141.492 193.902 141.592ZM213.149 112.166L219.865 128.103H206.425L213.149 112.166ZM235.523 143.196V141.595L236.397 141.533C239.671 141.533 240.641 141.062 240.641 137.955V111.058C240.641 107.957 239.779 107.473 236.763 107.427H236.013V105.816C237.58 105.976 239.078 106.088 240.693 106.088C242.254 106.088 243.745 105.976 245.317 105.816L270.699 137.627V111.058C270.699 107.957 269.731 107.473 266.457 107.473L265.598 107.427V105.816C267.734 105.976 269.892 106.088 272.044 106.088C274.195 106.088 276.342 105.976 278.437 105.816V107.427L277.582 107.473C274.195 107.473 273.175 107.957 273.175 111.058V142.012L273.335 143.991L269.083 143.25L243.104 111.857V137.955C243.104 141.062 244.134 141.533 247.52 141.533L248.375 141.595V143.196C246.282 143.035 244.134 142.925 241.987 142.925C239.835 142.925 237.684 143.035 235.523 143.196ZM280.82 124.246V124.372C280.849 136.53 289.001 143.987 299.911 143.987C311.678 143.987 320.718 134.801 320.718 123.297C320.718 111.427 312.538 105.002 301.032 105.002C300.922 105 300.812 105 300.706 105C288.45 105 280.85 113.467 280.82 124.246ZM286.574 122.555C286.574 113.788 290.814 107.324 300.175 107.324C310.171 107.324 314.961 114.372 314.961 124.951C314.961 134.801 310.613 141.115 301.627 141.69C290.98 141.69 286.574 131.91 286.574 122.555ZM65.0957 105.816C67.5146 105.971 70.0487 106.09 72.6857 106.09C75.3162 106.09 77.8377 105.971 80.4256 105.816V107.434C75.3156 107.691 75.3157 108.059 75.3162 112.114C75.3162 112.155 75.3162 112.195 75.3162 112.237V138.491L75.4798 140.479C77.7394 140.741 80.4783 140.741 83.0571 140.741C83.6632 140.741 84.267 140.734 84.8845 140.71C84.8845 140.71 86.5544 140.675 87.4291 140.574C88.1506 140.49 88.8036 140.407 89.451 140.303C89.4921 140.295 89.5333 140.288 89.5745 140.281C90.5723 140.106 91.5822 139.929 92.1795 139.183C92.5066 138.78 92.8063 138.277 92.6142 137.738C92.4312 137.264 91.8776 137.003 91.3734 137.114C90.7536 137.277 90.589 137.647 90.4572 138.018C88.5566 136.13 89.6077 133.223 92.1795 132.619C93.6753 132.281 95.3932 133.21 96.1924 134.684C96.6796 135.597 96.794 136.931 96.7185 137.696C96.5184 139.924 94.7995 141.929 92.3614 142.493C91.9989 142.581 91.5142 142.647 91.1273 142.699C90.9199 142.727 90.7405 142.751 90.6233 142.773C90.6233 142.773 89.0358 142.886 86.7898 142.936C86.4341 142.951 83.0846 142.951 81.7523 142.936C80.5297 142.926 79.3024 142.928 78.0684 142.93C77.5653 142.931 77.0611 142.932 76.5557 142.932C73.4383 142.932 70.425 143.042 67.2983 143.198V141.597C69.836 141.169 70.1997 139.621 70.1997 135.335V112.237C70.1997 112.174 70.1997 112.112 70.1997 112.051C70.2002 110.411 70.2005 109.401 69.8519 108.745C69.5055 108.694 69.1669 108.657 68.8982 108.639C68.1697 108.585 67.5077 108.543 66.8627 108.522C66.8279 108.522 66.793 108.521 66.7582 108.52C65.728 108.504 64.7002 108.488 63.9589 109.111C63.5747 109.438 63.2741 109.818 63.3666 110.371C63.4443 110.865 63.856 111.313 64.3594 111.29C65.017 111.257 65.2503 110.92 65.4435 110.583C66.9541 112.781 65.376 115.445 62.7285 115.559C61.2019 115.608 59.6762 114.382 59.1778 112.781C58.8632 111.799 59.02 110.469 59.2338 109.716C59.8513 107.575 61.9131 105.927 64.4176 105.823C64.5714 105.813 64.7433 105.818 64.9182 105.823C64.9772 105.825 65.0366 105.827 65.0957 105.828V105.816ZM64.4085 113.029C62.2254 114.09 60.5317 111.284 60.916 109.743C59.7531 112.531 61.3172 114.049 62.7571 114.049C63.4309 114.049 64.078 113.717 64.4085 113.029ZM95.0523 137.988C95.17 137.444 95.1975 136.959 95.17 136.545C94.9414 133.558 91.5507 133.398 91.013 135.423C92.7136 134.149 94.6096 135.863 94.9872 137.362V137.444C95.0396 137.631 95.0696 137.819 95.0523 137.988Z" fill="#4E4E4E"/>
<path opacity="0.4" d="M142.973 165.168C142.973 165.184 142.949 165.196 142.901 165.204C142.861 165.212 142.837 165.204 142.829 165.18C142.637 164.268 142.081 163.812 141.161 163.812H140.681C140.393 163.812 140.189 163.864 140.069 163.968C139.949 164.072 139.889 164.244 139.889 164.484V167.088H140.873C141.769 167.088 142.217 166.788 142.217 166.188C142.217 166.172 142.241 166.164 142.289 166.164C142.337 166.164 142.361 166.172 142.361 166.188L142.349 167.244C142.349 167.492 142.353 167.676 142.361 167.796L142.373 168.42C142.373 168.444 142.349 168.456 142.301 168.456C142.253 168.456 142.229 168.444 142.229 168.42C142.229 167.74 141.769 167.4 140.849 167.4H139.889V169.98C139.889 170.236 139.921 170.424 139.985 170.544C140.049 170.656 140.173 170.736 140.357 170.784C140.549 170.832 140.841 170.856 141.233 170.856C141.249 170.856 141.257 170.88 141.257 170.928C141.257 170.976 141.249 171 141.233 171C140.905 171 140.649 170.996 140.465 170.988L139.289 170.976L138.413 170.988C138.261 170.996 138.049 171 137.777 171C137.753 171 137.741 170.976 137.741 170.928C137.741 170.88 137.753 170.856 137.777 170.856C138.065 170.856 138.273 170.836 138.401 170.796C138.537 170.756 138.629 170.68 138.677 170.568C138.725 170.448 138.749 170.268 138.749 170.028V164.472C138.749 164.232 138.725 164.056 138.677 163.944C138.637 163.832 138.553 163.756 138.425 163.716C138.297 163.668 138.101 163.644 137.837 163.644C137.813 163.644 137.801 163.62 137.801 163.572C137.801 163.524 137.813 163.5 137.837 163.5H142.829C142.909 163.5 142.949 163.536 142.949 163.608L142.973 165.168ZM148.32 170.028C148.32 170.276 148.34 170.456 148.38 170.568C148.42 170.68 148.5 170.756 148.62 170.796C148.748 170.836 148.948 170.856 149.22 170.856C149.244 170.856 149.256 170.88 149.256 170.928C149.256 170.976 149.244 171 149.22 171C148.964 171 148.76 170.996 148.608 170.988L147.72 170.976L146.856 170.988C146.704 170.996 146.496 171 146.232 171C146.208 171 146.196 170.976 146.196 170.928C146.196 170.88 146.208 170.856 146.232 170.856C146.504 170.856 146.7 170.836 146.82 170.796C146.948 170.756 147.036 170.68 147.084 170.568C147.132 170.448 147.156 170.268 147.156 170.028V164.472C147.156 164.232 147.132 164.056 147.084 163.944C147.036 163.832 146.948 163.756 146.82 163.716C146.7 163.668 146.504 163.644 146.232 163.644C146.208 163.644 146.196 163.62 146.196 163.572C146.196 163.524 146.208 163.5 146.232 163.5L146.856 163.512C147.208 163.528 147.496 163.536 147.72 163.536C147.968 163.536 148.268 163.528 148.62 163.512L149.22 163.5C149.244 163.5 149.256 163.524 149.256 163.572C149.256 163.62 149.244 163.644 149.22 163.644C148.956 163.644 148.76 163.668 148.632 163.716C148.512 163.764 148.428 163.848 148.38 163.968C148.34 164.08 148.32 164.256 148.32 164.496V170.028ZM154.462 163.752C153.974 163.752 153.57 163.904 153.25 164.208C152.938 164.504 152.698 164.956 152.53 165.564C152.53 165.58 152.506 165.588 152.458 165.588C152.418 165.588 152.398 165.576 152.398 165.552C152.43 165.24 152.466 164.84 152.506 164.352C152.546 163.856 152.566 163.484 152.566 163.236C152.566 163.196 152.586 163.176 152.626 163.176C152.674 163.176 152.698 163.196 152.698 163.236C152.698 163.412 152.922 163.5 153.37 163.5C154.058 163.524 154.862 163.536 155.782 163.536C156.254 163.536 156.754 163.528 157.282 163.512L158.098 163.5C158.402 163.5 158.622 163.48 158.758 163.44C158.902 163.4 158.994 163.32 159.034 163.2C159.042 163.168 159.066 163.152 159.106 163.152C159.146 163.152 159.166 163.168 159.166 163.2C159.142 163.448 159.118 163.824 159.094 164.328C159.07 164.832 159.058 165.24 159.058 165.552C159.058 165.576 159.034 165.588 158.986 165.588C158.946 165.588 158.922 165.576 158.914 165.552C158.834 164.936 158.646 164.484 158.35 164.196C158.054 163.9 157.654 163.752 157.15 163.752C156.926 163.752 156.758 163.772 156.646 163.812C156.542 163.852 156.47 163.924 156.43 164.028C156.398 164.124 156.382 164.28 156.382 164.496V170.028C156.382 170.276 156.406 170.456 156.454 170.568C156.502 170.68 156.598 170.756 156.742 170.796C156.886 170.836 157.114 170.856 157.426 170.856C157.45 170.856 157.462 170.88 157.462 170.928C157.462 170.976 157.45 171 157.426 171C157.146 171 156.926 170.996 156.766 170.988L155.782 170.976L154.846 170.988C154.678 170.996 154.446 171 154.15 171C154.134 171 154.126 170.976 154.126 170.928C154.126 170.88 154.134 170.856 154.15 170.856C154.462 170.856 154.69 170.836 154.834 170.796C154.986 170.756 155.086 170.68 155.134 170.568C155.19 170.448 155.218 170.268 155.218 170.028V164.472C155.218 164.264 155.198 164.112 155.158 164.016C155.118 163.92 155.046 163.852 154.942 163.812C154.838 163.772 154.678 163.752 154.462 163.752ZM170.37 163.5C170.386 163.5 170.394 163.524 170.394 163.572C170.394 163.62 170.386 163.644 170.37 163.644C170.05 163.644 169.802 163.76 169.626 163.992C169.45 164.216 169.362 164.54 169.362 164.964V171.168C169.362 171.192 169.342 171.208 169.302 171.216C169.262 171.224 169.234 171.22 169.218 171.204L163.59 164.664V169.548C163.59 169.972 163.674 170.296 163.842 170.52C164.01 170.744 164.254 170.856 164.574 170.856C164.59 170.856 164.598 170.88 164.598 170.928C164.598 170.976 164.59 171 164.574 171C164.358 171 164.194 170.996 164.082 170.988L163.446 170.976L162.738 170.988C162.61 170.996 162.426 171 162.186 171C162.162 171 162.15 170.976 162.15 170.928C162.15 170.88 162.162 170.856 162.186 170.856C162.53 170.856 162.794 170.744 162.978 170.52C163.17 170.296 163.266 169.972 163.266 169.548V164.292C163.042 164.052 162.838 163.884 162.654 163.788C162.478 163.692 162.294 163.644 162.102 163.644C162.086 163.644 162.078 163.62 162.078 163.572C162.078 163.524 162.086 163.5 162.102 163.5L162.582 163.512C162.686 163.52 162.834 163.524 163.026 163.524L163.794 163.512C163.89 163.504 164.006 163.5 164.142 163.5C164.206 163.5 164.254 163.516 164.286 163.548C164.318 163.58 164.366 163.644 164.43 163.74C164.566 163.924 164.666 164.052 164.73 164.124L169.038 169.212V164.964C169.038 164.54 168.954 164.216 168.786 163.992C168.618 163.76 168.378 163.644 168.066 163.644C168.05 163.644 168.042 163.62 168.042 163.572C168.042 163.524 168.05 163.5 168.066 163.5L168.558 163.512C168.814 163.528 169.026 163.536 169.194 163.536C169.354 163.536 169.57 163.528 169.842 163.512L170.37 163.5ZM178.583 169.128C178.583 169.112 178.599 169.104 178.631 169.104C178.655 169.104 178.675 169.112 178.691 169.128C178.715 169.136 178.727 169.144 178.727 169.152C178.647 169.76 178.607 170.316 178.607 170.82C178.607 170.884 178.595 170.932 178.571 170.964C178.547 170.988 178.499 171 178.427 171H173.219C173.195 171 173.183 170.976 173.183 170.928C173.183 170.88 173.195 170.856 173.219 170.856C173.491 170.856 173.687 170.836 173.807 170.796C173.935 170.756 174.019 170.68 174.059 170.568C174.107 170.448 174.131 170.268 174.131 170.028V164.472C174.131 164.232 174.107 164.056 174.059 163.944C174.019 163.832 173.935 163.756 173.807 163.716C173.679 163.668 173.483 163.644 173.219 163.644C173.195 163.644 173.183 163.62 173.183 163.572C173.183 163.524 173.195 163.5 173.219 163.5H178.211C178.291 163.5 178.331 163.536 178.331 163.608L178.355 165.168C178.355 165.184 178.331 165.196 178.283 165.204C178.243 165.212 178.219 165.204 178.211 165.18C178.019 164.268 177.463 163.812 176.543 163.812H176.063C175.775 163.812 175.571 163.864 175.451 163.968C175.331 164.072 175.271 164.248 175.271 164.496V166.944H176.423C177.303 166.944 177.743 166.648 177.743 166.056C177.743 166.032 177.763 166.02 177.803 166.02C177.851 166.02 177.875 166.032 177.875 166.056L177.863 167.1L177.875 167.664C177.891 167.92 177.899 168.128 177.899 168.288C177.899 168.304 177.875 168.312 177.827 168.312C177.779 168.312 177.755 168.304 177.755 168.288C177.755 167.6 177.307 167.256 176.411 167.256H175.271V169.98C175.271 170.244 175.319 170.428 175.415 170.532C175.519 170.636 175.699 170.688 175.955 170.688H176.543C177.615 170.688 178.295 170.168 178.583 169.128ZM183.406 164.772C183.406 165.068 183.478 165.332 183.622 165.564C183.774 165.788 183.958 165.984 184.174 166.152C184.398 166.32 184.698 166.52 185.074 166.752C185.482 167.008 185.802 167.228 186.034 167.412C186.274 167.596 186.474 167.824 186.634 168.096C186.802 168.36 186.886 168.672 186.886 169.032C186.886 169.44 186.778 169.804 186.562 170.124C186.354 170.444 186.054 170.696 185.662 170.88C185.278 171.056 184.838 171.144 184.342 171.144C184.006 171.144 183.658 171.1 183.298 171.012C182.946 170.924 182.678 170.816 182.494 170.688C182.422 170.64 182.382 170.564 182.374 170.46L182.302 168.636V168.624C182.302 168.592 182.322 168.576 182.362 168.576C182.402 168.568 182.426 168.58 182.434 168.612C182.698 169.276 182.998 169.82 183.334 170.244C183.678 170.668 184.114 170.88 184.642 170.88C184.986 170.88 185.274 170.788 185.506 170.604C185.738 170.412 185.854 170.096 185.854 169.656C185.854 169.304 185.774 168.996 185.614 168.732C185.462 168.468 185.27 168.248 185.038 168.072C184.814 167.896 184.506 167.68 184.114 167.424C183.73 167.176 183.43 166.968 183.214 166.8C182.998 166.624 182.814 166.412 182.662 166.164C182.51 165.908 182.434 165.612 182.434 165.276C182.434 164.86 182.55 164.508 182.782 164.22C183.014 163.932 183.314 163.72 183.682 163.584C184.058 163.44 184.45 163.368 184.858 163.368C185.13 163.368 185.402 163.396 185.674 163.452C185.946 163.5 186.174 163.564 186.358 163.644C186.43 163.668 186.478 163.7 186.502 163.74C186.526 163.772 186.538 163.816 186.538 163.872L186.574 165.504C186.574 165.528 186.55 165.548 186.502 165.564C186.462 165.572 186.438 165.56 186.43 165.528C186.27 165.04 186.054 164.6 185.782 164.208C185.518 163.808 185.118 163.608 184.582 163.608C184.222 163.608 183.934 163.712 183.718 163.92C183.51 164.128 183.406 164.412 183.406 164.772ZM191.648 164.772C191.648 165.068 191.72 165.332 191.864 165.564C192.016 165.788 192.2 165.984 192.416 166.152C192.64 166.32 192.94 166.52 193.316 166.752C193.724 167.008 194.044 167.228 194.276 167.412C194.516 167.596 194.716 167.824 194.876 168.096C195.044 168.36 195.128 168.672 195.128 169.032C195.128 169.44 195.02 169.804 194.804 170.124C194.596 170.444 194.296 170.696 193.904 170.88C193.52 171.056 193.08 171.144 192.584 171.144C192.248 171.144 191.9 171.1 191.54 171.012C191.188 170.924 190.92 170.816 190.736 170.688C190.664 170.64 190.624 170.564 190.616 170.46L190.544 168.636V168.624C190.544 168.592 190.564 168.576 190.604 168.576C190.644 168.568 190.668 168.58 190.676 168.612C190.94 169.276 191.24 169.82 191.576 170.244C191.92 170.668 192.356 170.88 192.884 170.88C193.228 170.88 193.516 170.788 193.748 170.604C193.98 170.412 194.096 170.096 194.096 169.656C194.096 169.304 194.016 168.996 193.856 168.732C193.704 168.468 193.512 168.248 193.28 168.072C193.056 167.896 192.748 167.68 192.356 167.424C191.972 167.176 191.672 166.968 191.456 166.8C191.24 166.624 191.056 166.412 190.904 166.164C190.752 165.908 190.676 165.612 190.676 165.276C190.676 164.86 190.792 164.508 191.024 164.22C191.256 163.932 191.556 163.72 191.924 163.584C192.3 163.44 192.692 163.368 193.1 163.368C193.372 163.368 193.644 163.396 193.916 163.452C194.188 163.5 194.416 163.564 194.6 163.644C194.672 163.668 194.72 163.7 194.744 163.74C194.768 163.772 194.78 163.816 194.78 163.872L194.816 165.504C194.816 165.528 194.792 165.548 194.744 165.564C194.704 165.572 194.68 165.56 194.672 165.528C194.512 165.04 194.296 164.6 194.024 164.208C193.76 163.808 193.36 163.608 192.824 163.608C192.464 163.608 192.176 163.712 191.96 163.92C191.752 164.128 191.648 164.412 191.648 164.772ZM198.33 168.996C198.314 168.996 198.298 168.968 198.282 168.912C198.274 168.848 198.27 168.78 198.27 168.708C198.27 168.644 198.274 168.588 198.282 168.54C198.29 168.484 198.302 168.456 198.318 168.456H203.694C203.71 168.456 203.722 168.484 203.73 168.54C203.746 168.596 203.754 168.656 203.754 168.72C203.754 168.792 203.746 168.856 203.73 168.912C203.722 168.968 203.71 168.996 203.694 168.996H198.33ZM211.285 163.368C211.645 163.368 212.017 163.4 212.401 163.464C212.793 163.528 213.101 163.616 213.325 163.728C213.397 163.752 213.441 163.784 213.457 163.824C213.481 163.856 213.497 163.916 213.505 164.004L213.649 165.564C213.649 165.588 213.629 165.604 213.589 165.612C213.549 165.62 213.525 165.608 213.517 165.576C213.285 164.952 212.933 164.476 212.461 164.148C211.997 163.82 211.449 163.656 210.817 163.656C209.985 163.656 209.333 163.948 208.861 164.532C208.389 165.116 208.153 165.9 208.153 166.884C208.153 167.62 208.281 168.296 208.537 168.912C208.801 169.528 209.161 170.016 209.617 170.376C210.081 170.736 210.597 170.916 211.165 170.916C212.245 170.916 213.065 170.244 213.625 168.9C213.633 168.868 213.657 168.856 213.697 168.864C213.745 168.872 213.769 168.888 213.769 168.912L213.589 170.448C213.573 170.544 213.553 170.608 213.529 170.64C213.513 170.664 213.469 170.692 213.397 170.724C212.701 171.004 211.961 171.144 211.177 171.144C210.201 171.144 209.389 170.952 208.741 170.568C208.093 170.176 207.613 169.68 207.301 169.08C206.997 168.48 206.845 167.856 206.845 167.208C206.845 166.456 207.049 165.788 207.457 165.204C207.873 164.62 208.421 164.168 209.101 163.848C209.781 163.528 210.509 163.368 211.285 163.368ZM218.893 169.98C218.893 170.196 218.909 170.352 218.941 170.448C218.981 170.544 219.053 170.608 219.157 170.64C219.261 170.672 219.429 170.688 219.661 170.688H220.381C220.949 170.688 221.429 170.532 221.821 170.22C222.213 169.9 222.473 169.472 222.601 168.936C222.609 168.912 222.633 168.904 222.673 168.912C222.713 168.912 222.733 168.924 222.733 168.948C222.661 169.7 222.625 170.324 222.625 170.82C222.625 170.884 222.613 170.932 222.589 170.964C222.565 170.988 222.517 171 222.445 171H216.829C216.813 171 216.805 170.976 216.805 170.928C216.805 170.88 216.813 170.856 216.829 170.856C217.101 170.856 217.297 170.836 217.417 170.796C217.545 170.756 217.629 170.68 217.669 170.568C217.717 170.448 217.741 170.268 217.741 170.028V164.472C217.741 164.232 217.717 164.056 217.669 163.944C217.629 163.832 217.545 163.756 217.417 163.716C217.289 163.668 217.093 163.644 216.829 163.644C216.813 163.644 216.805 163.62 216.805 163.572C216.805 163.524 216.813 163.5 216.829 163.5L217.441 163.512C217.793 163.528 218.081 163.536 218.305 163.536C218.545 163.536 218.841 163.528 219.193 163.512L219.793 163.5C219.817 163.5 219.829 163.524 219.829 163.572C219.829 163.62 219.817 163.644 219.793 163.644C219.529 163.644 219.333 163.668 219.205 163.716C219.085 163.756 219.001 163.836 218.953 163.956C218.913 164.068 218.893 164.244 218.893 164.484V169.98ZM231.949 164.964C231.949 164.548 231.853 164.224 231.661 163.992C231.477 163.76 231.209 163.644 230.857 163.644C230.841 163.644 230.833 163.62 230.833 163.572C230.833 163.524 230.841 163.5 230.857 163.5L231.409 163.512C231.713 163.528 231.953 163.536 232.129 163.536C232.273 163.536 232.489 163.528 232.777 163.512L233.305 163.5C233.321 163.5 233.329 163.524 233.329 163.572C233.329 163.62 233.321 163.644 233.305 163.644C232.993 163.644 232.749 163.76 232.573 163.992C232.405 164.224 232.321 164.548 232.321 164.964V168.324C232.321 168.9 232.197 169.404 231.949 169.836C231.709 170.26 231.365 170.588 230.917 170.82C230.477 171.052 229.965 171.168 229.381 171.168C228.797 171.168 228.277 171.056 227.821 170.832C227.365 170.6 227.009 170.272 226.753 169.848C226.505 169.416 226.381 168.912 226.381 168.336V164.472C226.381 164.232 226.357 164.056 226.309 163.944C226.261 163.832 226.173 163.756 226.045 163.716C225.925 163.668 225.733 163.644 225.469 163.644C225.445 163.644 225.433 163.62 225.433 163.572C225.433 163.524 225.445 163.5 225.469 163.5L226.093 163.512C226.445 163.528 226.729 163.536 226.945 163.536C227.185 163.536 227.481 163.528 227.833 163.512L228.433 163.5C228.457 163.5 228.469 163.524 228.469 163.572C228.469 163.62 228.457 163.644 228.433 163.644C228.169 163.644 227.973 163.668 227.845 163.716C227.725 163.764 227.641 163.848 227.593 163.968C227.545 164.08 227.521 164.256 227.521 164.496V167.916C227.521 168.868 227.717 169.58 228.109 170.052C228.509 170.516 229.065 170.748 229.777 170.748C230.457 170.748 230.989 170.54 231.373 170.124C231.757 169.7 231.949 169.104 231.949 168.336V164.964ZM239.883 166.788C240.539 166.86 241.063 167.08 241.455 167.448C241.847 167.816 242.043 168.272 242.043 168.816C242.043 169.232 241.927 169.612 241.695 169.956C241.471 170.292 241.155 170.56 240.747 170.76C240.347 170.952 239.899 171.048 239.403 171.048C239.171 171.048 238.903 171.036 238.599 171.012C238.495 171.004 238.363 170.996 238.203 170.988C238.043 170.98 237.863 170.976 237.663 170.976L236.799 170.988C236.647 170.996 236.439 171 236.175 171C236.151 171 236.139 170.976 236.139 170.928C236.139 170.88 236.151 170.856 236.175 170.856C236.431 170.856 236.623 170.836 236.751 170.796C236.879 170.748 236.967 170.668 237.015 170.556C237.071 170.444 237.099 170.268 237.099 170.028V164.472C237.099 164.24 237.071 164.068 237.015 163.956C236.967 163.836 236.879 163.756 236.751 163.716C236.631 163.668 236.443 163.644 236.187 163.644C236.171 163.644 236.163 163.62 236.163 163.572C236.163 163.524 236.171 163.5 236.187 163.5L236.811 163.512C237.163 163.528 237.447 163.536 237.663 163.536C237.887 163.536 238.123 163.524 238.371 163.5C238.459 163.492 238.563 163.484 238.683 163.476C238.811 163.468 238.955 163.464 239.115 163.464C239.827 163.464 240.371 163.604 240.747 163.884C241.131 164.156 241.323 164.536 241.323 165.024C241.323 165.4 241.195 165.744 240.939 166.056C240.691 166.368 240.339 166.612 239.883 166.788ZM238.911 163.704C238.655 163.704 238.479 163.756 238.383 163.86C238.295 163.964 238.251 164.176 238.251 164.496V166.776L238.755 166.788C239.227 166.788 239.583 166.636 239.823 166.332C240.063 166.02 240.183 165.62 240.183 165.132C240.183 164.676 240.075 164.324 239.859 164.076C239.643 163.828 239.327 163.704 238.911 163.704ZM239.211 170.772C240.291 170.772 240.831 170.216 240.831 169.104C240.831 168.496 240.671 168.008 240.351 167.64C240.039 167.272 239.579 167.088 238.971 167.088C238.683 167.088 238.443 167.096 238.251 167.112V170.028C238.251 170.212 238.275 170.356 238.323 170.46C238.371 170.564 238.463 170.644 238.599 170.7C238.735 170.748 238.939 170.772 239.211 170.772Z" fill="#4E4E4E"/>
</g>
</svg>
