<svg width="534" height="412" viewBox="0 0 534 412" fill="none" xmlns="http://www.w3.org/2000/svg">
<rect x="0.5" width="533" height="412" fill="#BB9B8C"/>
<path opacity="0.2" d="M11 10.5H523V401.5H11V10.5Z" stroke="white"/>
<mask id="mask0_301_8573" style="mask-type:alpha" maskUnits="userSpaceOnUse" x="0" y="0" width="534" height="412">
<rect x="0.5" width="533" height="412" fill="#ECECEC"/>
</mask>
<g mask="url(#mask0_301_8573)">
<g opacity="0.08">
<path d="M137.465 257.427C158.687 212.654 181.868 175.397 207.007 145.658C232.147 115.591 256.47 92.8775 279.977 77.5174C283.568 75.2297 287.323 73.2688 291.241 71.6348C295.485 70.0007 300.056 68.6935 304.953 67.713C309.851 66.4058 313.768 66.896 316.707 69.1837C319.645 71.1446 321.114 74.9029 321.114 80.4587C319.156 89.2826 312.463 101.701 301.035 117.715C289.608 133.402 278.998 146.801 269.203 157.913C259.408 168.698 250.104 178.666 241.288 187.816C235.085 194.353 220.393 206.935 197.213 225.563L172.726 242.721L154.606 253.996C153.3 254.649 151.668 256.283 149.709 258.898C145.138 267.068 141.383 274.748 138.445 281.938C128.977 305.795 123.59 320.502 122.284 326.058C120.651 328.672 119.345 333.411 118.366 340.274C117.387 346.81 118.856 350.568 122.774 351.549C131.915 350.568 144.322 343.215 159.993 329.489C175.991 315.763 191.989 300.403 207.987 283.409C223.985 266.088 232.963 256.61 234.922 254.976C239.166 251.708 241.941 249.584 243.247 248.603L243.737 249.093C242.758 250.401 239.982 253.179 235.412 257.427C234.106 258.734 228.066 265.107 217.292 276.546C206.517 287.657 195.743 298.769 184.969 309.88C174.522 320.665 162.931 330.796 150.198 340.274C137.465 349.425 127.344 354 119.835 354C105.796 350.732 107.592 327.528 125.222 284.389L137.465 257.427ZM155.586 249.093C176.481 238.309 202.6 218.863 233.942 190.758C246.022 180.3 262.673 161.998 283.895 135.853C305.443 109.382 316.87 90.9167 318.176 80.4587C318.176 76.2102 316.707 73.4323 313.768 72.125C311.157 70.8178 308.055 70.8178 304.464 72.125C300.872 73.1054 297.444 74.5761 294.179 76.537C290.914 78.171 288.466 79.8051 286.833 81.4391C279.977 87.6486 273.284 94.0214 266.754 100.558C260.225 106.767 254.185 112.813 248.634 118.696C243.084 124.578 238.023 129.971 233.453 134.873C228.882 139.775 224.311 145.004 219.74 150.56C215.496 155.789 211.905 160.201 208.966 163.796C206.028 167.391 202.763 171.639 199.172 176.541C195.907 181.443 193.458 184.875 191.826 186.836C190.52 188.797 188.397 191.901 185.459 196.15C182.847 200.072 181.378 202.196 181.051 202.523C168.318 220.824 159.83 236.348 155.586 249.093Z" fill="white"/>
<path d="M255.016 220.171C257.954 217.556 261.056 217.066 264.321 218.7C266.606 219.68 266.443 221.478 263.831 224.092C251.098 240.433 242.446 252.035 237.876 258.898C233.958 265.761 234.284 269.519 238.855 270.173C244.732 269.846 256.322 259.878 273.626 240.27C277.87 234.714 284.4 227.361 293.215 218.21C299.745 211.02 304.642 208.569 307.907 210.857C310.192 212.491 309.539 215.432 305.948 219.68C296.153 231.446 287.012 244.028 278.523 257.427C277.217 260.042 276.075 262.166 275.095 263.8C274.442 265.107 273.136 267.885 271.177 272.134C269.545 276.055 268.402 279.324 267.749 281.938C267.096 284.553 266.606 287.494 266.28 290.762C265.953 294.03 266.443 296.481 267.749 298.115C269.382 299.749 271.83 300.566 275.095 300.566C280.319 300.566 286.685 298.115 294.195 293.213C301.704 287.984 310.192 281.284 319.661 273.114C329.129 264.617 334.352 260.042 335.332 259.388C342.841 253.179 347.085 249.911 348.065 249.584C349.697 248.93 346.922 251.871 339.739 258.408C339.087 258.734 338.434 259.225 337.781 259.878C335.169 262.166 330.761 266.088 324.558 271.643C318.681 276.872 313.784 280.958 309.866 283.899C306.275 286.84 301.704 290.108 296.153 293.703C290.93 297.298 285.869 300.076 280.972 302.037C273.789 303.998 268.402 302.691 264.811 298.115C261.219 293.213 259.587 287.657 259.913 281.448C260.566 274.912 261.383 269.356 262.362 264.78C262.689 263.8 263.505 261.676 264.811 258.408C266.117 255.139 266.77 253.179 266.77 252.525C266.443 251.871 264.974 252.852 262.362 255.466L248.65 267.232C243.752 271.807 239.345 273.114 235.427 271.153C226.938 267.558 226.285 259.878 233.468 248.113C240.651 236.021 247.833 226.707 255.016 220.171Z" fill="white"/>
<path d="M343.852 238.799C353.647 226.38 363.115 219.19 372.257 217.229C380.093 215.922 384.5 216.903 385.48 220.171C387.112 224.092 385.316 228.341 380.093 232.916C379.44 232.916 379.113 232.426 379.113 231.446L382.541 226.543C384.5 222.622 384.01 220.824 381.072 221.151C374.869 221.478 367.36 227.687 358.544 239.779L356.096 243.211C344.016 261.186 337.323 271.317 336.017 273.604C329.814 284.389 328.834 292.396 333.078 297.625C338.302 302.2 346.464 301.383 357.565 295.174C368.665 288.965 380.746 280.467 393.805 269.683C407.191 258.571 415.843 252.035 419.761 250.074C420.087 250.074 420.25 250.237 420.25 250.564C417.312 252.525 410.782 257.591 400.661 265.761C390.867 273.604 382.868 279.814 376.664 284.389C370.461 288.964 363.278 293.376 355.116 297.625C347.281 301.547 341.241 303.344 336.996 303.017C329.487 302.037 324.753 298.605 322.794 292.723C320.835 286.513 320.998 280.304 323.284 274.095C325.243 267.558 327.855 261.839 331.119 256.937L343.852 238.799Z" fill="white"/>
<path d="M435.394 218.21C441.924 211.02 446.821 208.569 450.086 210.857C452.371 212.491 451.718 215.432 448.127 219.68C438.332 231.446 429.191 244.028 420.702 257.427C419.396 260.042 418.253 262.166 417.274 263.8C416.621 265.107 415.315 267.885 413.356 272.134C411.724 276.055 410.581 279.324 409.928 281.938C409.275 284.553 408.785 287.494 408.459 290.762C408.132 294.03 408.622 296.481 409.928 298.115C411.56 299.749 414.009 300.566 417.274 300.566C422.498 300.566 428.864 298.115 436.373 293.213C443.883 287.984 452.371 281.284 461.839 273.114C471.307 264.617 476.531 260.042 477.511 259.388C485.02 253.179 489.264 249.911 490.244 249.584C491.876 248.93 489.101 251.871 481.918 258.408C481.265 258.734 480.612 259.225 479.959 259.878C477.347 262.166 472.94 266.088 466.737 271.643C460.86 276.872 455.963 280.958 452.045 283.899C448.453 286.84 443.882 290.108 438.332 293.703C433.108 297.298 428.048 300.076 423.151 302.037C415.968 303.998 410.581 302.691 406.989 298.115C403.398 293.213 401.929 287.657 402.582 281.448C402.908 274.912 403.561 269.356 404.541 264.78C409.112 250.728 419.396 235.204 435.394 218.21ZM454.983 193.209C461.513 186.019 466.41 183.568 469.675 185.855C471.96 187.489 471.307 190.431 467.716 194.679C461.186 201.869 456.289 204.32 453.024 202.033C450.739 200.399 451.392 197.457 454.983 193.209Z" fill="white"/>
<path d="M486.892 264.78C481.015 266.741 477.587 264.944 476.608 259.388C475.628 252.525 480.852 244.355 492.279 234.877C498.809 230.302 505.175 227.851 511.379 227.524C517.582 227.197 520.847 229.485 521.173 234.387C521.173 234.714 522.479 233.733 525.091 231.446C526.397 230.465 528.029 228.831 529.988 226.543C532.274 224.256 534.233 222.458 535.865 221.151C537.498 219.844 539.62 219.68 542.232 220.661C544.844 221.641 545.333 223.439 543.701 226.053C521.173 253.179 506.971 274.095 501.094 288.801C498.809 297.298 499.952 301.383 504.522 301.057C508.44 300.403 518.072 294.684 533.416 283.899C551.047 270.173 564.759 260.695 574.554 255.466C585.328 249.911 589.572 248.113 587.287 250.074C586.307 251.054 584.348 252.525 581.41 254.486C572.921 258.408 563.78 263.963 553.985 271.153C550.067 273.768 544.191 278.016 536.355 283.899C528.519 289.455 522.642 293.54 518.725 296.154C505.339 305.632 497.176 305.632 494.238 296.154C491.3 286.35 492.606 276.546 498.156 266.741L503.053 256.937C502.074 257.264 499.625 258.571 495.707 260.859C491.789 262.82 488.851 264.127 486.892 264.78ZM505.992 232.426C494.238 245.825 486.892 254.649 483.954 258.898C482.974 260.205 482.648 261.512 482.974 262.82C483.301 264.127 484.607 264.29 486.892 263.31C497.993 258.734 508.277 250.401 517.745 238.309C519.051 235.367 519.214 233.08 518.235 231.446C517.582 229.812 515.786 228.995 512.848 228.995C510.236 228.995 507.95 230.138 505.992 232.426Z" fill="white"/>
<path d="M574.921 250.564C582.104 245.662 586.348 243.047 587.654 242.721C589.287 242.394 590.429 242.557 591.082 243.211C592.062 243.864 592.388 244.845 592.062 246.152L591.082 251.545L591.572 252.035C593.531 251.054 594.837 250.237 595.49 249.584C599.081 246.969 604.305 242.884 611.161 237.328C618.017 231.772 623.241 227.851 626.833 225.563C630.75 222.622 635.321 220.334 640.545 218.7C646.748 217.393 650.34 218.7 651.319 222.622C652.625 226.217 651.646 229.648 648.381 232.916C645.116 237.818 639.239 246.642 630.75 259.388C622.588 272.134 616.385 282.101 612.141 289.291C600.061 311.515 598.591 322.789 607.733 323.116C608.713 323.116 610.018 322.953 611.651 322.626C618.181 320.665 626.18 315.926 635.648 308.41C645.116 300.566 653.441 292.886 660.624 285.37C668.133 277.853 675.153 270.5 681.682 263.31C688.212 256.12 691.64 252.362 691.967 252.035C692.946 251.054 693.762 250.564 694.415 250.564C695.068 250.237 695.232 250.237 694.905 250.564L693.436 253.015C693.109 253.342 690.987 255.793 687.069 260.368C683.152 264.944 680.54 267.885 679.234 269.192C677.928 270.5 675.316 273.278 671.398 277.526C667.807 281.775 664.868 284.879 662.583 286.84C660.624 288.801 657.686 291.742 653.768 295.664C650.176 299.259 647.075 302.037 644.463 303.998C641.851 305.959 638.749 308.41 635.158 311.351C631.893 313.966 628.628 316.253 625.363 318.214C622.425 319.848 619.487 321.319 616.548 322.626C610.998 325.241 605.937 325.567 601.367 323.607C596.796 321.646 594.184 318.051 593.531 312.822C592.878 309.88 593.204 305.305 594.51 299.096C596.796 291.252 601.856 281.448 609.692 269.683L636.627 231.936L641.524 223.602C642.504 222.622 642.504 221.805 641.524 221.151C640.872 220.824 639.892 220.824 638.586 221.151C634.015 223.439 625.527 229.321 613.12 238.799C603.978 245.989 595.816 256.283 588.634 269.683C586.348 273.931 582.757 274.258 577.86 270.663C575.248 268.702 574.431 267.068 575.411 265.761C576.39 263.8 578.186 261.349 580.798 258.408C583.41 255.139 585.042 253.015 585.695 252.035C585.695 251.708 586.185 250.891 587.164 249.584C588.144 248.276 588.634 247.296 588.634 246.642C588.96 245.989 588.634 245.335 587.654 244.682L575.901 252.035L574.921 250.564Z" fill="white"/>
<path d="M760.644 251.545C747.911 256.774 734.362 259.388 719.996 259.388C719.343 259.388 718.69 259.388 718.037 259.388C717.384 259.061 716.895 258.898 716.568 258.898C725.057 248.113 728.648 235.041 727.342 219.68C726.036 203.993 719.343 196.804 707.263 198.111C695.836 199.418 688.327 205.301 684.736 215.759C681.144 226.217 682.613 235.858 689.143 244.682L683.756 252.035C673.961 263.473 670.37 273.931 672.982 283.409C674.288 286.35 677.063 288.147 681.307 288.801C685.225 289.455 688.653 288.801 691.592 286.84C700.08 280.958 708.079 272.297 715.589 260.859C718.853 261.512 723.261 261.512 728.811 260.859C740.891 259.551 750.686 257.427 758.195 254.486C761.46 253.832 764.398 252.362 767.01 250.074C767.663 249.42 767.663 249.093 767.01 249.093C766.031 249.093 763.909 249.911 760.644 251.545ZM695.02 204.484C711.018 195.333 720.812 198.274 724.404 213.308C727.342 226.053 725.546 238.799 719.017 251.545C717.711 254.486 716.242 256.774 714.609 258.408C712.65 258.408 710.038 257.591 706.773 255.957C705.467 255.303 703.998 254.159 702.366 252.525L699.427 250.564L701.876 247.623L711.671 236.838C712.65 235.858 713.303 234.55 713.63 232.916C713.956 231.282 713.63 230.138 712.65 229.485C711.997 228.504 710.691 228.341 708.732 228.995C705.141 230.629 699.264 235.204 691.102 242.721C686.205 236.184 684.246 229.321 685.225 222.132C686.531 214.615 689.796 208.732 695.02 204.484ZM713.14 260.368L709.712 265.271C702.856 274.748 696.816 281.121 691.592 284.389C688 286.677 685.389 287.33 683.756 286.35C682.124 285.37 681.471 283.409 681.797 280.467C682.45 277.526 686.205 270.5 693.061 259.388C695.346 255.793 696.979 253.505 697.958 252.525C698.285 252.852 698.775 253.342 699.427 253.996C700.407 254.649 701.386 255.303 702.366 255.957C703.345 256.61 704.325 257.1 705.304 257.427C709.222 259.388 711.834 260.368 713.14 260.368Z" fill="white"/>
</g>
</g>
</svg>
