<svg width="16" height="8" viewBox="0 0 16 8" fill="none" xmlns="http://www.w3.org/2000/svg">
<path d="M7.64256 7.99996C7.73766 7.99854 7.8271 7.96021 7.89381 7.8935L15.1618 0.625475C15.2569 0.534625 15.2953 0.398349 15.2612 0.272011C15.2286 0.144252 15.1292 0.0448851 15.0014 0.0122356C14.8751 -0.0218335 14.7388 0.0164942 14.648 0.111603L7.63688 7.12269L0.625793 0.111602C0.534943 0.016493 0.398667 -0.0218347 0.272329 0.0122343C0.14457 0.0448838 0.0452029 0.144251 0.0125539 0.272009C-0.0215152 0.398348 0.016812 0.534623 0.111921 0.625474L7.37994 7.8935C7.4495 7.96305 7.54461 8.00138 7.64256 7.99996Z" fill="white"/>
</svg>
