<svg width="1349" height="589" viewBox="0 0 1349 589" fill="none" xmlns="http://www.w3.org/2000/svg">
<g opacity="0.08">
<path d="M55.3372 390.397C98.8872 298.607 146.457 222.227 198.047 161.257C249.637 99.6168 299.552 53.0518 347.792 21.5618C355.162 16.8718 362.867 12.8518 370.907 9.50184C379.617 6.1518 388.997 3.4718 399.047 1.46183C409.097 -1.21818 417.137 -0.213197 423.167 4.47678C429.197 8.49681 432.212 16.2018 432.212 27.5918C428.192 45.6818 414.457 71.1418 391.007 103.972C367.557 136.132 345.782 163.602 325.682 186.382C305.582 208.492 286.487 228.927 268.397 247.687C255.667 261.087 225.517 286.882 177.947 325.072L127.697 360.247L90.5122 383.362C87.8322 384.702 84.4822 388.052 80.4622 393.412C71.0822 410.162 63.3772 425.907 57.3472 440.647C37.9172 489.557 26.8622 519.707 24.1822 531.097C20.8322 536.457 18.1522 546.172 16.1422 560.242C14.1322 573.642 17.1472 581.347 25.1872 583.357C43.9472 581.347 69.4072 566.272 101.567 538.132C134.397 509.992 167.227 478.502 200.057 443.662C232.887 408.152 251.312 388.722 255.332 385.372C264.042 378.672 269.737 374.317 272.417 372.307L273.422 373.312C271.412 375.992 265.717 381.687 256.337 390.397C253.657 393.077 241.262 406.142 219.152 429.592C197.042 452.372 174.932 475.152 152.822 497.932C131.382 520.042 107.597 540.812 81.4672 560.242C55.3372 579.002 34.5672 588.382 19.1572 588.382C-9.65283 581.682 -5.96783 534.112 30.2122 445.672L55.3372 390.397ZM92.5222 373.312C135.402 351.202 189.002 311.337 253.322 253.717C278.112 232.277 312.282 194.757 355.832 141.157C400.052 86.8868 423.502 49.0318 426.182 27.5918C426.182 18.8818 423.167 13.1868 417.137 10.5068C411.777 7.82684 405.412 7.82684 398.042 10.5068C390.672 12.5168 383.637 15.5318 376.937 19.5519C370.237 22.9019 365.212 26.2518 361.862 29.6018C347.792 42.3318 334.057 55.3968 320.657 68.7968C307.257 81.5268 294.862 93.9218 283.472 105.982C272.082 118.042 261.697 129.097 252.317 139.147C242.937 149.197 233.557 159.917 224.177 171.307C215.467 182.027 208.097 191.072 202.067 198.442C196.037 205.812 189.337 214.522 181.967 224.572C175.267 234.622 170.242 241.657 166.892 245.677C164.212 249.697 159.857 256.062 153.827 264.772C148.467 272.812 145.452 277.167 144.782 277.837C118.652 315.357 101.232 347.182 92.5222 373.312Z" fill="#BB9B8C"/>
<path d="M296.569 314.017C302.599 308.657 308.964 307.652 315.664 311.002C320.354 313.012 320.019 316.697 314.659 322.057C288.529 355.557 270.774 379.342 261.394 393.412C253.354 407.482 254.024 415.187 263.404 416.527C275.464 415.857 299.249 395.422 334.759 355.222C343.469 343.832 356.869 328.757 374.959 309.997C388.359 295.257 398.409 290.232 405.109 294.922C409.799 298.272 408.459 304.302 401.089 313.012C380.989 337.132 362.229 362.927 344.809 390.397C342.129 395.757 339.784 400.112 337.774 403.462C336.434 406.142 333.754 411.837 329.734 420.547C326.384 428.587 324.039 435.287 322.699 440.647C321.359 446.007 320.354 452.037 319.684 458.737C319.014 465.437 320.019 470.462 322.699 473.812C326.049 477.162 331.074 478.837 337.774 478.837C348.494 478.837 361.559 473.812 376.969 463.762C392.379 453.042 409.799 439.307 429.229 422.557C448.659 405.137 459.379 395.757 461.389 394.417C476.799 381.687 485.509 374.987 487.519 374.317C490.869 372.977 485.174 379.007 470.434 392.407C469.094 393.077 467.754 394.082 466.414 395.422C461.054 400.112 452.009 408.152 439.279 419.542C427.219 430.262 417.169 438.637 409.129 444.667C401.759 450.697 392.379 457.397 380.989 464.767C370.269 472.137 359.884 477.832 349.834 481.852C335.094 485.872 324.039 483.192 316.669 473.812C309.299 463.762 305.949 452.372 306.619 439.642C307.959 426.242 309.634 414.852 311.644 405.472C312.314 403.462 313.989 399.107 316.669 392.407C319.349 385.707 320.689 381.687 320.689 380.347C320.019 379.007 317.004 381.017 311.644 386.377L283.504 410.497C273.454 419.877 264.409 422.557 256.369 418.537C238.949 411.167 237.609 395.422 252.349 371.302C267.089 346.512 281.829 327.417 296.569 314.017Z" fill="#BB9B8C"/>
<path d="M478.874 352.207C498.974 326.747 518.404 312.007 537.164 307.987C553.244 305.307 562.289 307.317 564.299 314.017C567.649 322.057 563.964 330.767 553.244 340.147C551.904 340.147 551.234 339.142 551.234 337.132L558.269 327.082C562.289 319.042 561.284 315.357 555.254 316.027C542.524 316.697 527.114 329.427 509.024 354.217L503.999 361.252C479.209 398.102 465.474 418.872 462.794 423.562C450.064 445.672 448.054 462.087 456.764 472.807C467.484 482.187 484.234 480.512 507.014 467.782C529.794 455.052 554.584 437.632 581.384 415.522C608.854 392.742 626.609 379.342 634.649 375.322C635.319 375.322 635.654 375.657 635.654 376.327C629.624 380.347 616.224 390.732 595.454 407.482C575.354 423.562 558.939 436.292 546.209 445.672C533.479 455.052 518.739 464.097 501.989 472.807C485.909 480.847 473.514 484.532 464.804 483.862C449.394 481.852 439.679 474.817 435.659 462.757C431.639 450.027 431.974 437.297 436.664 424.567C440.684 411.167 446.044 399.442 452.744 389.392L478.874 352.207Z" fill="#BB9B8C"/>
<path d="M666.731 309.997C680.131 295.257 690.18 290.232 696.88 294.922C701.57 298.272 700.231 304.302 692.861 313.012C672.761 337.132 654.001 362.927 636.581 390.397C633.901 395.757 631.556 400.112 629.546 403.462C628.206 406.142 625.525 411.837 621.505 420.547C618.155 428.587 615.811 435.287 614.471 440.647C613.131 446.007 612.126 452.037 611.456 458.737C610.786 465.437 611.791 470.462 614.471 473.812C617.821 477.162 622.846 478.837 629.546 478.837C640.266 478.837 653.331 473.812 668.741 463.762C684.151 453.042 701.571 439.307 721.001 422.557C740.431 405.137 751.151 395.757 753.161 394.417C768.571 381.687 777.281 374.987 779.291 374.317C782.641 372.977 776.946 379.007 762.206 392.407C760.866 393.077 759.526 394.082 758.186 395.422C752.826 400.112 743.781 408.152 731.051 419.542C718.991 430.262 708.941 438.637 700.901 444.667C693.531 450.697 684.15 457.397 672.76 464.767C662.04 472.137 651.656 477.832 641.606 481.852C626.866 485.872 615.81 483.192 608.44 473.812C601.07 463.762 598.056 452.372 599.396 439.642C600.066 426.242 601.406 414.852 603.416 405.472C612.796 376.662 633.901 344.837 666.731 309.997ZM706.931 258.742C720.331 244.002 730.381 238.977 737.081 243.667C741.771 247.017 740.431 253.047 733.061 261.757C719.661 276.497 709.611 281.522 702.911 276.832C698.221 273.482 699.561 267.452 706.931 258.742Z" fill="#BB9B8C"/>
<path d="M772.413 405.472C760.353 409.492 753.317 405.807 751.307 394.417C749.297 380.347 760.018 363.597 783.468 344.167C796.868 334.787 809.933 329.762 822.663 329.092C835.393 328.422 842.093 333.112 842.763 343.162C842.763 343.832 845.443 341.822 850.803 337.132C853.483 335.122 856.833 331.772 860.853 327.082C865.543 322.392 869.563 318.707 872.913 316.027C876.263 313.347 880.618 313.012 885.978 315.022C891.338 317.032 892.342 320.717 888.992 326.077C842.762 381.687 813.617 424.567 801.557 454.717C796.867 472.137 799.213 480.512 808.593 479.842C816.633 478.502 836.398 466.777 867.888 444.667C904.068 416.527 932.207 397.097 952.307 386.377C974.417 374.987 983.128 371.302 978.438 375.322C976.428 377.332 972.408 380.347 966.378 384.367C948.958 392.407 930.198 403.797 910.098 418.537C902.058 423.897 889.998 432.607 873.918 444.667C857.838 456.057 845.777 464.432 837.737 469.792C810.267 489.222 793.517 489.222 787.487 469.792C781.457 449.692 784.138 429.592 795.528 409.492L805.578 389.392C803.568 390.062 798.543 392.742 790.503 397.432C782.463 401.452 776.433 404.132 772.413 405.472ZM811.608 339.142C787.488 366.612 772.413 384.702 766.383 393.412C764.373 396.092 763.702 398.772 764.372 401.452C765.042 404.132 767.723 404.467 772.413 402.457C795.193 393.077 816.298 375.992 835.728 351.202C838.408 345.172 838.743 340.482 836.733 337.132C835.393 333.782 831.707 332.107 825.677 332.107C820.317 332.107 815.628 334.452 811.608 339.142Z" fill="#BB9B8C"/>
<path d="M953.061 376.327C967.801 366.277 976.511 360.917 979.191 360.247C982.541 359.577 984.886 359.912 986.226 361.252C988.236 362.592 988.906 364.602 988.236 367.282L986.226 378.337L987.231 379.342C991.251 377.332 993.931 375.657 995.271 374.317C1002.64 368.957 1013.36 360.582 1027.43 349.192C1041.5 337.802 1052.22 329.762 1059.59 325.072C1067.63 319.042 1077.01 314.352 1087.73 311.002C1100.46 308.322 1107.83 311.002 1109.84 319.042C1112.52 326.412 1110.51 333.447 1103.81 340.147C1097.11 350.197 1085.05 368.287 1067.63 394.417C1050.88 420.547 1038.15 440.982 1029.44 455.722C1004.65 501.282 1001.64 524.397 1020.4 525.067C1022.41 525.067 1025.09 524.732 1028.44 524.062C1041.84 520.042 1058.25 510.327 1077.68 494.917C1097.11 478.837 1114.2 463.092 1128.94 447.682C1144.35 432.272 1158.75 417.197 1172.15 402.457C1185.55 387.717 1192.59 380.012 1193.26 379.342C1195.27 377.332 1196.94 376.327 1198.28 376.327C1199.62 375.657 1199.96 375.657 1199.29 376.327L1196.27 381.352C1195.6 382.022 1191.25 387.047 1183.21 396.427C1175.17 405.807 1169.81 411.837 1167.13 414.517C1164.45 417.197 1159.09 422.892 1151.05 431.602C1143.68 440.312 1137.65 446.677 1132.96 450.697C1128.94 454.717 1122.91 460.747 1114.87 468.787C1107.5 476.157 1101.13 481.852 1095.77 485.872C1090.41 489.892 1084.05 494.917 1076.68 500.947C1069.98 506.307 1063.28 510.997 1056.58 515.017C1050.55 518.367 1044.52 521.382 1038.49 524.062C1027.1 529.422 1016.71 530.092 1007.33 526.072C997.951 522.052 992.591 514.682 991.251 503.962C989.911 497.932 990.581 488.552 993.261 475.822C997.951 459.742 1008.34 439.642 1024.42 415.522L1079.69 338.137L1089.74 321.052C1091.75 319.042 1091.75 317.367 1089.74 316.027C1088.4 315.357 1086.39 315.357 1083.71 316.027C1074.33 320.717 1056.91 332.777 1031.45 352.207C1012.69 366.947 995.941 388.052 981.201 415.522C976.511 424.232 969.141 424.902 959.091 417.532C953.731 413.512 952.056 410.162 954.066 407.482C956.076 403.462 959.761 398.437 965.121 392.407C970.481 385.707 973.831 381.352 975.171 379.342C975.171 378.672 976.176 376.997 978.186 374.317C980.196 371.637 981.201 369.627 981.201 368.287C981.871 366.947 981.201 365.607 979.191 364.267L955.071 379.342L953.061 376.327Z" fill="#BB9B8C"/>
<path d="M1334.19 378.337C1308.06 389.057 1280.26 394.417 1250.78 394.417C1249.44 394.417 1248.1 394.417 1246.76 394.417C1245.42 393.747 1244.41 393.412 1243.74 393.412C1261.16 371.302 1268.53 344.502 1265.85 313.012C1263.17 280.852 1249.44 266.112 1224.65 268.792C1201.2 271.472 1185.79 283.532 1178.42 304.972C1171.05 326.412 1174.06 346.177 1187.46 364.267L1176.41 379.342C1156.31 402.792 1148.94 424.232 1154.3 443.662C1156.98 449.692 1162.67 453.377 1171.38 454.717C1179.42 456.057 1186.46 454.717 1192.49 450.697C1209.91 438.637 1226.32 420.882 1241.73 397.432C1248.43 398.772 1257.48 398.772 1268.87 397.432C1293.66 394.752 1313.76 390.397 1329.17 384.367C1335.87 383.027 1341.9 380.012 1347.26 375.322C1348.6 373.982 1348.6 373.312 1347.26 373.312C1345.25 373.312 1340.89 374.987 1334.19 378.337ZM1199.52 281.857C1232.35 263.097 1252.45 269.127 1259.82 299.947C1265.85 326.077 1262.17 352.207 1248.77 378.337C1246.09 384.367 1243.07 389.057 1239.72 392.407C1235.7 392.407 1230.34 390.732 1223.64 387.382C1220.96 386.042 1217.95 383.697 1214.6 380.347L1208.57 376.327L1213.59 370.297L1233.69 348.187C1235.7 346.177 1237.04 343.497 1237.71 340.147C1238.38 336.797 1237.71 334.452 1235.7 333.112C1234.36 331.102 1231.68 330.767 1227.66 332.107C1220.29 335.457 1208.23 344.837 1191.48 360.247C1181.43 346.847 1177.41 332.777 1179.42 318.037C1182.1 302.627 1188.8 290.567 1199.52 281.857ZM1236.71 396.427L1229.67 406.477C1215.6 425.907 1203.21 438.972 1192.49 445.672C1185.12 450.362 1179.76 451.702 1176.41 449.692C1173.06 447.682 1171.72 443.662 1172.39 437.632C1173.73 431.602 1181.43 417.197 1195.5 394.417C1200.19 387.047 1203.54 382.357 1205.55 380.347C1206.22 381.017 1207.23 382.022 1208.57 383.362C1210.58 384.702 1212.59 386.042 1214.6 387.382C1216.61 388.722 1218.62 389.727 1220.63 390.397C1228.67 394.417 1234.03 396.427 1236.71 396.427Z" fill="#BB9B8C"/>
</g>
</svg>
