<svg id="Layer_1" data-name="Layer 1" xmlns="http://www.w3.org/2000/svg" xmlns:xlink="http://www.w3.org/1999/xlink" viewBox="0 0 146 120"><defs><style>.cls-1,.cls-2{fill-rule:evenodd;}.cls-1{fill:url(#linear-gradient);}.cls-2{fill:#fff;}</style><linearGradient id="linear-gradient" x1="14.5" y1="83.07" x2="157.31" y2="83.07" gradientTransform="matrix(1, 0, 0, -1, 0, 122)" gradientUnits="userSpaceOnUse"><stop offset="0" stop-color="#967028"/><stop offset="0.4" stop-color="#f4e5a0"/><stop offset="0.5" stop-color="#f4e5a0"/><stop offset="1" stop-color="#775928"/></linearGradient></defs><path class="cls-1" d="M60.07,56.64C59.42,63.27,66,69.52,66.9,70.25c6.64,5.42,11.75,6,16.81,6,7.55-.21,11.56-3.75,13.9-5.17-1.34.67-8.44,2.65-13.79.81C74.35,68.35,71.26,60,70.07,57.17c-.43-1-1.77-3.9-3.95-4.45a6.67,6.67,0,0,0-1.57-.21A4.57,4.57,0,0,0,60.07,56.64ZM79.64.18h0l.68.16A36.85,36.85,0,0,1,93.57,6.88,38.24,38.24,0,0,1,106.2,27.51c.41,1.81,2.08,8.06-1.39,11.24,0,0,.72,2.69,2.65,2.85a3,3,0,0,0,3.31-2.28c.69-1.83.26-4.63,0-6.49a48.06,48.06,0,0,0-8.3-19.06,36.71,36.71,0,0,0-13-10.41,50.58,50.58,0,0,0-9.12-3Zm14,10.93a31.59,31.59,0,0,1,6.25,11.71c.51,1.8,2.1,8.54-3.51,10.56.47,2.52,1.62,5.2,4.45,5.47A4.25,4.25,0,0,0,105.25,36c.91-2,.67-5.36-.18-8.56C99.61,6.84,84.58,1.57,76,0,87.43,3.05,92.54,9.74,93.68,11.11ZM72.69.34h-.06A30.92,30.92,0,0,0,68,.82c10-.22,14.34,3.8,15.6,4.6,1.69,1.07,8.35,6.82,9.13,13.74.13,1.16.49,5.44-3.51,7.17A10.51,10.51,0,0,0,90.77,30a4.64,4.64,0,0,0,4.76,2.22c1.35-.23,3.55-1.18,3.94-4.81.26-2.5-1.08-9-7.33-16.64a30,30,0,0,0-9.46-7.44,32.55,32.55,0,0,0-5.56-2.26A13.46,13.46,0,0,0,72.69.34Zm23.5,6.07A36.6,36.6,0,0,1,107.06,19c3.54,7.1,5,13.13,5.14,18.28.4.63,1.33.62,1.92-.16s.51-2.3.4-3.25a34.76,34.76,0,0,0-2.06-8.29A42.39,42.39,0,0,0,100.39,8.37,43.26,43.26,0,0,0,92,3.23,38.45,38.45,0,0,0,83.44.51,40,40,0,0,1,96.19,6.41ZM40.88,38.55c-.69,1.83-.26,4.62,0,6.49a48.06,48.06,0,0,0,8.3,19.06A36.71,36.71,0,0,0,62.2,74.51a50.69,50.69,0,0,0,9.1,3A36.87,36.87,0,0,1,58.08,71,38.3,38.3,0,0,1,45.44,50.35c-.41-1.8-2.07-8.05,1.39-11.23,0,0-.7-2.69-2.64-2.85l-.37,0A3,3,0,0,0,40.88,38.55Zm-3.36,2.18c-.6.79-.5,2.3-.39,3.25a34.64,34.64,0,0,0,2.06,8.28A42.27,42.27,0,0,0,51.25,69.5a43.78,43.78,0,0,0,8.39,5.14,38.45,38.45,0,0,0,8.57,2.72,39.9,39.9,0,0,1-12.76-5.91A36.5,36.5,0,0,1,44.59,58.84c-3.53-7.09-5-13.12-5.14-18.27a.94.94,0,0,0-.82-.45A1.41,1.41,0,0,0,37.52,40.73ZM50.42,39h0a4.28,4.28,0,0,0-4,2.85c-.91,2-.67,5.37.18,8.57C52,71,67.07,76.3,75.63,77.87,64.22,74.82,59.11,68.12,58,66.76A31.77,31.77,0,0,1,51.72,55c-.51-1.79-2.1-8.53,3.51-10.55C54.76,42,53.61,39.28,50.78,39A2.11,2.11,0,0,0,50.42,39ZM53.75,6.93c3.8-1.92,10-2.5,14.09-1,9.49,3.5,12.55,11.91,13.74,14.77.43,1,1.78,3.9,4,4.45a4.59,4.59,0,0,0,6-3.92c.65-6.63-5.94-12.89-6.83-13.62C78.12,2.2,73,1.65,68,1.65,59.89,1.65,56.31,5.64,53.75,6.93ZM57,45.53h0a5.84,5.84,0,0,0-.81.08c-1.35.23-3.48,1.21-3.86,4.85C52,53,53,59.31,59.3,66.9A31.14,31.14,0,0,0,69,74.49a32.23,32.23,0,0,0,5.56,2.27c2.82.9,4.55,1,9.14.29-10,.22-14.34-3.8-15.6-4.6-1.69-1.08-8.35-6.82-9.13-13.74-.14-1.16-.49-5.44,3.51-7.18a10.53,10.53,0,0,0-1.52-3.79A4.66,4.66,0,0,0,57,45.53Z"/><path class="cls-2" d="M68.2,38.86V39a7.63,7.63,0,0,0,15.25,0,7.7,7.7,0,0,0,0-.83,7.63,7.63,0,0,0-15.15,0C68.22,38.36,68.21,38.61,68.2,38.86ZM82,38.39c0-.25,0-.5,0-.74a6.71,6.71,0,0,0-1.16-3.07,6.62,6.62,0,0,1,1.74,3.81,4.68,4.68,0,0,1,0,.74,6.84,6.84,0,0,1-12.51,3.76A6.84,6.84,0,0,0,82,38.39Z"/><path class="cls-2" d="M69.21,77.69l-.73-.17Z"/><path class="cls-2" d="M22.06,98.89v.89c2.85.14,2.82.35,2.82,2.66v10.64a7,7,0,0,0,.75,3.88c1.42,2.63,4.67,3,7.38,3a14.33,14.33,0,0,0,4-.61A6.86,6.86,0,0,0,40.11,117a7.64,7.64,0,0,0,1.31-4.32V101.79c0-1.72.56-2,2.44-2l.47,0v-.89C43.18,99,42,99,40.8,99s-2.37-.06-3.57-.15v.89l.47,0c1.82,0,2.35.26,2.35,2v9.4a8.75,8.75,0,0,1-1.19,4.94c-1.07,1.57-3.23,2-5.06,2-3.89,0-6.27-1.21-6.09-5.41V102.44c0-2.31,0-2.52,2.83-2.66v-.89c-1.43.09-2.83.15-4.28.15S23.4,99,22.06,98.89Z"/><path class="cls-2" d="M44.53,109.15c0,7,5.46,10.85,12,10.85a15.7,15.7,0,0,0,6.72-1.75l.6-1.32-.27-.3a11,11,0,0,1-6,1.86c-6,0-9.84-4.08-9.84-10,0-5.34,3.38-8.81,8.29-8.81a10.4,10.4,0,0,1,4.8,1.1l.14.08.14.1a.73.73,0,0,1,.28.79.63.63,0,0,1-.73.35.64.64,0,0,1-.51-.49,1.76,1.76,0,0,0,1,3,2.13,2.13,0,0,0,2.26-1,3,3,0,0,0,.25-1.78A3.23,3.23,0,0,0,62,99.65h0c-.21-.11-.43-.22-.66-.32A7.62,7.62,0,0,0,60.24,99h0a9.87,9.87,0,0,0-1.28-.3,19.72,19.72,0,0,0-3-.24C50.08,98.44,44.53,102.29,44.53,109.15Zm18.16-7.52c.5,2.4-1.89,2.7-2.23,1.42a1.13,1.13,0,0,0,.69.24A1.75,1.75,0,0,0,62.69,101.63Z"/><path class="cls-2" d="M65.72,98.89v.89c2.86.14,2.83.35,2.83,2.66V116c0,2.3,0,2.51-2.83,2.66v.88c1.34-.09,2.73-.15,4.19-.15s2.86.06,4.29.15v-.88c-2.86-.15-2.83-.36-2.83-2.66V102.44c0-2.31,0-2.52,2.83-2.66v-.89c-1.43.09-2.83.15-4.29.15S67.06,99,65.72,98.89Z"/><path class="cls-2" d="M75.41,118.67v.89c1.13-.09,2.26-.15,3.43-.15s2.28.06,3.41.15v-.89c-1.07-.14-2.53,0-2.53-1a34,34,0,0,1,2-5h8.44L92,117c.23.54.21,1-.21,1.21a5,5,0,0,1-2.23.42v.89c1.31-.09,2.62-.15,3.95-.15s2.65.06,4,.15v-.89a2.75,2.75,0,0,1-1.64-.5,7.26,7.26,0,0,1-1.51-2.63L87.13,98.71h-.95c-.78,2.13-1.76,4.29-2.71,6.39l-4,8.93-1.46,3C77.29,118.61,77.08,118.35,75.41,118.67ZM86.06,102.4l3.71,8.81H82.34Z"/><path class="cls-2" d="M98.42,118.68v.88c1.2-.09,2.39-.15,3.58-.15s2.37.06,3.53.15v-.88l-.47,0c-1.88,0-2.45-.26-2.45-2V102.23L117,119.59l2.35.41-.09-1.09V101.79c0-1.72.57-2,2.44-2l.47,0v-.89c-1.16.09-2.34.15-3.53.15s-2.39-.06-3.57-.15v.89l.48,0c1.81,0,2.34.26,2.34,2v14.69l-14-17.59a22.18,22.18,0,0,1-5.15,0v.89h.42c1.67,0,2.14.29,2.14,2v14.87c0,1.72-.53,2-2.34,2Z"/><path class="cls-2" d="M123.47,109.08v.07C123.49,115.87,128,120,134,120a11.35,11.35,0,0,0,11.5-11.44c0-6.57-4.52-10.12-10.88-10.12h-.19C127.69,98.44,123.49,103.12,123.47,109.08Zm3.18-.93c0-4.85,2.34-8.43,7.52-8.43,5.53,0,8.18,3.9,8.18,9.75,0,5.45-2.41,8.94-7.38,9.26C129.09,118.73,126.65,113.32,126.65,108.15Z"/><path class="cls-2" d="M8.38,99c-1.46,0-2.86-.06-4.2-.15H3.8a3.09,3.09,0,0,0-2.86,2.16,3.2,3.2,0,0,0,0,1.69,2.13,2.13,0,0,0,2,1.54,1.76,1.76,0,0,0,1.5-2.75.66.66,0,0,1-.6.39.59.59,0,0,1-.55-.51.74.74,0,0,1,.33-.7,2.39,2.39,0,0,1,1.61-.32l1.12.06.53.06A4.7,4.7,0,0,1,7,102.44v12.77c0,2.37-.2,3.23-1.6,3.47v.88c1.73-.09,3.39-.15,5.12-.15h2.87c.74,0,2.59,0,2.79,0,1.24,0,2.12-.09,2.12-.09.18,0,.65-.08,1-.16a3.07,3.07,0,0,0,2.41-2.65,3.46,3.46,0,0,0-.29-1.67,2.17,2.17,0,0,0-2.22-1.14,1.76,1.76,0,0,0-1,3,.68.68,0,0,1,.51-.5.61.61,0,0,1,.69.34.85.85,0,0,1-.24.8,2.35,2.35,0,0,1-1.51.62c-.36.06-.72.1-1.12.15s-1.41.08-1.41.08h-1a40.23,40.23,0,0,1-4.19-.14L9.83,117V102.44c0-2.31,0-2.51,2.83-2.66v-.89C11.23,99,9.83,99,8.38,99Zm-6.51,2c-.21.85.72,2.4,1.93,1.82a1,1,0,0,1-.91.56C2.09,103.44,1.23,102.6,1.87,101.06Zm18.94,14.82a2.88,2.88,0,0,1-.06.8,1.08,1.08,0,0,0,0-.3v0c-.21-.82-1.26-1.77-2.2-1.07C18.81,114.14,20.68,114.23,20.81,115.88Z"/></svg>