<svg width="89" height="76" viewBox="0 0 89 76" fill="none" xmlns="http://www.w3.org/2000/svg">
<path fill-rule="evenodd" clip-rule="evenodd" d="M36.4492 35.7264C36.0487 39.91 40.0992 43.8536 40.648 44.3139C44.729 47.7296 47.8705 48.1278 50.9858 48.1278C55.628 47.9985 58.0935 45.7619 59.5309 44.8656C58.7061 45.2904 54.3428 46.5397 51.05 45.3785C45.2315 43.1128 43.3298 37.8673 42.594 36.0591C42.3327 35.4285 41.5051 33.5995 40.1662 33.254C39.815 33.1631 39.4938 33.124 39.2005 33.124C37.2658 33.124 36.5289 34.8843 36.4492 35.7264ZM48.483 0.114882H48.4825L48.4865 0.117659C48.6295 0.151549 48.7634 0.186301 48.9034 0.22134C50.1591 0.558041 53.985 1.75234 57.0471 4.33681C60.9061 7.59545 63.7301 12.4205 64.8167 17.3544C65.0702 18.4948 66.0942 22.4339 63.9615 24.4428C63.9615 24.4428 64.3994 26.1389 65.591 26.239C66.9 26.3515 67.3615 25.5026 67.6237 24.7995C68.0511 23.6482 67.7862 21.8831 67.6408 20.7092C67.4355 19.0664 65.8888 13.1715 62.539 8.68597C60.0248 5.32125 56.6403 3.12939 54.5131 2.1169C53.3818 1.58164 51.4397 0.841321 48.9034 0.22134C48.6471 0.151549 48.4958 0.117658 48.483 0.114882ZM57.1148 7.00505C59.9478 10.5018 60.7937 13.8058 60.9569 14.3962C61.2701 15.5279 62.2512 19.7793 58.799 21.0558C59.0872 22.643 59.7965 24.3375 61.5372 24.5047C62.42 24.5936 63.5792 24.227 64.2338 22.716C64.7902 21.4335 64.6425 19.3326 64.1205 17.3117C60.7633 4.31488 51.5225 0.990477 46.2593 0C53.2698 1.92189 56.4162 6.14419 57.1148 7.00505ZM44.2059 0.216649H44.1709C43.4134 0.219808 42.5248 0.31832 41.3099 0.519747C47.4345 0.380548 50.1311 2.91236 50.9054 3.41851C51.9429 4.0967 56.0375 7.71866 56.5209 12.0842C56.6014 12.819 56.8195 15.5179 54.3614 16.6112C54.4372 17.0963 54.6721 17.859 55.329 18.9516C55.8497 19.8144 56.8935 20.5899 58.2542 20.3478C59.0805 20.2018 60.4347 19.607 60.6731 17.3117C60.8372 15.7381 60.0143 11.6075 56.1712 6.81597C54.6698 4.9431 52.7245 3.39745 50.352 2.1281C49.2417 1.53617 48.2788 1.13724 46.9301 0.697718C45.9548 0.38093 45.191 0.216649 44.2059 0.216649ZM58.6618 4.04482C59.5967 4.72013 63.2024 7.57984 65.3452 11.996C67.5187 16.4768 68.4038 20.2784 68.5022 23.5282C68.753 23.9266 69.3239 23.9159 69.6868 23.4253C70.0565 22.9246 69.9975 21.976 69.9298 21.3761C69.6482 18.8575 68.9257 16.8634 68.6667 16.1505C68.0678 14.5135 66.0164 9.38445 61.2439 5.28143C59.4975 3.778 56.9265 2.42966 56.0869 2.03715C54.8631 1.46274 52.6305 0.62228 50.8163 0.322341C53.4665 1.07099 56.0542 2.16161 58.6618 4.04482ZM24.6448 24.3164C24.2218 25.468 24.485 27.2327 24.6305 28.4074C24.8342 30.0513 26.3824 35.9466 29.7315 40.4314C32.2445 43.7961 35.6282 45.9868 37.7585 46.9992C38.8864 47.5338 40.8242 48.2725 43.3531 48.8912C42.0811 48.5486 38.2722 47.3551 35.2227 44.7786C31.3652 41.5212 28.5415 36.6957 27.4515 31.7606C27.201 30.6217 26.1763 26.6794 28.3066 24.675C28.3066 24.675 27.8727 22.9772 26.6795 22.8763C26.6009 22.8699 26.5255 22.8671 26.4524 22.8671C25.3161 22.8664 24.891 23.6573 24.6448 24.3164ZM22.5825 25.6917C22.2127 26.1912 22.2715 27.1397 22.3399 27.7421C22.623 30.2608 23.3444 32.2536 23.6054 32.9661C24.2038 34.6043 26.2532 39.7325 31.025 43.8364C32.7726 45.3378 35.3448 46.6865 36.1844 47.0786C37.4078 47.6554 39.6404 48.4951 41.4534 48.7946C38.8043 48.0468 36.2147 46.9561 33.6088 45.0718C32.6747 44.3972 29.0685 41.5355 26.9265 37.1178C24.7541 32.6406 23.8662 28.8371 23.7698 25.588C23.6512 25.4013 23.4638 25.3045 23.2615 25.3045C23.0298 25.3045 22.7782 25.4297 22.5825 25.6917ZM30.5151 24.5984H30.4922C29.6487 24.5984 28.6325 25.0228 28.0379 26.3982C27.4814 27.6826 27.6276 29.7836 28.1491 31.8049C31.5064 44.8021 40.7502 48.1278 46.0128 49.1162C38.9988 47.1951 35.8554 42.9708 35.1542 42.1127C32.3242 38.6124 31.478 35.312 31.3131 34.7195C30.9997 33.59 30.0201 29.3381 33.4707 28.0608C33.1832 26.474 32.4728 24.7795 30.7352 24.6099C30.6629 24.6027 30.5898 24.5992 30.5151 24.5984ZM32.5618 4.37108C34.8975 3.1629 38.7273 2.79547 41.2224 3.73961C47.0642 5.94593 48.9407 11.2505 49.6768 13.0551C49.9378 13.6881 50.7669 15.5179 52.1062 15.8622C54.767 16.5486 55.7295 14.3607 55.8221 13.389C56.223 9.20811 52.1712 5.26228 51.6228 4.80227C47.5442 1.38778 44.4148 1.0415 41.3018 1.0415C36.3372 1.0415 34.1341 3.56011 32.5618 4.37108ZM34.5425 28.721H34.5179C34.3558 28.7226 34.1882 28.7377 34.0171 28.7677C33.1888 28.9152 31.8805 29.5323 31.6429 31.8284C31.4784 33.4009 32.124 37.4133 35.9708 42.2017C37.4747 44.0753 39.5448 45.718 41.9193 46.9873C43.0295 47.5821 43.9894 47.9794 45.3407 48.4189C47.0732 48.9833 48.1352 49.0663 50.959 48.5996C44.8344 48.7377 42.139 46.2059 41.3659 45.7009C40.3299 45.0175 36.2318 41.3979 35.7515 37.032C35.6683 36.2988 35.4498 33.5995 37.9087 32.5021C37.8301 32.019 37.6302 31.2069 36.9761 30.1124C36.5247 29.364 35.652 28.721 34.5425 28.721Z" fill="url(#paint0_linear_204_7955)"/>
<path fill-rule="evenodd" clip-rule="evenodd" d="M41.4443 24.5136V24.5806C41.4537 27.2018 43.5467 29.32 46.1331 29.32C48.72 29.32 50.8213 27.1921 50.8213 24.5631C50.8213 24.3863 50.8084 24.212 50.7901 24.0401C50.5343 21.6599 48.549 19.8066 46.1331 19.8066C43.7177 19.8066 41.7317 21.6599 41.4716 24.0401C41.4571 24.1961 41.4463 24.3541 41.4443 24.5136ZM49.9528 24.216C49.9528 24.0557 49.9435 23.9005 49.9267 23.7465C49.8497 23.0333 49.5978 22.3739 49.2136 21.8134C49.7977 22.4597 50.1916 23.2926 50.2884 24.216C50.3083 24.3708 50.3137 24.5283 50.3137 24.6831C50.3137 27.0438 48.4377 28.9494 46.1117 28.9494C44.657 28.9494 43.3705 28.1966 42.6211 27.0514C43.3907 27.9282 44.5073 28.4806 45.7524 28.4806C48.069 28.4806 49.9528 26.5719 49.9528 24.216Z" fill="url(#paint1_linear_204_7955)"/>
<path fill-rule="evenodd" clip-rule="evenodd" d="M42.0618 49.0076C41.9074 48.9706 41.7628 48.9327 41.6123 48.8955C41.9296 48.9813 42.0991 49.016 42.0618 49.0076Z" fill="white"/>
<path fill-rule="evenodd" clip-rule="evenodd" d="M13.0723 62.377V62.9386C14.8258 63.0292 14.8059 63.1592 14.8059 64.614V71.331C14.8059 72.2628 14.8059 72.9334 15.2649 73.7718C16.1395 75.434 18.1379 75.6926 19.802 75.6926C20.535 75.6926 21.5761 75.5465 22.2679 75.3048C22.9271 75.0794 23.806 74.4092 24.1719 73.8129C24.7179 72.9134 24.9758 72.114 24.9758 71.0861V64.2051C24.9758 63.1237 25.3235 62.9549 26.4789 62.9549L26.7686 62.9386V62.377C26.0565 62.4328 25.3235 62.4715 24.5919 62.4715C23.8616 62.4715 23.1348 62.4328 22.4002 62.377V62.9386L22.6903 62.9549C23.806 62.9549 24.1354 63.1237 24.1354 64.2051V70.1371C24.1354 71.2711 23.9701 72.414 23.4028 73.2529C22.7455 74.2409 21.4148 74.537 20.2916 74.537C17.9003 74.537 16.435 73.7718 16.5459 71.1255V64.614C16.5459 63.1592 16.5249 63.0292 18.283 62.9386V62.377C17.4041 62.4328 16.5459 62.4715 15.6522 62.4715C14.753 62.4715 13.894 62.4328 13.0723 62.377Z" fill="white"/>
<path fill-rule="evenodd" clip-rule="evenodd" d="M26.8828 68.8477C26.8828 73.271 30.2448 75.6912 34.2884 75.6912C35.4384 75.6912 37.2681 75.2639 38.4224 74.5914L38.7891 73.7541L38.623 73.5658C37.5255 74.3158 36.2251 74.7418 34.9095 74.7418C31.2345 74.7418 28.8576 72.1677 28.8576 68.436C28.8576 65.0626 30.9389 62.8774 33.9564 62.8774C35.2735 62.8774 36.1524 63.1957 36.9056 63.5703C36.9384 63.5862 36.9636 63.603 36.9959 63.6225C37.0239 63.6461 37.0491 63.666 37.0806 63.6848C37.2179 63.7897 37.3186 64.0023 37.2518 64.185C37.1919 64.3541 36.9752 64.451 36.8041 64.4048C36.5926 64.3541 36.5351 64.224 36.4919 64.0957C35.844 64.7518 36.2037 65.7666 37.0771 65.9792C37.5831 66.0941 38.1917 65.8436 38.4644 65.327C38.63 65.0111 38.6841 64.4662 38.6179 64.2037C38.4484 63.52 38.0863 63.1323 37.6212 62.855V62.853H37.6134C37.4874 62.7797 37.3529 62.709 37.2117 62.6477C37.0316 62.5702 36.6634 62.4577 36.5451 62.437C36.5451 62.437 36.5351 62.437 36.5304 62.4354C36.2664 62.3529 36.0081 62.2874 35.7441 62.2447C35.1421 62.1534 34.5311 62.0928 33.9217 62.0928C30.2981 62.0928 26.8828 64.5212 26.8828 68.8477ZM38.0541 64.1052C38.3605 65.6166 36.8881 65.8089 36.6781 65.0028C36.8201 65.1105 36.9651 65.1567 37.1055 65.1567C37.6219 65.1567 38.0778 64.5368 38.0541 64.1052Z" fill="white"/>
<path fill-rule="evenodd" clip-rule="evenodd" d="M39.9219 62.377V62.9386C41.6796 63.0292 41.6613 63.1592 41.6613 64.614V73.1799C41.6613 74.6294 41.6796 74.7662 39.9219 74.8568V75.4153C40.7463 75.359 41.6034 75.3207 42.5006 75.3207C43.3989 75.3207 44.2564 75.359 45.1369 75.4153V74.8568C43.3799 74.7662 43.3989 74.6294 43.3989 73.1799V64.614C43.3989 63.1592 43.3799 63.0292 45.1369 62.9386V62.377C44.2564 62.4328 43.3989 62.4715 42.5006 62.4715C41.6034 62.4715 40.7463 62.4328 39.9219 62.377Z" fill="white"/>
<path fill-rule="evenodd" clip-rule="evenodd" d="M45.875 74.8562V75.4148C46.57 75.3585 47.2602 75.3202 47.9812 75.3202C48.6898 75.3202 49.3847 75.3585 50.0809 75.4148V74.8562C49.4193 74.7657 48.5237 74.8562 48.5237 74.2404C48.5237 73.8283 49.5321 71.6117 49.7507 71.1074H54.9455L56.0616 73.8283C56.2063 74.1654 56.1923 74.4646 55.932 74.5922C55.528 74.8176 55.0364 74.8347 54.5613 74.8562V75.4148C55.3682 75.3585 56.1705 75.3202 56.9926 75.3202C57.8166 75.3202 58.622 75.3585 59.4266 75.4148V74.8562C59.0059 74.8347 58.622 74.7266 58.4202 74.5364C57.9613 74.0896 57.7253 73.4721 57.4869 72.8773L53.078 62.2646H52.4963C52.0183 63.607 51.4155 64.9692 50.829 66.2943L48.36 71.9291L47.4671 73.8447C47.0269 74.8176 46.8997 74.652 45.875 74.8562ZM52.42 64.5923L54.704 70.1512H50.1333L52.42 64.5923Z" fill="white"/>
<path fill-rule="evenodd" clip-rule="evenodd" d="M60.0283 74.8568V75.4153C60.7629 75.359 61.4945 75.3207 62.2263 75.3207C62.9563 75.3207 63.687 75.359 64.3987 75.4153V74.8568L64.1078 74.8353C62.9563 74.8353 62.6063 74.671 62.6063 73.5872V64.4839L71.4407 75.434L72.8866 75.6926L72.8322 75.0024V64.2051C72.8322 63.1237 73.179 62.9549 74.3305 62.9549L74.6214 62.9386V62.377C73.909 62.4328 73.179 62.4715 72.4475 62.4715C71.7156 62.4715 70.9818 62.4328 70.2553 62.377V62.9386L70.5475 62.9549C71.6608 62.9549 71.9902 63.1237 71.9902 64.2051V73.4727L63.3588 62.377C62.824 62.4328 62.3169 62.4715 61.7862 62.4715C61.237 62.4715 60.7276 62.4328 60.1948 62.377V62.9386H60.4499C61.4755 62.9549 61.7686 63.1237 61.7686 64.2051V73.5872C61.7686 74.671 61.4389 74.8353 60.3255 74.8353L60.0283 74.8568Z" fill="white"/>
<path fill-rule="evenodd" clip-rule="evenodd" d="M75.4326 68.8061V68.8501C75.4423 73.0907 78.2147 75.692 81.9247 75.692C85.926 75.692 89.0001 72.4876 89.0001 68.4751C89.0001 64.3345 86.2184 62.0935 82.3059 62.0935C82.2684 62.0928 82.2311 62.0928 82.195 62.0928C78.0273 62.0928 75.4427 65.0462 75.4326 68.8061ZM77.3891 68.2162C77.3891 65.1582 78.8311 62.9033 82.0142 62.9033C85.4134 62.9033 87.0424 65.3617 87.0424 69.0519C87.0424 72.4876 85.564 74.6899 82.508 74.8906C78.8874 74.8906 77.3891 71.4791 77.3891 68.2162Z" fill="white"/>
<path fill-rule="evenodd" clip-rule="evenodd" d="M4.65395 62.4723C3.7572 62.4723 2.89546 62.4308 2.07291 62.377V62.381C1.9932 62.3793 1.91228 62.3746 1.84228 62.3793C0.990617 62.4156 0.289496 62.9904 0.0794959 63.7372C0.00678926 63.9997 -0.0465036 64.4636 0.0604564 64.8062C0.22995 65.3647 0.748789 65.7923 1.26791 65.7752C2.1682 65.7356 2.70487 64.8062 2.19116 64.0396C2.12546 64.1572 2.04612 64.2745 1.8225 64.2861C1.65132 64.2941 1.51132 64.1381 1.48491 63.9658C1.45346 63.7727 1.55566 63.6403 1.68632 63.5262C1.94691 63.3016 2.31166 63.3152 2.67379 63.3207C2.89312 63.3279 3.11824 63.3426 3.36595 63.3614C3.45732 63.3678 3.5725 63.3805 3.69028 63.3985C3.8132 63.6359 3.80854 64.0061 3.80854 64.6164V72.6733C3.80854 74.1684 3.68487 74.7084 2.82191 74.8577V75.4161C3.88516 75.3614 4.90987 75.3231 5.96995 75.3231C6.56345 75.3231 7.15183 75.3196 7.73712 75.3248C8.19016 75.3299 9.3292 75.3299 9.45016 75.3248C10.2139 75.3073 10.7537 75.2677 10.7537 75.2677C10.868 75.2458 11.1555 75.2175 11.3448 75.17C12.1739 74.9733 12.7585 74.2741 12.8265 73.497C12.8522 73.2302 12.8132 72.7646 12.6476 72.4463C12.3758 71.9321 11.7916 71.6082 11.2829 71.7259C10.4084 71.9365 10.0509 72.9505 10.6973 73.6091C10.7421 73.4799 10.7981 73.3506 11.0088 73.2939C11.1803 73.2553 11.3685 73.3462 11.4308 73.5114C11.4961 73.6997 11.3942 73.8751 11.2829 74.0156C11.0715 74.2864 10.7078 74.3422 10.3551 74.4061C10.1349 74.4424 9.91291 74.4715 9.66754 74.5006C9.37008 74.5361 8.80224 74.5481 8.80224 74.5481C8.59224 74.5565 8.38691 74.5589 8.18083 74.5589C7.30387 74.5589 6.37249 74.5589 5.60408 74.4676L5.54846 73.7742V64.6164C5.54846 63.1616 5.53091 63.0316 7.28595 62.941V62.377C6.40591 62.4308 5.54846 62.4723 4.65395 62.4723ZM0.651537 63.7467C0.52087 64.2841 1.09683 65.263 1.8392 64.8928C1.72683 65.1329 1.50675 65.2486 1.27762 65.2486C0.78799 65.2486 0.256084 64.7189 0.651537 63.7467ZM12.2999 73.0953C12.3092 73.2397 12.2999 73.4088 12.2599 73.5988C12.2657 73.5397 12.2556 73.4743 12.2377 73.4088V73.3805C12.1093 72.8576 11.4646 72.2596 10.8863 72.704C11.0691 71.9976 12.2222 72.0534 12.2999 73.0953Z" fill="white"/>
<defs>
<linearGradient id="paint0_linear_204_7955" x1="8.42667" y1="24.4243" x2="96.2436" y2="24.4243" gradientUnits="userSpaceOnUse">
<stop stop-color="#967028"/>
<stop offset="0.4" stop-color="#F4E5A0"/>
<stop offset="0.5" stop-color="#F4E5A0"/>
<stop offset="1" stop-color="#775928"/>
</linearGradient>
<linearGradient id="paint1_linear_204_7955" x1="38.7187" y1="24.5374" x2="55.9851" y2="24.5374" gradientUnits="userSpaceOnUse">
<stop stop-color="#967028"/>
<stop offset="0.4" stop-color="#F4E5A0"/>
<stop offset="0.5" stop-color="#F4E5A0"/>
<stop offset="1" stop-color="#775928"/>
</linearGradient>
</defs>
</svg>
