<svg width="100" height="30" viewBox="0 0 100 30" fill="none" xmlns="http://www.w3.org/2000/svg">
<g clip-path="url(#clip0_291:48)">
<path fill-rule="evenodd" clip-rule="evenodd" d="M53.76 11.0537C54.0005 11.3053 56.1652 17.3 56.3916 18.0401C56.617 18.833 56.9354 19.5937 57.3395 20.3047C58.0894 20.4823 58.1601 19.6979 58.3865 19.0762C59.6174 15.7162 61.485 10.8169 62.4188 7.51608C63.0696 5.9175 63.1262 5.48826 61.9519 5.48826C60.7776 5.48826 60.9049 6.28755 60.438 7.32366C60.0277 9.29228 58.4431 13.4515 57.863 15.361C57.863 15.6126 57.863 15.6126 57.5659 15.6126C56.5897 12.7707 55.4578 9.29228 54.3542 6.47997C54.0571 5.93231 53.5336 5.81389 53.1799 7.04243C52.5857 8.99625 51.7651 11.3201 51.1284 13.2147C51.1284 13.2147 50.3644 15.6126 50.3078 15.731C49.9032 15.0504 49.607 14.3056 49.4306 13.5256C48.5534 11.2609 47.7894 8.81863 47.0396 6.55398C46.8557 6.12473 46.8557 5.8731 46.4454 5.62147C46.0341 5.46203 45.5894 5.42113 45.1579 5.50306C43.9977 5.69548 44.7476 6.67239 44.9881 7.39767C46.4029 11.3793 47.9734 16.1603 49.5438 19.9495C49.5806 20.0434 49.6404 20.1255 49.7171 20.1875C49.7938 20.2495 49.8849 20.2893 49.981 20.3028C50.0771 20.3163 50.1749 20.3031 50.2646 20.2644C50.3543 20.2258 50.4326 20.1631 50.4918 20.0827C50.7181 19.6238 53.5902 11.0537 53.76 11.0537Z" fill="black"/>
<path fill-rule="evenodd" clip-rule="evenodd" d="M0.222116 5.73982C0.163632 5.98639 0.183498 6.24619 0.278709 6.4799C0.51923 7.51601 -0.188184 19.3277 -0.00425627 19.8014C0.56843 20.0708 1.21051 20.1333 1.82087 19.979C2.10384 19.6682 1.99065 19.3721 1.99065 18.8837C1.99065 16.7967 2.16043 14.7836 2.16043 12.6374C2.23117 11.8381 2.28776 11.2904 2.28776 10.802C2.28776 10.3135 2.28776 10.3727 2.40095 10.2543C2.51414 10.1359 4.36756 13.5107 4.55149 13.8807C4.90519 14.606 5.59846 15.7161 6.06535 16.5746C6.77277 17.9216 7.12647 17.0039 7.29625 16.693C7.70655 16.1454 10.8758 10.3283 11.1021 10.2099C11.3144 10.4467 11.3144 16.2638 11.3144 16.693C11.3144 19.8754 10.9607 20.1862 12.8848 20.053C13.479 20.053 13.5356 19.5646 13.479 19.0169C13.479 17.9808 13.479 16.8115 13.479 15.7753C13.3234 13.1406 13.2102 10.1359 13.2102 7.51601C13.2102 7.20518 13.3234 6.03585 13.3234 5.85823C13.1502 5.65403 12.9156 5.51779 12.6583 5.47204C12.401 5.42628 12.1366 5.47375 11.9086 5.6066C11.4983 5.85823 11.3851 6.40589 11.088 6.77593C9.89954 8.98138 8.30078 11.4829 7.18307 13.5699C6.77277 14.31 6.77277 14.0583 6.41906 13.5699C5.65505 12.4006 4.66467 10.3875 3.97141 9.2182L2.55658 6.77593C2.35992 6.35151 2.10753 5.95793 1.80672 5.6066C1.41057 5.31057 0.632416 5.54739 0.222116 5.73982Z" fill="black"/>
<path fill-rule="evenodd" clip-rule="evenodd" d="M74.8844 12.5933C75.3852 12.1658 75.9792 11.8746 76.6136 11.7454C77.248 11.6163 77.9031 11.6533 78.5205 11.8532C80.3881 12.7117 80.6286 15.598 79.808 17.0042C79.4586 17.5522 78.9551 17.9732 78.3672 18.2092C77.7792 18.4452 77.1358 18.4844 76.5256 18.3215C75.9346 18.1995 75.3751 17.9472 74.8844 17.5815V12.5933ZM74.8844 10.5063C74.7962 8.8942 74.7962 7.27818 74.8844 5.66612C74.8844 5.00004 74.6581 4.88163 74.0638 5.11845C72.649 5.74012 72.649 5.4885 72.8471 6.83545C72.9603 7.51632 72.8471 15.4056 72.8471 16.5157C72.8471 18.7064 72.55 19.2096 75.5919 20.1273C76.458 20.3174 77.3519 20.3223 78.2199 20.1417C79.0879 19.9611 79.9121 19.5987 80.6428 19.0764C83.6281 16.5157 82.8075 9.29252 77.3604 9.84018C76.8856 9.86707 76.413 9.9264 75.9456 10.0178C75.7616 10.077 75.0684 10.5063 74.9835 10.5063H74.8844Z" fill="black"/>
<path fill-rule="evenodd" clip-rule="evenodd" d="M33.6265 19.9348C33.8477 19.1629 33.9104 18.3508 33.8104 17.5517C33.7525 16.7141 33.7525 15.8731 33.8104 15.0355C33.9802 15.0355 34.1641 15.3463 34.5178 15.7163C34.8715 16.0864 37.7861 19.2687 38.2529 19.624C38.4158 19.7826 38.6122 19.8988 38.8261 19.9631C39.04 20.0273 39.2653 20.038 39.4838 19.994C39.8941 19.994 40.545 19.994 40.7713 19.698C40.7713 19.2687 39.9507 18.5879 39.597 18.2178C39.2433 17.8478 38.7906 17.3741 38.3803 16.8709C37.4804 16.0423 36.6387 15.147 35.8619 14.1918C35.8619 14.0586 39.0735 11.2314 39.6678 10.6986C39.8941 10.4469 40.1347 10.3877 40.0781 10.0177C39.3499 9.78269 38.5709 9.78269 37.8426 10.0177C37.5597 10.1509 35.6214 11.9863 35.0979 12.4748C34.9281 12.6524 33.9236 13.7625 33.8104 13.7033C33.6406 13.1409 33.8104 5.48839 33.6972 5.05914C33.584 4.6299 31.5891 5.31077 31.6457 6.05086C31.7566 6.57085 31.8136 7.10185 31.8155 7.63463V18.2178C31.8155 18.5879 31.7023 19.698 31.9428 19.8756C32.4933 20.0228 33.0678 20.043 33.6265 19.9348Z" fill="black"/>
<path fill-rule="evenodd" clip-rule="evenodd" d="M18.3903 14.9169C19.0411 14.7393 21.2199 15.287 21.319 15.8938C21.3755 16.5487 21.3755 17.2076 21.319 17.8625C20.9087 18.4101 18.0932 19.5054 17.1594 17.5516C17.0336 17.2741 16.9683 16.9707 16.9683 16.6635C16.9683 16.3563 17.0336 16.053 17.1594 15.7754C17.2953 15.5497 17.4751 15.3566 17.6872 15.2087C17.8993 15.0607 18.1389 14.9613 18.3903 14.9169ZM21.3756 14.1768C20.8258 13.7958 20.2109 13.5294 19.5646 13.3924C18.7592 13.2991 17.9443 13.3592 17.1594 13.57C16.4985 13.768 15.9158 14.1826 15.497 14.7529C15.0781 15.3232 14.8452 16.0191 14.8326 16.7382C14.8199 17.4572 15.0281 18.1616 15.4266 18.7476C15.8251 19.3337 16.3928 19.7705 17.0462 19.9939C18.1653 20.3931 19.3793 20.3931 20.4984 19.9939C20.7389 19.8755 21.2058 19.5646 21.3756 19.5054C21.5454 19.4462 21.6161 19.9347 21.8425 20.0531C22.0688 20.1715 23.13 20.0531 23.4271 19.7571C23.7242 19.461 23.7808 19.5054 23.5969 19.0762C23.3231 18.5098 23.2242 17.8685 23.3139 17.2408V12.8299C23.3879 12.2053 23.2421 11.574 22.9036 11.0537C21.7859 8.72983 15.0513 9.64753 15.5889 11.6162C16.1266 13.5848 17.0038 10.9353 19.9749 11.3053C21.5737 11.4829 21.4039 13.0815 21.4039 14.1768H21.3756Z" fill="black"/>
<path fill-rule="evenodd" clip-rule="evenodd" d="M90.6314 13.8806H85.7785C85.8436 13.2729 86.1087 12.7077 86.5284 12.2821C86.9865 11.8617 87.5621 11.6074 88.1696 11.5568C88.486 11.5294 88.8044 11.5691 89.1058 11.6733C89.4073 11.7776 89.6855 11.9444 89.924 12.1636C90.164 12.3703 90.3534 12.6338 90.4765 12.9325C90.5995 13.2311 90.6526 13.5562 90.6314 13.8806ZM85.6512 15.4644C86.0049 15.2868 91.3105 15.4644 92.2726 15.4644C93.2347 15.4644 92.7961 12.1636 91.0417 10.8167C90.3249 10.2577 89.4717 9.92211 88.5805 9.84877C87.6892 9.77542 86.7963 9.96728 86.0048 10.4022C85.2134 10.8371 84.5556 11.4973 84.1075 12.3066C83.6594 13.1159 83.4392 14.0413 83.4724 14.976C83.4388 15.8837 83.6407 16.7841 84.0567 17.5815C84.4726 18.3789 85.0872 19.0437 85.8351 19.5053C87.4056 20.6154 91.6218 20.5562 92.1452 18.8392C92.7961 16.6337 91.2681 17.8623 90.7304 18.0991C90.2783 18.293 89.8018 18.4176 89.3156 18.4691C86.1888 18.8392 85.4248 15.9529 85.6512 15.4644Z" fill="black"/>
<path fill-rule="evenodd" clip-rule="evenodd" d="M64.4154 13.881C64.4651 13.2488 64.7398 12.6591 65.1852 12.2288C65.6307 11.7984 66.2143 11.5587 66.8206 11.5571C68.0374 11.4239 69.4522 12.534 69.2117 13.881H64.4154ZM64.1749 15.3611C64.472 15.3611 69.9757 15.3611 70.7397 15.3611C71.5037 15.3611 71.3764 14.8727 71.3198 14.2658C71.2785 13.444 71.0338 12.6474 70.6097 11.9542C70.1857 11.2611 69.5968 10.695 68.9007 10.3115C68.2047 9.92802 67.4254 9.74025 66.6391 9.7666C65.8528 9.79294 65.0866 10.0325 64.4154 10.4618C63.6608 10.9282 63.0436 11.6033 62.6318 12.4128C62.2199 13.2223 62.0293 14.1349 62.081 15.0503C62.0209 15.954 62.2154 16.8562 62.6404 17.6454C63.0654 18.4347 63.7022 19.0762 64.472 19.4908C66.4669 20.7786 70.386 20.2309 70.7397 18.7655C70.7397 18.3363 71.0227 17.2854 70.386 17.537C69.6169 17.9918 68.7798 18.3071 67.9101 18.4695C67.4464 18.5343 66.9751 18.5023 66.5234 18.3752C66.0717 18.2482 65.6486 18.0287 65.2785 17.7294C64.7691 17.3002 63.9485 16.0124 64.1749 15.3611Z" fill="black"/>
<path fill-rule="evenodd" clip-rule="evenodd" d="M95.9518 19.9943C96.3055 19.6242 96.2489 19.4466 96.2489 18.8989V17.4188C96.2489 15.465 95.8952 12.2234 98.0599 11.7349C98.5268 11.6165 98.64 12.031 99.2342 11.9126C99.5846 11.5837 99.8478 11.1655 99.9982 10.6988C99.9982 9.76632 98.5834 9.5887 97.2959 10.1956C96.8856 10.388 96.546 11.0541 96.2489 11.1133C96.2489 10.5656 96.3621 10.3288 96.0084 9.84033C95.5549 9.88583 95.116 10.0322 94.7209 10.2696C94.1408 10.5656 94.0277 10.5656 94.1408 11.3057C94.254 12.0458 94.1408 17.1228 94.1408 18.3365C94.1974 20.1867 94.1974 20.1275 95.9518 19.9943Z" fill="black"/>
<path fill-rule="evenodd" clip-rule="evenodd" d="M26.9639 19.935V19.8166C27.1281 18.3133 27.1707 16.7981 27.0912 15.2873C27.0912 14.118 27.3742 12.2234 28.6051 11.8533C29.5955 11.4833 29.6521 12.4602 30.3029 11.8533C31.8167 10.1955 29.7794 9.52947 28.5485 10.0771C27.3176 10.6248 27.4874 11.054 27.1337 11.1725C27.1052 10.9316 27.1052 10.688 27.1337 10.4472C27.1337 10.1363 27.0063 10.1363 26.8931 9.95872C26.4395 9.95485 25.9937 10.083 25.6056 10.3288C25.0256 10.5656 24.8416 10.6248 25.0256 11.3649C25.15 12.4996 25.1879 13.643 25.1388 14.7841V18.1588C25.2661 19.9942 25.0256 20.1275 26.9639 19.935Z" fill="black"/>
<path fill-rule="evenodd" clip-rule="evenodd" d="M53.3505 21.9034C51.0149 22.2049 48.7183 22.7758 46.5027 23.6056C45.8095 23.9165 45.0879 24.0941 44.3946 24.4049C42.9798 24.9526 41.6499 25.441 40.2492 26.0035C39.7823 26.1811 36.4433 27.2172 35.8632 27.3504C33.0336 28.0757 28.7891 28.9342 26.0868 27.6465C24.7993 26.9804 24.6719 29.0526 27.6006 29.7927C29.3133 30.1065 31.0708 30.0257 32.7506 29.5559C34.1654 29.2451 35.8632 28.6974 37.2073 28.2682C38.5514 27.8389 40.136 27.3504 41.5933 26.9212C41.947 26.788 42.2299 26.6696 42.6402 26.5512L44.8049 25.8703C45.2152 25.7519 45.5123 25.5742 45.8661 25.441L48.1015 24.8934C48.5118 24.775 48.8089 24.6565 49.1626 24.5233C52.1248 23.8622 55.1462 23.5347 58.1751 23.5464C58.9249 23.5464 60.0426 23.7388 60.8066 23.8573C62.2215 24.0349 61.9102 23.2504 60.9764 22.7471C58.5485 21.7739 55.9193 21.483 53.3505 21.9034Z" fill="#F9CC46"/>
</g>
<defs>
<clipPath id="clip0_291:48">
<rect width="100" height="30" fill="white"/>
</clipPath>
</defs>
</svg>
